<svg xmlns="http://www.w3.org/2000/svg" width="37.818" height="40.016" viewBox="0 0 37.818 40.016">
  <path id="Icon_awesome-arrow-left" data-name="Icon awesome-arrow-left" d="M21.735,39.983l-1.874,2.034a1.907,1.907,0,0,1-2.861,0L.592,24.213a2.325,2.325,0,0,1,0-3.106L17,3.293a1.907,1.907,0,0,1,2.861,0l1.874,2.034A2.336,2.336,0,0,1,21.7,8.471L11.531,18.99H35.789a2.113,2.113,0,0,1,2.026,2.2v2.932a2.113,2.113,0,0,1-2.026,2.2H11.531L21.7,36.84A2.318,2.318,0,0,1,21.735,39.983Z" transform="translate(0.004 -2.647)" fill="#335daf" opacity="0.32"/>
</svg>
