<?xml version="1.0" encoding="utf-8"?>
<!-- Generator: Adobe Illustrator 23.0.0, SVG Export Plug-In . SVG Version: 6.00 Build 0)  -->
<svg version="1.1" id="Layer_1" xmlns="http://www.w3.org/2000/svg" xmlns:xlink="http://www.w3.org/1999/xlink" x="0px" y="0px"
	 viewBox="0 0 33 33" style="enable-background:new 0 0 33 33;" xml:space="preserve">
<style type="text/css">
	.st0{fill:#F65E55;}
	.st1{fill:none;stroke:#FFFFFF;stroke-width:2;}
</style>
<path class="st0" d="M16.5,33c-0.5,0-1.1,0-1.6-0.1c-0.5-0.1-1.1-0.1-1.6-0.2s-1.1-0.2-1.6-0.4c-0.5-0.2-1-0.3-1.5-0.5
	c-0.5-0.2-1-0.4-1.5-0.7c-0.5-0.3-0.9-0.5-1.4-0.8c-0.4-0.3-0.9-0.6-1.3-1s-0.8-0.7-1.2-1.1S4.1,27.4,3.7,27c-0.3-0.4-0.7-0.9-1-1.3
	c-0.3-0.4-0.6-0.9-0.8-1.4c-0.3-0.5-0.5-1-0.7-1.5c-0.2-0.5-0.4-1-0.5-1.5s-0.3-1-0.4-1.6c-0.1-0.5-0.2-1.1-0.2-1.6
	C0,17.6,0,17,0,16.5c0-0.5,0-1.1,0.1-1.6c0.1-0.5,0.1-1.1,0.2-1.6c0.1-0.5,0.2-1.1,0.4-1.6c0.2-0.5,0.3-1,0.5-1.5s0.4-1,0.7-1.5
	s0.5-0.9,0.8-1.4c0.3-0.4,0.6-0.9,1-1.3s0.7-0.8,1.1-1.2C5.2,4.5,5.6,4.1,6,3.7c0.4-0.3,0.9-0.7,1.3-1c0.4-0.3,0.9-0.6,1.4-0.8
	c0.5-0.3,1-0.5,1.5-0.7s1-0.4,1.5-0.5c0.5-0.2,1-0.3,1.6-0.4s1.1-0.2,1.6-0.2S16,0,16.5,0c0.5,0,1.1,0,1.6,0.1s1.1,0.1,1.6,0.2
	s1.1,0.2,1.6,0.4c0.5,0.2,1,0.3,1.5,0.5c0.5,0.2,1,0.4,1.5,0.7c0.5,0.3,0.9,0.5,1.4,0.8c0.4,0.3,0.9,0.6,1.3,1
	c0.4,0.3,0.8,0.7,1.2,1.1c0.4,0.4,0.7,0.8,1.1,1.2c0.3,0.4,0.7,0.9,1,1.3c0.3,0.4,0.6,0.9,0.8,1.4s0.5,1,0.7,1.5
	c0.2,0.5,0.4,1,0.5,1.5c0.2,0.5,0.3,1,0.4,1.6s0.2,1.1,0.2,1.6C33,15.4,33,16,33,16.5c0,0.5,0,1.1-0.1,1.6c-0.1,0.5-0.1,1.1-0.2,1.6
	s-0.2,1.1-0.4,1.6s-0.3,1-0.5,1.5c-0.2,0.5-0.4,1-0.7,1.5s-0.5,0.9-0.8,1.4c-0.3,0.4-0.6,0.9-1,1.3c-0.3,0.4-0.7,0.8-1.1,1.2
	s-0.8,0.7-1.2,1.1s-0.9,0.7-1.3,1c-0.4,0.3-0.9,0.6-1.4,0.8c-0.5,0.3-1,0.5-1.5,0.7c-0.5,0.2-1,0.4-1.5,0.5c-0.5,0.2-1,0.3-1.6,0.4
	s-1.1,0.2-1.6,0.2C17.6,33,17,33,16.5,33z"/>
<polyline class="st1" points="25.8,12.4 16.1,23.3 7.2,12.4 "/>
</svg>
