<?xml version="1.0" encoding="utf-8"?>
<!-- Generator: Adobe Illustrator 23.0.0, SVG Export Plug-In . SVG Version: 6.00 Build 0)  -->
<svg version="1.1" id="Layer_1" xmlns="http://www.w3.org/2000/svg" xmlns:xlink="http://www.w3.org/1999/xlink" x="0px" y="0px"
	 viewBox="0 0 1366 694.79" style="enable-background:new 0 0 1366 694.79;" xml:space="preserve">
<style type="text/css">
	.st0{fill:#ECF6FF;}
	.st1{fill:#3D82A4;}
	.st2{fill:#DEEAF4;}
	.st3{fill:#C7C7C7;}
	.st4{fill:#EBEBEB;}
	.st5{fill:#DBDBDB;}
	.st6{fill:#A6A6A6;}
	.st7{fill:#FFFFFF;}
	.st8{fill:#FF725E;}
	.st9{fill:#37474F;}
	.st10{fill:#455A64;}
	.st11{fill:#E56654;}
	.st12{fill:#263238;}
	.st13{fill:#F6F6F6;}
	.st14{fill:#FE5F55;}
	.st15{fill:#495867;}
	.st16{fill:#395E95;}
</style>
<path class="st0" d="M703.22,118.23c84.9-18.05,121.25,18.99,200.88,102.67c79.64,83.67,108.52,185.86,117.67,232.03
	c18.53,93.5-14.05,179.07-111.57,213.37c-82.41,28.98-206.36,25.57-316.02-1.18c-109.66-26.75-196.27-71.88-216.93-146.43
	c-20.32-95.58,49.64-187.69,107.95-253.03C543.53,200.3,620.84,135.74,703.22,118.23"/>
<polyline class="st1" points="455,192.77 673.64,192.77 673.64,555.45 455,555.45 455,192.77 "/>
<polyline class="st2" points="471.42,210.83 657.24,210.83 657.24,442.62 471.42,442.62 471.42,210.83 "/>
<polygon class="st2" points="481.57,591.94 468.9,591.94 468.9,555.45 491.44,555.45 "/>
<polygon class="st1" points="491.44,555.43 487.8,568.89 468.9,568.89 468.9,555.43 "/>
<polygon class="st2" points="647.09,591.94 659.76,591.94 659.76,555.45 637.22,555.45 "/>
<polygon class="st1" points="637.22,555.43 640.87,568.89 659.76,568.89 659.76,555.43 "/>
<path class="st3" d="M657.24,457.52c-14.16,0.22-28.32,0.37-42.49,0.44c-14.15,0.14-28.29,0.11-42.49,0.16l0.6-0.6
	c0,5.99,0,11.97,0,17.96l-0.03,17.94c-0.13,11.97-0.24,23.94-0.51,35.91c-0.29-11.97-0.4-23.94-0.53-35.91v-17.94
	c0-5.98,0-11.97,0-17.96v-0.63h0.6c14.14,0,28.29,0,42.49,0.16C629.08,457.22,643.09,457.29,657.24,457.52"/>
<path class="st3" d="M572.36,539.58c14.16-0.22,28.32-0.38,42.49-0.45c14.15-0.14,28.29-0.1,42.49-0.15l-0.6,0.6
	c0-5.87,0-11.73,0-17.61l0.08-17.62c0.11-11.73,0.22-23.48,0.5-35.21c0.29,11.73,0.4,23.48,0.51,35.21l0.08,17.62
	c0,5.87,0.06,11.73,0,17.61v0.61h-0.6c-14.15-0.06-28.29,0-42.49-0.16C600.62,539.86,586.51,539.81,572.36,539.58"/>
<polyline class="st3" points="585.76,507.65 580.36,507.65 580.36,486.93 585.76,486.93 585.76,507.65 "/>
<path class="st3" d="M471.42,457.51c14.16-0.22,28.32-0.37,42.49-0.44c14.15-0.14,28.29-0.11,42.49-0.16h0.6v0.6
	c0,5.99,0,11.97,0,17.96v17.94c-0.12,11.97-0.24,23.94-0.52,35.91c-0.27-11.97-0.39-23.94-0.51-35.91v-17.94c0-5.99,0-11.97,0-17.96
	l0.6,0.6c-14.15,0-28.29,0-42.49-0.16C499.87,457.79,485.57,457.74,471.42,457.51z"/>
<path class="st3" d="M556.29,539.58c-14.15,0.24-28.29,0.36-42.49,0.45c-14.2,0.09-28.29,0.1-42.49,0.16h-0.6v-0.61
	c0-5.87,0-11.73,0-17.61l0.07-17.62c0.11-11.73,0.23-23.48,0.51-35.21c0.27,11.73,0.39,23.48,0.5,35.21l0.08,17.62
	c0,5.87,0.06,11.73,0,17.61l-0.6-0.6c14.15,0,28.29,0,42.49,0.15C527.96,539.28,542.15,539.36,556.29,539.58z"/>
<rect x="542.9" y="486.92" class="st3" width="5.4" height="20.72"/>
<rect x="471.42" y="205.23" class="st4" width="185.82" height="5.6"/>
<rect x="471.42" y="284.36" class="st1" width="185.82" height="5.6"/>
<rect x="471.42" y="363.48" class="st1" width="185.82" height="5.6"/>
<rect x="487.1" y="221.34" class="st3" width="19.12" height="63.01"/>
<rect x="487.1" y="259.56" class="st5" width="19.12" height="6.92"/>
<rect x="487.1" y="233.76" class="st5" width="19.12" height="2.57"/>
<rect x="630.06" y="221.35" class="st3" width="19.12" height="63.01"/>
<rect x="630.06" y="239.21" class="st5" width="19.12" height="6.92"/>
<rect x="630.07" y="278.02" class="st5" width="19.12" height="2.57"/>
<rect x="630.06" y="266.19" class="st5" width="19.12" height="2.57"/>
<rect x="581.12" y="221.34" class="st3" width="14.51" height="63.01"/>
<rect x="581.14" y="259.56" class="st5" width="14.51" height="6.92"/>
<rect x="581.14" y="233.77" class="st5" width="14.51" height="2.57"/>
<rect x="506.22" y="210.84" class="st5" width="13.37" height="73.5"/>
<rect x="508.83" y="217.75" class="st4" width="8.02" height="28.27"/>
<rect x="649.19" y="215.23" class="st6" width="8.06" height="69.12"/>
<rect x="650.83" y="220.01" class="st4" width="4.84" height="26.58"/>
<rect x="595.64" y="217.14" class="st5" width="13.37" height="67.2"/>
<rect x="598.38" y="252.19" class="st4" width="8.02" height="25.84"/>
<rect x="519.58" y="228.52" class="st6" width="22.69" height="55.83"/>
<rect x="519.58" y="273.23" class="st3" width="22.69" height="5.2"/>
<rect x="519.58" y="267.8" class="st3" width="22.69" height="2.01"/>
<rect x="471.42" y="231.9" class="st6" width="15.68" height="52.47"/>
<rect x="471.42" y="273.9" class="st3" width="15.68" height="4.89"/>
<rect x="471.42" y="242.69" class="st3" width="15.68" height="4.89"/>
<rect x="471.41" y="250.94" class="st3" width="15.68" height="1.9"/>
<rect x="609" y="210.84" class="st6" width="21.06" height="73.51"/>
<rect x="609" y="269.71" class="st3" width="21.06" height="6.85"/>
<rect x="609" y="226" class="st3" width="21.06" height="6.85"/>
<rect x="609" y="237.55" class="st3" width="21.06" height="2.66"/>
<rect x="563.52" y="221.51" transform="matrix(0.9494 -0.314 0.314 0.9494 -50.7783 190.9676)" class="st6" width="7.83" height="63.22"/>
<rect x="570.43" y="271.02" transform="matrix(0.9494 -0.314 0.314 0.9494 -56.9753 194.1962)" class="st3" width="7.84" height="5.9"/>
<rect x="558.62" y="235.33" transform="matrix(0.9494 -0.314 0.314 0.9494 -46.3666 188.6828)" class="st3" width="7.83" height="5.9"/>
<rect x="542.29" y="213.64" class="st3" width="11.52" height="70.72"/>
<rect x="542.29" y="221.14" class="st4" width="11.52" height="6.59"/>
<rect x="542.27" y="263.2" class="st4" width="11.52" height="6.59"/>
<rect x="542.29" y="256.11" class="st4" width="11.52" height="2.56"/>
<rect x="595.11" y="300.46" class="st3" width="19.12" height="63"/>
<rect x="595.11" y="338.69" class="st5" width="19.12" height="6.92"/>
<rect x="595.11" y="312.89" class="st5" width="19.12" height="2.57"/>
<rect x="479.47" y="300.46" class="st3" width="19.12" height="63.01"/>
<rect x="479.48" y="318.32" class="st5" width="19.12" height="6.92"/>
<rect x="479.48" y="357.15" class="st5" width="19.12" height="2.57"/>
<rect x="479.48" y="345.3" class="st5" width="19.12" height="2.57"/>
<rect x="533.01" y="300.45" class="st3" width="14.51" height="63"/>
<rect x="533.01" y="338.69" class="st5" width="14.51" height="6.92"/>
<rect x="533.01" y="312.89" class="st5" width="14.51" height="2.57"/>
<rect x="581.72" y="289.97" class="st5" width="13.37" height="73.5"/>
<rect x="584.46" y="296.86" class="st4" width="8.02" height="28.27"/>
<rect x="471.42" y="309.66" class="st6" width="8.06" height="53.8"/>
<rect x="472.98" y="313.37" class="st4" width="4.84" height="20.69"/>
<rect x="519.66" y="296.25" class="st5" width="13.37" height="67.2"/>
<rect x="522.27" y="331.3" class="st4" width="8.02" height="25.84"/>
<rect x="559.04" y="307.65" class="st6" width="22.69" height="55.83"/>
<rect x="559.04" y="352.35" class="st3" width="22.69" height="5.2"/>
<rect x="559.05" y="346.92" class="st3" width="22.69" height="2.01"/>
<rect x="641.55" y="296.25" class="st6" width="15.68" height="67.22"/>
<rect x="641.57" y="350.09" class="st3" width="15.68" height="6.26"/>
<rect x="641.55" y="310.11" class="st3" width="15.68" height="6.26"/>
<rect x="641.55" y="320.68" class="st3" width="15.68" height="2.42"/>
<rect x="498.6" y="289.97" class="st6" width="21.06" height="73.51"/>
<rect x="498.6" y="348.82" class="st3" width="21.06" height="6.85"/>
<rect x="498.6" y="305.11" class="st3" width="21.06" height="6.85"/>
<rect x="498.6" y="316.66" class="st3" width="21.06" height="2.66"/>
<rect x="596.27" y="328.32" transform="matrix(0.314 -0.9494 0.9494 0.314 115.2923 824.0455)" class="st5" width="63.22" height="7.84"/>
<rect x="618.04" y="349.19" transform="matrix(0.314 -0.9494 0.9494 0.314 90.7686 831.8301)" class="st3" width="5.9" height="7.84"/>
<rect x="629.84" y="313.49" transform="matrix(0.314 -0.9494 0.9494 0.314 132.7456 818.5266)" class="st3" width="5.9" height="7.84"/>
<rect x="547.52" y="292.75" class="st5" width="11.52" height="70.72"/>
<rect x="547.52" y="300.26" class="st4" width="11.52" height="6.59"/>
<rect x="547.52" y="342.33" class="st4" width="11.52" height="6.59"/>
<rect x="547.52" y="335.23" class="st4" width="11.52" height="2.56"/>
<rect x="484.78" y="379.6" class="st3" width="14.51" height="63"/>
<rect x="484.78" y="417.84" class="st5" width="14.51" height="6.92"/>
<rect x="484.78" y="392.04" class="st5" width="14.51" height="2.57"/>
<rect x="471.41" y="369.12" class="st5" width="13.37" height="73.5"/>
<rect x="474.14" y="376.01" class="st4" width="8.02" height="28.27"/>
<rect x="499.29" y="386.79" class="st6" width="22.69" height="55.83"/>
<rect x="499.29" y="392.71" class="st3" width="22.69" height="5.2"/>
<rect x="499.29" y="401.33" class="st3" width="22.69" height="2.01"/>
<rect x="632.43" y="379.6" class="st3" width="11.77" height="63"/>
<rect x="632.43" y="417.83" class="st5" width="11.77" height="6.92"/>
<rect x="632.43" y="392.02" class="st5" width="11.77" height="2.57"/>
<rect x="521.99" y="374.12" class="st3" width="15.22" height="68.5"/>
<rect x="521.98" y="393.52" class="st5" width="15.22" height="7.52"/>
<rect x="521.98" y="435.72" class="st5" width="15.22" height="2.8"/>
<rect x="521.99" y="422.85" class="st5" width="15.22" height="2.8"/>
<rect x="558.59" y="371.53" class="st3" width="14.51" height="71.07"/>
<rect x="558.59" y="414.64" class="st5" width="14.51" height="7.81"/>
<rect x="558.59" y="385.55" class="st5" width="14.51" height="2.9"/>
<rect x="537.2" y="371.89" class="st5" width="7.72" height="70.7"/>
<rect x="538.77" y="378.55" class="st4" width="4.64" height="27.19"/>
<rect x="607.33" y="375.4" class="st5" width="25.1" height="67.2"/>
<rect x="612.24" y="410.44" class="st4" width="15.06" height="25.84"/>
<polyline class="st6" points="607.33,382.56 607.33,442.61 584.64,442.61 584.64,382.56 607.33,382.56 "/>
<rect x="584.64" y="430.65" class="st3" width="22.69" height="5.6"/>
<rect x="584.63" y="424.81" class="st3" width="22.69" height="2.17"/>
<rect x="644.22" y="375.39" class="st6" width="13.03" height="67.22"/>
<rect x="644.2" y="429.22" class="st3" width="13.03" height="6.26"/>
<rect x="644.22" y="389.25" class="st3" width="13.03" height="6.26"/>
<rect x="644.2" y="399.81" class="st3" width="13.03" height="2.42"/>
<rect x="544.92" y="378.95" class="st6" width="13.68" height="63.65"/>
<rect x="544.91" y="429.94" class="st3" width="13.68" height="5.94"/>
<rect x="544.91" y="392.09" class="st3" width="13.68" height="5.94"/>
<rect x="544.92" y="402.07" class="st3" width="13.68" height="2.3"/>
<rect x="573.1" y="374.95" class="st5" width="11.52" height="67.65"/>
<rect x="573.11" y="382.13" class="st4" width="11.52" height="6.31"/>
<rect x="573.1" y="422.36" class="st4" width="11.52" height="6.31"/>
<rect x="573.1" y="415.59" class="st4" width="11.52" height="2.45"/>
<polygon class="st1" points="840.04,558.65 1000.13,558.65 1005.28,457.07 834.9,457.07 "/>
<path class="st5" d="M848.6,502.31h138.62l2.11-32.76H846.79L848.6,502.31z M988.4,503.56H847.42l-1.95-35.26h145.19L988.4,503.56z"
	/>
<path class="st5" d="M852.63,542.88h132.68l1.84-29.33H851.2L852.63,542.88z M986.46,544.13H851.5l-1.58-31.83h138.56L986.46,544.13
	z"/>
<path class="st5" d="M905.39,488.51h27.69l0.78-6.01h-29.24L905.39,488.51z M934.13,489.76h-29.89l-1.1-8.51h32.09L934.13,489.76z"
	/>
<path class="st5" d="M905.39,531.22h27.69l0.78-6.01h-29.24L905.39,531.22z M934.13,532.47h-29.89l-1.1-8.51h32.09L934.13,532.47z"
	/>
<polygon class="st4" points="862.25,558.65 860.7,569.71 857.56,591.94 851.45,591.94 851.45,558.65 "/>
<polygon class="st5" points="862.25,558.65 860.7,569.71 851.45,569.71 851.45,558.65 "/>
<polygon class="st2" points="977.94,558.65 979.49,569.71 982.61,591.94 988.72,591.94 988.72,558.65 "/>
<polygon class="st1" points="977.94,558.65 979.49,569.71 988.72,569.71 988.72,558.65 "/>
<rect x="929.67" y="408.44" class="st3" width="63.01" height="11.77"/>
<rect x="967.89" y="408.44" class="st5" width="6.92" height="11.77"/>
<rect x="942.1" y="408.44" class="st5" width="2.57" height="11.77"/>
<rect x="915.02" y="395.4" class="st6" width="79.76" height="13.03"/>
<rect x="978.89" y="395.4" class="st3" width="7.43" height="13.03"/>
<rect x="931.45" y="395.4" class="st3" width="7.44" height="13.03"/>
<rect x="943.99" y="395.4" class="st3" width="2.89" height="13.03"/>
<rect x="930.67" y="429.02" class="st6" width="67.65" height="11.52"/>
<rect x="937.84" y="429.02" class="st4" width="6.31" height="11.52"/>
<rect x="978.06" y="429.02" class="st4" width="6.31" height="11.52"/>
<rect x="971.3" y="429.02" class="st4" width="2.45" height="11.52"/>
<rect x="911.2" y="440.55" class="st3" width="83.7" height="16.52"/>
<rect x="911.2" y="442.26" class="st7" width="53.31" height="13.1"/>
<path class="st5" d="M914.65,444.94c4.17-0.08,8.33-0.15,12.5-0.19l12.5-0.06l12.5,0.06c4.16,0,8.31,0.1,12.5,0.19
	c-4.16,0.1-8.31,0.16-12.5,0.2h-12.5h-12.5C922.97,445.1,918.8,445.04,914.65,444.94z"/>
<path class="st5" d="M914.65,447.52c4.16-0.09,8.31-0.16,12.5-0.2h12.5h12.5c4.16,0,8.31,0.1,12.5,0.2
	c-4.16,0.09-8.31,0.16-12.5,0.19l-12.5,0.06l-12.5-0.06C922.96,447.68,918.81,447.61,914.65,447.52z"/>
<path class="st5" d="M914.65,450.08c4.17-0.08,8.33-0.15,12.5-0.19h12.5h12.5c4.16,0,8.31,0.1,12.5,0.19
	c-4.16,0.1-8.31,0.16-12.5,0.2l-12.5,0.06l-12.5-0.06C922.97,450.25,918.8,450.18,914.65,450.08z"/>
<path class="st5" d="M914.65,452.65c4.16-0.09,8.31-0.16,12.5-0.19h12.5h12.5c4.16,0,8.31,0.11,12.5,0.2
	c-4.16,0.09-8.31,0.16-12.5,0.2h-12.5l-12.5-0.06C922.96,452.82,918.81,452.74,914.65,452.65z"/>
<rect x="912.12" y="420.21" class="st4" width="76.01" height="8.81"/>
<rect x="943.49" y="421.13" class="st7" width="44.66" height="6.99"/>
<path class="st5" d="M985.21,426.68c-3.47,0-6.96,0.06-10.43,0.07h-10.45H953.9c-3.49,0-6.96,0-10.45-0.07
	c3.49,0,6.96-0.06,10.45-0.08h10.43h10.45C978.29,426.61,981.78,426.64,985.21,426.68z"/>
<path class="st5" d="M985.21,425.3c-3.47,0-6.96,0-10.43,0.08h-10.45H953.9c-3.49,0-6.96,0-10.45-0.08c3.49,0,6.96-0.06,10.45-0.08
	h20.88L985.21,425.3z"/>
<path class="st5" d="M985.21,423.94c-3.47,0-6.96,0.06-10.43,0.08h-10.45H953.9c-3.49,0-6.96,0-10.45-0.08
	c3.49,0,6.96-0.06,10.45-0.08h10.43h10.45C978.29,423.88,981.78,423.9,985.21,423.94z"/>
<path class="st5" d="M985.21,422.56c-3.47,0-6.96,0.06-10.43,0.07h-10.45H953.9c-3.49,0-6.96,0-10.45-0.07
	c3.49,0,6.96-0.06,10.45-0.08h10.43h10.45C978.29,422.5,981.78,422.53,985.21,422.56z"/>
<rect x="846.18" y="243.84" class="st1" width="41.52" height="41.52"/>
<rect x="852.62" y="250.28" class="st7" width="28.65" height="28.65"/>
<polygon class="st2" points="881.26,250.28 881.26,278.93 852.6,278.93 "/>
<rect x="846.18" y="192.78" class="st1" width="41.52" height="41.52"/>
<rect x="852.62" y="199.21" class="st7" width="28.65" height="28.65"/>
<polygon class="st2" points="881.26,207.63 881.26,227.86 861.02,227.86 "/>
<rect x="781.96" y="192.78" class="st1" width="54.27" height="92.93"/>
<rect x="788.67" y="199.56" class="st7" width="40.85" height="79.38"/>
<polygon class="st2" points="829.52,226.9 829.52,278.93 802.74,278.93 "/>
<rect x="897.39" y="192.78" class="st1" width="92.93" height="92.93"/>
<rect x="904.17" y="199.56" class="st7" width="79.36" height="79.38"/>
<path class="st2" d="M926.39,278.93c12-12.07,46.02-46.24,57.14-57.25v57.25H926.39z"/>
<path class="st4" d="M730.29,621.65c4.18,0,8.35,0.01,12.53,0.04c4.17,0.02,8.34,0.06,12.5,0.11c4.16,0.05,8.3,0.12,12.43,0.19
	c4.13,0.08,8.25,0.17,12.34,0.27s8.17,0.21,12.22,0.34c4.05,0.13,8.08,0.27,12.08,0.42c4,0.15,7.96,0.31,11.9,0.49
	c3.93,0.18,7.83,0.36,11.69,0.56c3.86,0.2,7.68,0.41,11.45,0.63c3.78,0.22,7.51,0.46,11.19,0.7c3.68,0.25,7.32,0.5,10.9,0.77
	c3.58,0.27,7.11,0.54,10.59,0.83c3.47,0.29,6.89,0.59,10.24,0.9c3.36,0.31,6.65,0.63,9.88,0.96c3.23,0.33,6.39,0.67,9.49,1.02
	s6.12,0.71,9.07,1.07c2.95,0.37,5.83,0.75,8.64,1.13c2.81,0.38,5.53,0.78,8.18,1.18c2.65,0.4,5.22,0.81,7.71,1.23
	c2.49,0.42,4.89,0.84,7.21,1.28s4.55,0.87,6.7,1.32c2.15,0.45,4.21,0.9,6.18,1.36c1.97,0.46,3.85,0.92,5.63,1.39
	c1.79,0.47,3.48,0.95,5.08,1.43c1.6,0.48,3.1,0.97,4.51,1.46s2.72,0.98,3.93,1.48c1.21,0.5,2.33,1,3.34,1.5
	c1.02,0.5,1.93,1.01,2.74,1.52c0.82,0.51,1.53,1.02,2.14,1.54c0.61,0.51,1.12,1.03,1.53,1.55c0.41,0.52,0.72,1.04,0.92,1.56
	s0.31,1.04,0.31,1.56c0,0.52-0.1,1.04-0.31,1.56s-0.51,1.04-0.92,1.56c-0.41,0.52-0.92,1.03-1.53,1.55
	c-0.61,0.51-1.33,1.03-2.14,1.54c-0.81,0.51-1.73,1.02-2.74,1.52c-1.01,0.5-2.13,1.01-3.34,1.5c-1.21,0.5-2.52,0.99-3.93,1.48
	c-1.41,0.49-2.91,0.98-4.51,1.46c-1.6,0.48-3.29,0.96-5.08,1.43c-1.79,0.47-3.66,0.93-5.63,1.39c-1.97,0.46-4.03,0.91-6.18,1.36
	c-2.15,0.45-4.38,0.88-6.7,1.32c-2.32,0.43-4.72,0.86-7.21,1.28c-2.49,0.42-5.06,0.83-7.71,1.23c-2.65,0.4-5.38,0.8-8.18,1.18
	c-2.8,0.38-5.68,0.76-8.64,1.13c-2.95,0.37-5.98,0.73-9.07,1.08s-6.26,0.69-9.49,1.02c-3.23,0.33-6.52,0.65-9.88,0.96
	c-3.36,0.31-6.77,0.61-10.24,0.9c-3.47,0.29-7,0.57-10.59,0.83c-3.58,0.27-7.22,0.52-10.9,0.77c-3.68,0.24-7.41,0.48-11.19,0.7
	c-3.78,0.22-7.59,0.43-11.45,0.63c-3.86,0.2-7.76,0.39-11.69,0.56s-7.9,0.34-11.9,0.49c-4,0.15-8.02,0.29-12.08,0.42
	c-4.05,0.13-8.13,0.24-12.22,0.34s-8.21,0.19-12.34,0.27c-4.13,0.08-8.28,0.14-12.43,0.19c-4.16,0.05-8.32,0.09-12.5,0.12
	c-4.17,0.02-8.35,0.04-12.53,0.04c-4.18,0-8.35-0.01-12.53-0.04c-4.17-0.03-8.33-0.07-12.49-0.12c-4.16-0.05-8.3-0.11-12.43-0.19
	c-4.13-0.07-8.25-0.16-12.34-0.27s-8.17-0.22-12.22-0.34c-4.05-0.13-8.08-0.27-12.07-0.42c-4-0.15-7.96-0.31-11.9-0.49
	c-3.93-0.17-7.83-0.36-11.69-0.56c-3.86-0.2-7.68-0.41-11.45-0.63c-3.78-0.22-7.51-0.46-11.19-0.7c-3.68-0.25-7.32-0.5-10.9-0.77
	c-3.58-0.27-7.11-0.54-10.59-0.83c-3.47-0.29-6.89-0.59-10.24-0.9c-3.36-0.31-6.65-0.63-9.88-0.96c-3.23-0.33-6.39-0.67-9.49-1.02
	c-3.09-0.35-6.12-0.71-9.07-1.08c-2.95-0.37-5.83-0.74-8.64-1.13c-2.8-0.39-5.53-0.78-8.18-1.18s-5.22-0.81-7.71-1.23
	c-2.49-0.42-4.89-0.84-7.21-1.28c-2.32-0.43-4.55-0.87-6.7-1.32c-2.15-0.45-4.21-0.9-6.18-1.36s-3.85-0.92-5.63-1.39
	c-1.79-0.47-3.48-0.95-5.08-1.43c-1.6-0.48-3.1-0.97-4.51-1.46c-1.41-0.49-2.72-0.98-3.93-1.48c-1.21-0.5-2.33-1-3.34-1.5
	c-1.01-0.5-1.93-1.01-2.74-1.52c-0.81-0.51-1.53-1.02-2.14-1.54c-0.61-0.52-1.12-1.03-1.53-1.55c-0.41-0.52-0.72-1.04-0.92-1.56
	c-0.21-0.52-0.31-1.04-0.31-1.56c0-0.52,0.1-1.04,0.31-1.56c0.2-0.52,0.51-1.04,0.92-1.56c0.41-0.52,0.92-1.03,1.53-1.55
	c0.61-0.51,1.33-1.03,2.14-1.54c0.81-0.51,1.73-1.02,2.74-1.52c1.02-0.5,2.13-1.01,3.34-1.5c1.21-0.5,2.52-0.99,3.93-1.48
	s2.91-0.97,4.51-1.46c1.6-0.48,3.29-0.96,5.08-1.43c1.79-0.47,3.66-0.93,5.63-1.39c1.97-0.46,4.03-0.91,6.18-1.36
	c2.15-0.45,4.38-0.89,6.7-1.32c2.32-0.43,4.73-0.86,7.21-1.28c2.49-0.42,5.06-0.83,7.71-1.23c2.65-0.4,5.38-0.8,8.18-1.18
	c2.81-0.39,5.69-0.76,8.64-1.13c2.95-0.37,5.98-0.72,9.07-1.07c3.1-0.35,6.26-0.69,9.49-1.02c3.23-0.33,6.52-0.65,9.88-0.96
	c3.36-0.31,6.77-0.61,10.24-0.9c3.47-0.29,7-0.57,10.59-0.83c3.58-0.27,7.22-0.52,10.9-0.77c3.68-0.24,7.41-0.48,11.19-0.7
	c3.78-0.22,7.59-0.43,11.45-0.63c3.86-0.2,7.76-0.39,11.69-0.56c3.93-0.17,7.9-0.34,11.9-0.49c4-0.15,8.02-0.29,12.07-0.42
	c4.05-0.13,8.13-0.24,12.22-0.34s8.21-0.19,12.34-0.27c4.13-0.08,8.28-0.14,12.43-0.19c4.16-0.05,8.32-0.09,12.49-0.11
	C721.94,621.67,726.11,621.65,730.29,621.65"/>
<rect x="665.96" y="526.08" class="st8" width="257.06" height="50.72"/>
<rect x="875.03" y="526.08" class="st9" width="25.12" height="50.72"/>
<rect x="855.23" y="526.08" class="st9" width="10.48" height="50.72"/>
<rect x="689.33" y="526.08" class="st9" width="25.12" height="50.72"/>
<polyline class="st9" points="558.72,645.57 624.73,397.13 661.17,406.82 595.16,655.26 558.72,645.57 "/>
<polyline class="st8" points="564.59,623.47 571.04,599.19 607.47,608.87 601.02,633.15 564.59,623.47 "/>
<polyline class="st8" points="612.28,444.01 618.73,419.73 655.17,429.42 648.72,453.69 612.28,444.01 "/>
<rect x="611.55" y="628.82" class="st8" width="297.72" height="25.35"/>
<rect x="830.76" y="628.82" class="st6" width="12.13" height="25.35"/>
<rect x="850.91" y="628.82" class="st6" width="12.13" height="25.35"/>
<rect x="641.25" y="628.82" class="st6" width="12.13" height="25.35"/>
<rect x="661.4" y="628.82" class="st6" width="12.13" height="25.35"/>
<rect x="639.62" y="488.24" class="st10" width="178.32" height="37.84"/>
<rect x="817.93" y="488.24" class="st10" width="101.66" height="37.84"/>
<rect x="639.62" y="492.17" class="st7" width="178.32" height="29.99"/>
<path class="st5" d="M651.15,498.34c13.9-0.22,27.8-0.36,41.7-0.44l41.69-0.14l41.7,0.14c13.9,0.08,27.79,0.22,41.69,0.44
	c-13.9,0.21-27.79,0.36-41.69,0.45l-41.7,0.13l-41.74-0.14C678.94,498.7,665.06,498.56,651.15,498.34z"/>
<path class="st5" d="M651.15,504.23c13.9-0.21,27.8-0.36,41.7-0.45l41.69-0.13l41.7,0.13c13.9,0.09,27.79,0.24,41.69,0.45
	c-13.9,0.21-27.79,0.35-41.69,0.44l-41.7,0.14l-41.74-0.14C678.94,504.59,665.06,504.44,651.15,504.23z"/>
<path class="st5" d="M651.15,510.11c13.9-0.21,27.8-0.36,41.7-0.45l41.69-0.13l41.7,0.13c13.9,0.08,27.79,0.22,41.69,0.45
	c-13.9,0.22-27.79,0.36-41.69,0.44l-41.7,0.14l-41.74-0.14C678.94,510.47,665.06,510.33,651.15,510.11z"/>
<path class="st5" d="M651.15,516c13.9-0.22,27.8-0.37,41.7-0.45l41.69-0.14l41.7,0.14c13.9,0.08,27.79,0.22,41.69,0.45
	c-13.9,0.22-27.79,0.36-41.69,0.44l-41.7,0.14l-41.74-0.14C678.94,516.36,665.06,516.21,651.15,516z"/>
<rect x="656.99" y="376.93" class="st6" width="145.94" height="27.17"/>
<rect x="802.93" y="376.93" class="st6" width="83.2" height="27.17"/>
<rect x="656.99" y="379.75" class="st7" width="145.94" height="21.53"/>
<path class="st5" d="M666.43,384.18c11.38-0.15,22.76-0.25,34.13-0.31l34.13-0.1l34.13,0.1c11.37,0.05,22.74,0.15,34.11,0.31
	c-11.37,0.15-22.74,0.26-34.11,0.33l-34.13,0.09l-34.13-0.09C689.19,384.44,677.81,384.33,666.43,384.18z"/>
<path class="st5" d="M666.43,388.4c11.38-0.15,22.76-0.25,34.13-0.31l34.13-0.1l34.13,0.1c11.37,0.05,22.74,0.15,34.11,0.31
	c-11.37,0.15-22.74,0.26-34.11,0.33l-34.13,0.09l-34.13-0.09C689.19,388.67,677.81,388.56,666.43,388.4z"/>
<path class="st5" d="M666.43,392.62c11.38-0.15,22.76-0.25,34.13-0.31l34.13-0.1l34.13,0.1c11.37,0.05,22.74,0.15,34.11,0.31
	c-11.37,0.16-22.74,0.27-34.11,0.33l-34.13,0.09l-34.13-0.09C689.19,392.89,677.81,392.78,666.43,392.62z"/>
<path class="st5" d="M666.43,396.91c11.38-0.15,22.76-0.25,34.13-0.31l34.13-0.1l34.13,0.1c11.37,0.05,22.74,0.15,34.11,0.31
	c-11.37,0.17-22.74,0.28-34.11,0.33l-34.13,0.09l-34.13-0.09C689.19,397.13,677.81,397.03,666.43,396.91z"/>
<polyline class="st8" points="612.38,445.63 576.84,579.15 556.57,655.28 537.01,650.07 557.28,573.94 592.82,440.42 612.38,445.63 
	"/>
<polyline class="st11" points="592.82,440.42 588.43,456.9 588.12,458.08 572.57,516.51 572.1,518.25 557.28,573.94 537.01,650.07 
	556.57,655.28 576.84,579.15 612.38,445.63 611.88,445.5 592.82,440.42 "/>
<rect x="515.74" y="501.74" transform="matrix(0.2573 -0.9663 0.9663 0.2573 -58.2509 943.7303)" class="st7" width="138.17" height="16.04"/>
<path class="st5" d="M604.85,452.88c-2.65,10.43-5.34,20.84-8.07,31.24l-8.25,31.24l-8.37,31.24c-2.82,10.4-5.66,20.79-8.55,31.17
	c2.67-10.44,5.36-20.85,8.09-31.24l8.23-31.24l8.38-31.24C599.13,473.65,601.98,463.26,604.85,452.88z"/>
<path class="st5" d="M601.82,452.07c-2.66,10.45-5.35,20.86-8.08,31.24l-8.24,31.24l-8.38,31.24c-2.81,10.4-5.65,20.79-8.53,31.17
	c2.66-10.43,5.35-20.84,8.08-31.24l8.23-31.24l8.38-31.24C596.1,472.84,598.94,462.45,601.82,452.07z"/>
<path class="st5" d="M598.78,451.27c-2.66,10.44-5.35,20.85-8.09,31.24l-8.23,31.24l-8.38,31.24c-2.81,10.4-5.65,20.78-8.53,31.15
	c2.65-10.44,5.34-20.85,8.07-31.24l8.25-31.24l8.37-31.24C593.04,472.06,595.89,461.68,598.78,451.27z"/>
<path class="st5" d="M595.73,450.45c-2.65,10.43-5.34,20.84-8.07,31.24l-8.25,31.24l-8.37,31.24c-2.81,10.4-5.66,20.78-8.55,31.15
	c2.66-10.43,5.35-20.84,8.08-31.24l8.23-31.24l8.39-31.24C590.01,471.21,592.86,460.83,595.73,450.45z"/>
<rect x="739.37" y="576.8" class="st12" width="149.39" height="52.01"/>
<rect x="634.44" y="576.8" class="st12" width="104.93" height="52.01"/>
<rect x="739.37" y="582.2" class="st7" width="149.39" height="41.21"/>
<path class="st5" d="M879.09,614.94c-11.66,0.21-23.3,0.35-34.93,0.44l-34.93,0.14l-34.99-0.14c-11.66-0.07-23.33-0.22-34.99-0.44
	c11.66-0.21,23.33-0.36,34.99-0.45l34.99-0.13l34.93,0.13C855.81,614.58,867.46,614.73,879.09,614.94z"/>
<path class="st5" d="M879.09,606.84c-11.66,0.21-23.3,0.35-34.93,0.44l-34.93,0.14l-34.99-0.14c-11.66-0.08-23.33-0.22-34.99-0.44
	c11.66-0.21,23.33-0.36,34.99-0.45l34.99-0.13l34.93,0.13C855.81,606.48,867.46,606.63,879.09,606.84z"/>
<path class="st5" d="M879.09,598.77c-11.66,0.21-23.3,0.35-34.93,0.44l-34.93,0.14l-34.99-0.14c-11.66-0.07-23.33-0.22-34.99-0.44
	c11.66-0.22,23.33-0.37,34.99-0.45l34.99-0.14l34.93,0.14C855.81,598.4,867.46,598.55,879.09,598.77z"/>
<path class="st5" d="M879.09,590.69c-11.66,0.22-23.3,0.36-34.93,0.44l-34.93,0.14l-34.99-0.14c-11.66-0.08-23.33-0.22-34.99-0.44
	c11.66-0.23,23.33-0.38,34.99-0.45l34.99-0.14l34.93,0.14C855.81,590.31,867.46,590.46,879.09,590.69z"/>
<rect x="649.6" y="452.95" class="st3" width="274.19" height="35.44"/>
<rect x="675.38" y="460.19" class="st7" width="105.46" height="21.27"/>
<rect x="806.29" y="460.19" class="st7" width="99" height="3.29"/>
<rect x="806.29" y="469.04" class="st7" width="99" height="3.29"/>
<rect x="806.29" y="477.87" class="st7" width="99" height="3.29"/>
<rect x="668.56" y="404.09" class="st8" width="202.19" height="48.7"/>
<rect x="830.46" y="404.09" class="st12" width="18.84" height="48.7"/>
<rect x="810.79" y="404.09" class="st12" width="7.31" height="48.7"/>
<path class="st8" d="M802.06,180.39c-0.9,5.61-5.74,10.3-5.74,10.3s-6.65-1.1-10.57-5.22c-3.29-3.42-3.37-8.21-0.5-10.16
	c4.12-2.8,7.76,4.76,7.76,4.76s-1.31-8.28,3.67-8.33C800.16,171.7,802.77,175.73,802.06,180.39z"/>
<path class="st8" d="M779.52,204.54c-2.29,1.8-5.03,2.93-7.92,3.25c-1.91-2.19-3.16-4.88-3.62-7.75c-0.31-3.42,1.8-6.19,4.31-5.99
	c3.6,0.27,2.25,6.25,2.25,6.25s3.01-5.29,5.85-3.06C782.37,198.77,782.06,202.22,779.52,204.54z"/>
<path class="st8" d="M776.35,155.73c-0.79,1.55-1.99,2.85-3.47,3.75c-1.6-0.7-2.96-1.84-3.95-3.27c-1.05-1.79-0.6-3.84,0.81-4.37
	c2.02-0.76,2.81,2.81,2.81,2.81s0.29-3.65,2.4-3.16C776.43,151.81,777.15,153.77,776.35,155.73z"/>
<path class="st13" d="M1216.5,29.06c1.39,0,2.78,0.07,4.17,0.2c1.38,0.14,2.76,0.34,4.13,0.61s2.71,0.61,4.05,1.01
	c1.33,0.4,2.64,0.87,3.93,1.41c1.29,0.53,2.54,1.13,3.77,1.78c1.23,0.66,2.42,1.37,3.58,2.14c1.16,0.77,2.27,1.6,3.35,2.48
	c1.08,0.88,2.11,1.82,3.09,2.8c0.98,0.98,1.92,2.01,2.8,3.09c0.88,1.08,1.71,2.19,2.49,3.35c0.77,1.16,1.49,2.35,2.14,3.58
	s1.25,2.48,1.78,3.77c0.53,1.29,1,2.6,1.41,3.93s0.74,2.68,1.01,4.05c0.27,1.37,0.48,2.74,0.61,4.13c0.14,1.39,0.21,2.77,0.21,4.17
	c0,1.39-0.07,2.78-0.21,4.17c-0.14,1.39-0.34,2.76-0.61,4.13s-0.61,2.71-1.01,4.05s-0.87,2.64-1.41,3.93
	c-0.53,1.29-1.13,2.54-1.78,3.77s-1.37,2.42-2.14,3.58c-0.77,1.16-1.6,2.27-2.49,3.35c-0.88,1.08-1.82,2.11-2.8,3.09
	s-2.01,1.92-3.09,2.8c-1.08,0.88-2.19,1.71-3.35,2.48c-1.16,0.77-2.35,1.49-3.58,2.14s-2.48,1.25-3.77,1.78
	c-1.29,0.53-2.59,1-3.93,1.41s-2.68,0.74-4.05,1.01c-1.37,0.27-2.74,0.48-4.13,0.61c-1.39,0.14-2.77,0.21-4.17,0.21
	s-2.78-0.07-4.17-0.21c-1.38-0.14-2.76-0.34-4.13-0.61c-1.37-0.27-2.71-0.61-4.05-1.01s-2.64-0.87-3.93-1.41
	c-1.29-0.53-2.54-1.13-3.77-1.78s-2.42-1.37-3.58-2.14c-1.16-0.77-2.27-1.6-3.35-2.48c-1.08-0.88-2.11-1.82-3.09-2.8
	c-0.98-0.98-1.92-2.01-2.8-3.09c-0.88-1.08-1.71-2.19-2.48-3.35c-0.77-1.16-1.49-2.35-2.14-3.58s-1.25-2.48-1.78-3.77
	c-0.53-1.29-1-2.59-1.41-3.93s-0.74-2.68-1.01-4.05s-0.48-2.74-0.61-4.13c-0.14-1.39-0.21-2.77-0.21-4.17
	c0-1.39,0.07-2.78,0.21-4.17c0.14-1.38,0.34-2.76,0.61-4.13c0.27-1.37,0.61-2.71,1.01-4.05s0.87-2.64,1.41-3.93
	c0.53-1.29,1.13-2.54,1.78-3.77s1.37-2.42,2.14-3.58c0.77-1.16,1.6-2.27,2.48-3.35c0.88-1.08,1.82-2.11,2.8-3.09
	c0.98-0.98,2.01-1.92,3.09-2.8s2.19-1.71,3.35-2.48c1.16-0.77,2.35-1.49,3.58-2.14c1.23-0.66,2.48-1.25,3.77-1.78
	c1.29-0.53,2.59-1,3.93-1.41c1.33-0.4,2.68-0.74,4.05-1.01s2.74-0.48,4.13-0.61C1213.72,29.13,1215.11,29.06,1216.5,29.06z"/>
<path class="st13" d="M1139,169.06c0.82,0,1.64,0.04,2.45,0.12c0.82,0.08,1.62,0.19,2.43,0.35c0.8,0.15,1.6,0.34,2.38,0.57
	c0.78,0.23,1.55,0.49,2.31,0.79c0.76,0.3,1.5,0.64,2.22,1.01c0.72,0.37,1.42,0.77,2.1,1.21c0.68,0.44,1.34,0.9,1.97,1.4
	c0.63,0.5,1.24,1.03,1.82,1.58s1.13,1.14,1.65,1.75s1.01,1.24,1.46,1.89c0.45,0.65,0.88,1.33,1.26,2.02s0.74,1.4,1.05,2.13
	c0.31,0.73,0.59,1.47,0.83,2.22c0.24,0.75,0.44,1.51,0.6,2.28c0.16,0.77,0.28,1.55,0.36,2.33c0.08,0.78,0.12,1.57,0.12,2.35
	s-0.04,1.57-0.12,2.35c-0.08,0.78-0.2,1.56-0.36,2.33s-0.36,1.53-0.6,2.28c-0.24,0.75-0.51,1.49-0.83,2.22
	c-0.31,0.73-0.66,1.44-1.05,2.13s-0.81,1.37-1.26,2.02c-0.46,0.65-0.94,1.28-1.46,1.89c-0.52,0.61-1.07,1.19-1.65,1.75
	c-0.58,0.56-1.19,1.08-1.82,1.58s-1.29,0.97-1.97,1.4c-0.68,0.44-1.38,0.84-2.1,1.21c-0.72,0.37-1.46,0.71-2.22,1.01
	c-0.76,0.3-1.53,0.57-2.31,0.79c-0.78,0.23-1.58,0.42-2.38,0.57c-0.8,0.15-1.61,0.27-2.43,0.35c-0.81,0.08-1.63,0.12-2.45,0.12
	s-1.64-0.04-2.45-0.12c-0.82-0.08-1.62-0.19-2.43-0.35c-0.8-0.15-1.6-0.34-2.38-0.57c-0.78-0.23-1.55-0.49-2.31-0.79
	c-0.76-0.3-1.5-0.64-2.22-1.01c-0.72-0.37-1.42-0.77-2.1-1.21s-1.34-0.9-1.97-1.4c-0.63-0.5-1.24-1.03-1.82-1.58
	c-0.58-0.56-1.13-1.14-1.65-1.75c-0.52-0.61-1.01-1.24-1.46-1.89s-0.88-1.33-1.26-2.02s-0.74-1.4-1.05-2.13
	c-0.31-0.73-0.59-1.47-0.83-2.22c-0.24-0.75-0.44-1.51-0.6-2.28c-0.16-0.77-0.28-1.55-0.36-2.33s-0.12-1.57-0.12-2.35
	s0.04-1.57,0.12-2.35s0.2-1.56,0.36-2.33c0.16-0.77,0.36-1.53,0.6-2.28c0.24-0.75,0.51-1.49,0.83-2.22
	c0.31-0.73,0.66-1.44,1.05-2.13s0.81-1.37,1.26-2.02c0.46-0.65,0.94-1.28,1.46-1.89s1.07-1.19,1.65-1.75s1.18-1.08,1.82-1.58
	c0.63-0.5,1.29-0.97,1.97-1.4c0.68-0.44,1.38-0.84,2.1-1.21c0.72-0.37,1.46-0.71,2.22-1.01c0.76-0.3,1.53-0.56,2.31-0.79
	c0.78-0.23,1.58-0.42,2.38-0.57c0.8-0.15,1.61-0.27,2.43-0.35C1137.36,169.1,1138.18,169.06,1139,169.06z"/>
<path class="st14" d="M1080,62.06c0.66,0,1.31,0.06,1.95,0.19c0.64,0.13,1.27,0.32,1.88,0.57c0.61,0.25,1.18,0.56,1.73,0.92
	c0.55,0.36,1.05,0.78,1.52,1.24c0.46,0.46,0.88,0.97,1.24,1.52c0.37,0.55,0.67,1.12,0.92,1.73c0.25,0.61,0.44,1.23,0.57,1.88
	c0.13,0.64,0.19,1.29,0.19,1.95c0,0.66-0.06,1.31-0.19,1.95c-0.13,0.64-0.32,1.27-0.57,1.88c-0.25,0.61-0.56,1.18-0.92,1.73
	c-0.36,0.55-0.78,1.05-1.24,1.52c-0.46,0.46-0.97,0.88-1.52,1.24c-0.55,0.36-1.12,0.67-1.73,0.92c-0.61,0.25-1.23,0.44-1.88,0.57
	c-0.64,0.13-1.29,0.19-1.95,0.19c-0.66,0-1.31-0.06-1.95-0.19c-0.64-0.13-1.27-0.32-1.88-0.57c-0.61-0.25-1.18-0.56-1.73-0.92
	c-0.55-0.37-1.05-0.78-1.52-1.24c-0.46-0.46-0.88-0.97-1.24-1.52c-0.37-0.55-0.67-1.12-0.92-1.73c-0.25-0.61-0.44-1.23-0.57-1.88
	c-0.13-0.64-0.19-1.29-0.19-1.95c0-0.66,0.06-1.31,0.19-1.95c0.13-0.64,0.32-1.27,0.57-1.88c0.25-0.61,0.56-1.18,0.92-1.73
	c0.36-0.55,0.78-1.05,1.24-1.52c0.46-0.46,0.97-0.88,1.52-1.24c0.55-0.36,1.12-0.67,1.73-0.92c0.61-0.25,1.23-0.44,1.88-0.57
	C1078.69,62.13,1079.34,62.06,1080,62.06z"/>
<path class="st1" d="M1163,49.06c1.13,0,2.26,0.03,3.39,0.08s2.25,0.14,3.38,0.25c1.12,0.11,2.24,0.25,3.36,0.41
	c1.12,0.17,2.23,0.36,3.34,0.58s2.21,0.47,3.3,0.74c1.1,0.27,2.18,0.58,3.26,0.9c1.08,0.33,2.15,0.68,3.22,1.06
	c1.06,0.38,2.12,0.79,3.16,1.22c1.04,0.43,2.08,0.89,3.1,1.37c1.02,0.48,2.03,0.99,3.03,1.52s1.98,1.09,2.95,1.67
	c0.97,0.58,1.92,1.18,2.86,1.81c0.94,0.63,1.86,1.28,2.77,1.95c0.91,0.67,1.8,1.37,2.67,2.08s1.73,1.45,2.56,2.21
	c0.84,0.76,1.65,1.54,2.45,2.34c0.8,0.8,1.58,1.62,2.34,2.45c0.76,0.84,1.5,1.69,2.21,2.56c0.72,0.87,1.41,1.76,2.08,2.67
	s1.32,1.83,1.95,2.77c0.63,0.94,1.23,1.89,1.81,2.86c0.58,0.97,1.14,1.95,1.67,2.95s1.04,2,1.52,3.02c0.48,1.02,0.94,2.05,1.37,3.1
	c0.43,1.04,0.84,2.1,1.22,3.16c0.38,1.06,0.73,2.14,1.06,3.22c0.33,1.08,0.63,2.17,0.9,3.26c0.27,1.1,0.52,2.2,0.74,3.3
	c0.22,1.11,0.41,2.22,0.58,3.34c0.17,1.12,0.3,2.24,0.42,3.36c0.11,1.12,0.19,2.25,0.25,3.38s0.08,2.26,0.08,3.39
	c0,1.13-0.03,2.26-0.08,3.39s-0.14,2.25-0.25,3.38c-0.11,1.12-0.25,2.24-0.42,3.36c-0.17,1.12-0.36,2.23-0.58,3.34
	c-0.22,1.11-0.47,2.21-0.74,3.3c-0.27,1.1-0.58,2.18-0.9,3.26c-0.33,1.08-0.68,2.15-1.06,3.22c-0.38,1.06-0.79,2.12-1.22,3.16
	c-0.43,1.04-0.89,2.08-1.37,3.1c-0.48,1.02-0.99,2.03-1.52,3.03s-1.09,1.98-1.67,2.95c-0.58,0.97-1.18,1.92-1.81,2.86
	c-0.63,0.94-1.28,1.86-1.95,2.77c-0.67,0.91-1.37,1.8-2.08,2.67c-0.72,0.87-1.45,1.73-2.21,2.56c-0.76,0.84-1.54,1.65-2.34,2.45
	c-0.8,0.8-1.62,1.58-2.45,2.34c-0.84,0.76-1.69,1.5-2.56,2.21c-0.87,0.72-1.76,1.41-2.67,2.08c-0.91,0.67-1.83,1.32-2.77,1.95
	c-0.94,0.63-1.89,1.23-2.86,1.81s-1.95,1.14-2.95,1.67s-2,1.04-3.03,1.52c-1.02,0.48-2.05,0.94-3.1,1.37
	c-1.04,0.43-2.1,0.84-3.16,1.22s-2.13,0.73-3.22,1.06c-1.08,0.33-2.17,0.63-3.26,0.9c-1.1,0.27-2.2,0.52-3.3,0.74
	c-1.11,0.22-2.22,0.41-3.34,0.58c-1.12,0.17-2.24,0.3-3.36,0.42c-1.12,0.11-2.25,0.19-3.38,0.25c-1.13,0.06-2.26,0.08-3.39,0.08
	s-2.26-0.03-3.39-0.08c-1.13-0.06-2.25-0.14-3.38-0.25c-1.12-0.11-2.24-0.25-3.36-0.42c-1.12-0.17-2.23-0.36-3.34-0.58
	c-1.11-0.22-2.21-0.47-3.3-0.74c-1.1-0.27-2.18-0.58-3.26-0.9c-1.08-0.33-2.15-0.68-3.22-1.06c-1.06-0.38-2.12-0.79-3.16-1.22
	s-2.08-0.89-3.1-1.37c-1.02-0.48-2.03-0.99-3.03-1.52s-1.98-1.09-2.95-1.67c-0.97-0.58-1.92-1.18-2.86-1.81
	c-0.94-0.63-1.86-1.28-2.77-1.95c-0.91-0.67-1.8-1.37-2.67-2.08c-0.87-0.72-1.73-1.45-2.56-2.21c-0.84-0.76-1.65-1.54-2.45-2.34
	c-0.8-0.8-1.58-1.62-2.34-2.45c-0.76-0.84-1.5-1.69-2.21-2.56c-0.72-0.87-1.41-1.76-2.08-2.67c-0.67-0.91-1.32-1.83-1.95-2.77
	c-0.63-0.94-1.23-1.89-1.81-2.86c-0.58-0.97-1.14-1.95-1.67-2.95s-1.04-2-1.52-3.03c-0.48-1.02-0.94-2.05-1.37-3.1
	c-0.43-1.04-0.84-2.1-1.22-3.16c-0.38-1.06-0.73-2.13-1.06-3.22c-0.33-1.08-0.63-2.17-0.9-3.26c-0.27-1.1-0.52-2.2-0.74-3.3
	c-0.22-1.11-0.41-2.22-0.58-3.34c-0.17-1.12-0.3-2.24-0.42-3.36c-0.11-1.12-0.19-2.25-0.25-3.38s-0.08-2.26-0.08-3.39
	c0-1.13,0.03-2.26,0.08-3.39s0.14-2.25,0.25-3.38c0.11-1.12,0.25-2.24,0.42-3.36c0.17-1.12,0.36-2.23,0.58-3.34
	c0.22-1.11,0.47-2.21,0.74-3.3c0.27-1.1,0.58-2.18,0.9-3.26c0.33-1.08,0.68-2.15,1.06-3.22c0.38-1.06,0.79-2.12,1.22-3.16
	c0.43-1.04,0.89-2.08,1.37-3.1c0.48-1.02,0.99-2.03,1.52-3.02s1.09-1.98,1.67-2.95c0.58-0.97,1.18-1.92,1.81-2.86
	c0.63-0.94,1.28-1.86,1.95-2.77c0.67-0.91,1.37-1.8,2.08-2.67s1.45-1.73,2.21-2.56c0.76-0.84,1.54-1.65,2.34-2.45
	c0.8-0.8,1.62-1.58,2.45-2.34c0.84-0.76,1.69-1.5,2.56-2.21s1.76-1.41,2.67-2.08c0.91-0.67,1.83-1.32,2.77-1.95
	c0.94-0.63,1.89-1.23,2.86-1.81c0.97-0.58,1.95-1.14,2.95-1.67s2-1.04,3.03-1.52c1.02-0.48,2.05-0.94,3.1-1.37
	c1.04-0.43,2.1-0.84,3.16-1.22c1.06-0.38,2.13-0.73,3.22-1.06c1.08-0.33,2.17-0.63,3.26-0.9c1.1-0.27,2.2-0.52,3.3-0.74
	s2.22-0.41,3.34-0.58c1.12-0.17,2.24-0.3,3.36-0.41c1.12-0.11,2.25-0.19,3.38-0.25S1161.87,49.06,1163,49.06z"/>
<path class="st15" d="M1166.11,202.96L1166.11,202.96c-0.13-1.64,0.18-3.15,0.94-4.53c0.75-1.38,1.77-2.52,3.05-3.41
	s2.66-1.42,4.12-1.57c0.55-0.06,1.14-0.01,1.75,0.15c0.62,0.16,0.93,0.52,0.95,1.06c-0.03,0.33-0.23,0.6-0.61,0.83
	c-0.38,0.23-0.86,0.46-1.44,0.69c-0.81,0.31-1.64,0.73-2.5,1.27s-1.54,1.33-2.05,2.38c-0.81,2-0.79,3.84,0.05,5.52
	s2.31,2.77,4.4,3.27c1.48,0.33,3.01,0.18,4.6-0.44c1.07-0.46,1.96-1.14,2.67-2.03c0.71-0.89,1.04-1.91,1.01-3.07
	c-0.06-0.77-0.18-1.48-0.37-2.13c-0.16-0.55-0.26-1.06-0.3-1.52c-0.01-0.68,0.2-1.21,0.64-1.57c0.43-0.37,0.93-0.51,1.49-0.42
	s1.02,0.49,1.38,1.2c0.26,0.57,0.44,1.14,0.55,1.71c0.33,1.63,0.22,3.24-0.3,4.85c-0.53,1.61-1.39,3-2.58,4.18
	c-1.54,1.45-3.25,2.35-5.14,2.69c-1.89,0.35-3.73,0.2-5.52-0.44s-3.31-1.69-4.55-3.17C1167.1,206.98,1166.36,205.14,1166.11,202.96z
	 M1175.39,199.88L1175.39,199.88c0.73-0.2,1.4-0.14,2.01,0.17c0.61,0.31,1,0.77,1.18,1.37c0.15,0.73,0.01,1.34-0.41,1.82
	c-0.42,0.48-0.88,0.79-1.4,0.92c-1.01,0.2-1.82,0.01-2.4-0.57c-0.59-0.58-0.83-1.24-0.72-2S1174.34,200.26,1175.39,199.88z
	 M1197.46,202.71c0.28,0,0.55,0.07,0.81,0.21c0.27,0.15,0.48,0.36,0.63,0.63c0.15,0.27,0.23,0.55,0.23,0.83
	c0,0.3-0.07,0.58-0.22,0.84c-0.15,0.27-0.36,0.47-0.62,0.62c-0.27,0.15-0.54,0.22-0.83,0.22h-1.77c-0.59,1.71-1.73,3.04-3.43,3.99
	c-0.54,0.3-1.13,0.52-1.76,0.67c-0.63,0.15-1.25,0.18-1.86,0.1c-0.25-0.03-0.53-0.11-0.85-0.25c-0.32-0.14-0.51-0.35-0.58-0.62
	c-0.01-0.23,0.1-0.43,0.34-0.61c0.24-0.18,0.5-0.34,0.8-0.46c0.29-0.12,0.53-0.21,0.71-0.26c1.45-0.45,2.51-1.32,3.19-2.59
	c-0.95-0.01-1.81-0.28-2.6-0.81c-0.79-0.53-1.32-1.29-1.58-2.28c-0.19-0.75-0.15-1.51,0.12-2.27c0.27-0.76,0.72-1.42,1.38-1.97
	s1.46-0.87,2.44-0.95c1.46-0.08,2.58,0.35,3.37,1.27c0.64,0.82,0.97,1.74,0.98,2.76c0.01,0.3,0.01,0.6,0,0.9L1197.46,202.71z
	 M1192.7,203.65L1192.7,203.65c0.69-0.05,1.12-0.32,1.29-0.81c0.17-0.49,0.09-0.97-0.24-1.44s-0.89-0.7-1.69-0.69
	c-0.4,0.03-0.74,0.19-1,0.49c-0.27,0.3-0.38,0.68-0.33,1.15c0.07,0.37,0.3,0.67,0.69,0.92
	C1191.8,203.53,1192.23,203.65,1192.7,203.65z M1197.46,202.71h0.24c0.48-0.03,0.84-0.21,1.07-0.55c0.23-0.33,0.43-0.75,0.58-1.24
	c0.09-0.23,0.18-0.45,0.28-0.68c0.15-0.46,0.36-0.9,0.64-1.3c0.47-0.69,1.08-1.24,1.82-1.64c0.74-0.4,1.57-0.61,2.48-0.62
	c1.23,0.02,2.25,0.31,3.05,0.87c0.8,0.56,1.39,1.28,1.76,2.14c0.37,0.87,0.52,1.77,0.45,2.72c-0.18,1.67-0.82,2.88-1.91,3.66
	c-1.1,0.77-2.33,1.12-3.7,1.03c-1.37-0.09-2.54-0.59-3.51-1.51c-0.26-0.27-0.48-0.55-0.67-0.86c-0.5,0.51-1.09,0.89-1.76,1.12
	c-0.27,0.14-0.54,0.21-0.83,0.21c-0.29,0-0.56-0.07-0.83-0.22c-0.27-0.15-0.47-0.35-0.62-0.62c-0.15-0.27-0.22-0.55-0.22-0.84
	c0-0.29,0.07-0.56,0.22-0.83c0.15-0.27,0.35-0.48,0.62-0.62C1196.9,202.78,1197.18,202.71,1197.46,202.71z M1204.85,200.13
	L1204.85,200.13c-0.65-0.09-1.2-0.01-1.65,0.24s-0.74,0.52-0.86,0.83c-0.13,0.34-0.11,0.73,0.05,1.18c0.16,0.45,0.43,0.83,0.81,1.15
	c0.46,0.36,0.98,0.54,1.56,0.54c0.58,0,1.07-0.23,1.49-0.67c0.45-0.53,0.6-1.15,0.44-1.85
	C1206.52,200.84,1205.91,200.37,1204.85,200.13z M1216.36,198.76l0.04,0.24c0.21,1.28,0.23,2.57,0.07,3.87
	c-0.16,1.3-0.56,2.5-1.2,3.59s-1.56,1.97-2.79,2.63c-0.54,0.29-1.13,0.5-1.75,0.66s-1.25,0.19-1.87,0.1
	c-0.25-0.03-0.53-0.11-0.85-0.25s-0.51-0.34-0.57-0.61c-0.02-0.24,0.09-0.45,0.33-0.63s0.5-0.33,0.81-0.46
	c0.3-0.12,0.54-0.2,0.7-0.24c0.99-0.3,1.79-0.79,2.4-1.49c0.62-0.69,1.09-1.52,1.43-2.48c0.27-0.87,0.34-1.75,0.22-2.66
	c-0.03-0.35-0.07-0.71-0.12-1.06c-0.06-0.42-0.1-0.85-0.13-1.29c-0.03-0.25-0.03-0.51-0.01-0.8c0.02-0.29,0.11-0.54,0.24-0.75
	c0.14-0.19,0.31-0.32,0.53-0.4c0.22-0.08,0.44-0.13,0.67-0.15c0.23-0.02,0.46-0.01,0.69,0.03c0.23,0.04,0.43,0.15,0.6,0.33
	c0.18,0.21,0.3,0.48,0.38,0.83C1216.26,198.11,1216.32,198.44,1216.36,198.76z M1213.52,189.85L1213.52,189.85
	c0.73-0.2,1.4-0.14,2.01,0.17s1.01,0.77,1.18,1.37c0.15,0.73,0.01,1.34-0.41,1.82c-0.42,0.48-0.88,0.79-1.4,0.92
	c-1.01,0.2-1.82,0.01-2.4-0.57c-0.59-0.58-0.83-1.24-0.72-2S1212.46,190.22,1213.52,189.85z M1217.85,187.41
	c-0.12,0.17-0.24,0.33-0.35,0.49c-0.47,0.55-0.87,0.73-1.18,0.55c-0.31-0.19-0.42-0.53-0.33-1.04c0.24-0.84,0.71-1.56,1.43-2.16
	c0.82-0.66,1.62-1.03,2.41-1.1c0.79-0.07,1.57,0.04,2.34,0.35s1.53,0.71,2.29,1.19c0.55,0.33,1.18,0.55,1.88,0.65
	c0.7,0.1,1.32,0.02,1.86-0.22s0.84-0.71,0.9-1.4c-0.02-0.62-0.33-1.16-0.94-1.62c-0.61-0.46-1.24-0.68-1.9-0.66
	c1.35-0.25,2.35-0.04,3.01,0.61c0.66,0.65,0.87,1.52,0.63,2.62c-0.17,0.67-0.59,1.24-1.27,1.72c-0.68,0.48-1.51,0.74-2.5,0.78
	c-0.99,0.04-2.03-0.26-3.12-0.89c-1.17-0.7-2.09-1.09-2.74-1.18s-1.16,0-1.52,0.28C1218.4,186.65,1218.09,186.99,1217.85,187.41z
	 M1223.2,190.97L1223.2,190.97c0.04,1.57,0.01,3.58-0.07,6.04s-0.24,4.45-0.44,5.96c-0.19,1.16-0.46,2.04-0.81,2.62
	c-0.35,0.58-0.68,0.73-0.99,0.44c-0.31-0.29-0.51-1.17-0.58-2.62l-0.24-11.4c0.03-1.12,0.29-1.87,0.79-2.25
	c0.5-0.37,1-0.44,1.5-0.21C1222.86,189.79,1223.14,190.26,1223.2,190.97z"/>
<path class="st13" d="M1216,446.06c1.38,0,2.75,0.07,4.12,0.2c1.37,0.13,2.73,0.34,4.08,0.6c1.35,0.27,2.68,0.6,4,1
	c1.32,0.4,2.61,0.86,3.88,1.39c1.27,0.53,2.51,1.11,3.73,1.76s2.39,1.36,3.54,2.12s2.25,1.58,3.31,2.46
	c1.06,0.87,2.08,1.79,3.05,2.77c0.97,0.97,1.9,1.99,2.77,3.05c0.87,1.06,1.69,2.17,2.46,3.31c0.76,1.14,1.47,2.32,2.12,3.54
	s1.24,2.46,1.76,3.73c0.53,1.27,0.99,2.56,1.39,3.88c0.4,1.32,0.73,2.65,1,4c0.27,1.35,0.47,2.71,0.6,4.08s0.2,2.74,0.2,4.12
	c0,1.38-0.07,2.75-0.2,4.12c-0.13,1.37-0.34,2.73-0.6,4.08c-0.27,1.35-0.6,2.68-1,4s-0.86,2.61-1.39,3.88
	c-0.53,1.27-1.11,2.51-1.76,3.73s-1.36,2.39-2.12,3.54c-0.76,1.14-1.58,2.25-2.46,3.31c-0.87,1.06-1.8,2.08-2.77,3.05
	s-1.99,1.9-3.05,2.77c-1.06,0.87-2.17,1.69-3.31,2.46c-1.14,0.76-2.32,1.47-3.54,2.12s-2.46,1.24-3.73,1.76
	c-1.27,0.53-2.56,0.99-3.88,1.39c-1.32,0.4-2.65,0.73-4,1c-1.35,0.27-2.71,0.47-4.08,0.6c-1.37,0.13-2.74,0.2-4.12,0.2
	c-1.38,0-2.75-0.07-4.12-0.2c-1.37-0.13-2.73-0.34-4.08-0.6c-1.35-0.27-2.68-0.6-4-1c-1.32-0.4-2.61-0.86-3.88-1.39
	c-1.27-0.53-2.51-1.11-3.73-1.76s-2.39-1.36-3.54-2.12c-1.14-0.76-2.25-1.58-3.31-2.46c-1.06-0.87-2.08-1.8-3.05-2.77
	s-1.9-1.99-2.77-3.05c-0.87-1.06-1.69-2.17-2.46-3.31c-0.76-1.14-1.47-2.32-2.12-3.54s-1.24-2.46-1.76-3.73
	c-0.53-1.27-0.99-2.56-1.39-3.88s-0.73-2.65-1-4c-0.27-1.35-0.47-2.71-0.6-4.08c-0.13-1.37-0.2-2.74-0.2-4.12
	c0-1.38,0.07-2.75,0.2-4.12s0.34-2.73,0.6-4.08c0.27-1.35,0.6-2.68,1-4c0.4-1.32,0.86-2.61,1.39-3.88c0.53-1.27,1.11-2.51,1.76-3.73
	s1.36-2.39,2.12-3.54c0.76-1.14,1.58-2.25,2.46-3.31c0.87-1.06,1.8-2.08,2.77-3.05c0.97-0.97,1.99-1.9,3.05-2.77
	c1.06-0.87,2.17-1.69,3.31-2.46s2.32-1.47,3.54-2.12s2.46-1.24,3.73-1.76c1.27-0.53,2.56-0.99,3.88-1.39c1.32-0.4,2.65-0.73,4-1
	c1.35-0.27,2.71-0.47,4.08-0.6C1213.25,446.13,1214.62,446.06,1216,446.06z"/>
<path class="st13" d="M1139,585.06c0.79,0,1.57,0.04,2.35,0.12s1.56,0.19,2.33,0.35c0.77,0.15,1.53,0.34,2.29,0.57
	s1.49,0.49,2.22,0.79c0.73,0.3,1.44,0.64,2.13,1.01c0.69,0.37,1.37,0.77,2.02,1.21c0.65,0.44,1.28,0.9,1.89,1.4
	c0.61,0.5,1.19,1.03,1.75,1.58s1.08,1.14,1.58,1.75c0.5,0.61,0.97,1.24,1.4,1.89c0.44,0.65,0.84,1.33,1.21,2.02
	c0.37,0.69,0.71,1.4,1.01,2.13c0.3,0.73,0.57,1.47,0.79,2.22c0.23,0.75,0.42,1.51,0.57,2.28c0.15,0.77,0.27,1.55,0.35,2.33
	c0.08,0.78,0.12,1.57,0.12,2.35s-0.04,1.57-0.12,2.35c-0.08,0.78-0.19,1.56-0.35,2.33c-0.15,0.77-0.34,1.53-0.57,2.29
	c-0.23,0.75-0.49,1.49-0.79,2.22c-0.3,0.73-0.64,1.44-1.01,2.13c-0.37,0.69-0.77,1.37-1.21,2.02c-0.44,0.65-0.9,1.28-1.4,1.89
	c-0.5,0.61-1.03,1.19-1.58,1.75c-0.56,0.56-1.14,1.08-1.75,1.58c-0.61,0.5-1.24,0.97-1.89,1.4c-0.65,0.44-1.33,0.84-2.02,1.21
	s-1.4,0.71-2.13,1.01c-0.73,0.3-1.47,0.57-2.22,0.79c-0.75,0.23-1.51,0.42-2.29,0.57c-0.77,0.15-1.55,0.27-2.33,0.35
	c-0.78,0.08-1.57,0.12-2.35,0.12s-1.57-0.04-2.35-0.12c-0.78-0.08-1.56-0.19-2.33-0.35c-0.77-0.15-1.53-0.34-2.28-0.57
	c-0.75-0.23-1.49-0.49-2.22-0.79c-0.73-0.3-1.44-0.64-2.13-1.01s-1.37-0.77-2.02-1.21c-0.65-0.44-1.28-0.9-1.89-1.4
	c-0.61-0.5-1.19-1.03-1.75-1.58c-0.56-0.56-1.08-1.14-1.58-1.75c-0.5-0.61-0.97-1.24-1.4-1.89c-0.44-0.65-0.84-1.33-1.21-2.02
	c-0.37-0.69-0.71-1.4-1.01-2.13c-0.3-0.73-0.57-1.47-0.79-2.22s-0.42-1.51-0.57-2.29c-0.15-0.77-0.27-1.55-0.35-2.33
	s-0.12-1.57-0.12-2.35s0.04-1.57,0.12-2.35s0.19-1.56,0.35-2.33c0.15-0.77,0.34-1.53,0.57-2.28s0.49-1.49,0.79-2.22
	c0.3-0.73,0.64-1.44,1.01-2.13c0.37-0.69,0.77-1.37,1.21-2.02c0.44-0.65,0.9-1.28,1.4-1.89c0.5-0.61,1.03-1.19,1.58-1.75
	s1.14-1.08,1.75-1.58c0.61-0.5,1.24-0.97,1.89-1.4c0.65-0.44,1.33-0.84,2.02-1.21c0.69-0.37,1.4-0.71,2.13-1.01
	c0.73-0.3,1.47-0.56,2.22-0.79s1.51-0.42,2.28-0.57c0.77-0.15,1.55-0.27,2.33-0.35S1138.21,585.06,1139,585.06z"/>
<path class="st14" d="M1080.5,478.06c0.69,0,1.37,0.07,2.05,0.2c0.68,0.13,1.33,0.33,1.97,0.6c0.64,0.26,1.24,0.59,1.82,0.97
	s1.1,0.82,1.59,1.31s0.92,1.02,1.31,1.59s0.71,1.18,0.97,1.82c0.26,0.64,0.46,1.29,0.6,1.97c0.13,0.68,0.2,1.36,0.2,2.05
	s-0.07,1.37-0.2,2.05c-0.13,0.68-0.33,1.33-0.6,1.97c-0.26,0.64-0.59,1.24-0.97,1.82s-0.82,1.1-1.31,1.59
	c-0.49,0.49-1.02,0.92-1.59,1.31c-0.57,0.38-1.18,0.71-1.82,0.97c-0.64,0.26-1.29,0.46-1.97,0.6c-0.68,0.13-1.36,0.2-2.05,0.2
	s-1.37-0.07-2.05-0.2c-0.68-0.13-1.33-0.33-1.97-0.6c-0.64-0.26-1.24-0.59-1.82-0.97c-0.57-0.38-1.1-0.82-1.59-1.31
	c-0.49-0.49-0.92-1.02-1.31-1.59s-0.71-1.18-0.97-1.82s-0.46-1.29-0.6-1.97c-0.13-0.68-0.2-1.36-0.2-2.05s0.07-1.37,0.2-2.05
	c0.13-0.68,0.33-1.33,0.6-1.97s0.59-1.24,0.97-1.82s0.82-1.1,1.31-1.59s1.02-0.92,1.59-1.31c0.57-0.38,1.18-0.71,1.82-0.97
	c0.64-0.26,1.29-0.46,1.97-0.6C1079.13,478.13,1079.81,478.06,1080.5,478.06z"/>
<path class="st1" d="M1163,466.06c1.13,0,2.26,0.03,3.39,0.08s2.25,0.14,3.38,0.25c1.12,0.11,2.24,0.25,3.36,0.41
	c1.12,0.17,2.23,0.36,3.34,0.58c1.11,0.22,2.21,0.47,3.3,0.74s2.18,0.58,3.26,0.9c1.08,0.33,2.15,0.68,3.22,1.06
	s2.12,0.79,3.16,1.22c1.04,0.43,2.08,0.89,3.1,1.37c1.02,0.48,2.03,0.99,3.03,1.52s1.98,1.09,2.95,1.67
	c0.97,0.58,1.92,1.18,2.86,1.81c0.94,0.63,1.86,1.28,2.77,1.95c0.91,0.67,1.8,1.37,2.67,2.08s1.73,1.45,2.56,2.21
	c0.84,0.76,1.65,1.54,2.45,2.33c0.8,0.8,1.58,1.62,2.34,2.45c0.76,0.84,1.5,1.69,2.21,2.56c0.72,0.87,1.41,1.76,2.08,2.67
	s1.32,1.83,1.95,2.77c0.63,0.94,1.23,1.89,1.81,2.86c0.58,0.97,1.14,1.95,1.67,2.95s1.04,2,1.52,3.02c0.48,1.02,0.94,2.05,1.37,3.1
	c0.43,1.04,0.84,2.1,1.22,3.16c0.38,1.06,0.73,2.14,1.06,3.22c0.33,1.08,0.63,2.17,0.9,3.26c0.27,1.1,0.52,2.2,0.74,3.3
	c0.22,1.11,0.41,2.22,0.58,3.34c0.17,1.12,0.3,2.24,0.42,3.36c0.11,1.12,0.19,2.25,0.25,3.38s0.08,2.26,0.08,3.39
	s-0.03,2.26-0.08,3.39s-0.14,2.25-0.25,3.38c-0.11,1.12-0.25,2.24-0.42,3.36c-0.17,1.12-0.36,2.23-0.58,3.34
	c-0.22,1.11-0.47,2.21-0.74,3.3c-0.27,1.1-0.58,2.18-0.9,3.26c-0.33,1.08-0.68,2.15-1.06,3.22c-0.38,1.06-0.79,2.12-1.22,3.16
	c-0.43,1.04-0.89,2.08-1.37,3.1c-0.48,1.02-0.99,2.03-1.52,3.03s-1.09,1.98-1.67,2.95c-0.58,0.97-1.18,1.92-1.81,2.86
	c-0.63,0.94-1.28,1.86-1.95,2.77c-0.67,0.91-1.37,1.8-2.08,2.67c-0.72,0.87-1.45,1.73-2.21,2.56c-0.76,0.84-1.54,1.65-2.34,2.45
	c-0.8,0.8-1.62,1.58-2.45,2.33c-0.84,0.76-1.69,1.5-2.56,2.21c-0.87,0.72-1.76,1.41-2.67,2.08c-0.91,0.67-1.83,1.32-2.77,1.95
	c-0.94,0.63-1.89,1.23-2.86,1.81c-0.97,0.58-1.95,1.14-2.95,1.67s-2,1.04-3.03,1.52c-1.02,0.48-2.05,0.94-3.1,1.37
	c-1.04,0.43-2.1,0.84-3.16,1.22c-1.06,0.38-2.13,0.73-3.22,1.06c-1.08,0.33-2.17,0.63-3.26,0.9c-1.1,0.27-2.2,0.52-3.3,0.74
	c-1.11,0.22-2.22,0.41-3.34,0.58c-1.12,0.17-2.24,0.3-3.36,0.42c-1.12,0.11-2.25,0.19-3.38,0.25s-2.26,0.08-3.39,0.08
	s-2.26-0.03-3.39-0.08s-2.25-0.14-3.38-0.25c-1.12-0.11-2.24-0.25-3.36-0.42c-1.12-0.17-2.23-0.36-3.34-0.58
	c-1.11-0.22-2.21-0.47-3.3-0.74c-1.1-0.27-2.18-0.58-3.26-0.9c-1.08-0.33-2.15-0.68-3.22-1.06c-1.06-0.38-2.12-0.79-3.16-1.22
	c-1.04-0.43-2.08-0.89-3.1-1.37c-1.02-0.48-2.03-0.99-3.03-1.52s-1.98-1.09-2.95-1.67c-0.97-0.58-1.92-1.19-2.86-1.81
	c-0.94-0.63-1.86-1.28-2.77-1.95s-1.8-1.37-2.67-2.08c-0.87-0.72-1.73-1.45-2.56-2.21c-0.84-0.76-1.65-1.54-2.45-2.33
	c-0.8-0.8-1.58-1.62-2.34-2.45c-0.76-0.84-1.5-1.69-2.21-2.56s-1.41-1.76-2.08-2.67c-0.67-0.91-1.32-1.83-1.95-2.77
	c-0.63-0.94-1.23-1.89-1.81-2.86c-0.58-0.97-1.14-1.95-1.67-2.95s-1.04-2-1.52-3.03c-0.48-1.02-0.94-2.05-1.37-3.1
	c-0.43-1.04-0.84-2.1-1.22-3.16c-0.38-1.06-0.73-2.13-1.06-3.22c-0.33-1.08-0.63-2.17-0.9-3.26s-0.52-2.2-0.74-3.3
	c-0.22-1.11-0.41-2.22-0.58-3.34c-0.17-1.12-0.3-2.24-0.42-3.36c-0.11-1.13-0.19-2.25-0.25-3.38s-0.08-2.26-0.08-3.39
	s0.03-2.26,0.08-3.39s0.14-2.25,0.25-3.38c0.11-1.12,0.25-2.24,0.42-3.36c0.17-1.12,0.36-2.23,0.58-3.34
	c0.22-1.11,0.47-2.21,0.74-3.3s0.58-2.18,0.9-3.26c0.33-1.08,0.68-2.15,1.06-3.22c0.38-1.06,0.79-2.12,1.22-3.16
	c0.43-1.04,0.89-2.08,1.37-3.1c0.48-1.02,0.99-2.03,1.52-3.02s1.09-1.98,1.67-2.95c0.58-0.97,1.18-1.92,1.81-2.86
	c0.63-0.94,1.28-1.86,1.95-2.77c0.67-0.91,1.37-1.8,2.08-2.67s1.45-1.73,2.21-2.56c0.76-0.84,1.54-1.65,2.34-2.45
	c0.8-0.8,1.62-1.58,2.45-2.33c0.84-0.76,1.69-1.5,2.56-2.21s1.76-1.41,2.67-2.08c0.91-0.67,1.83-1.32,2.77-1.95
	c0.94-0.63,1.89-1.23,2.86-1.81c0.97-0.58,1.95-1.14,2.95-1.67s2-1.04,3.03-1.52c1.02-0.48,2.05-0.94,3.1-1.37
	c1.04-0.43,2.1-0.84,3.16-1.22c1.06-0.38,2.13-0.73,3.22-1.06c1.08-0.33,2.17-0.63,3.26-0.9s2.2-0.52,3.3-0.74
	c1.11-0.22,2.22-0.41,3.34-0.58c1.12-0.17,2.24-0.3,3.36-0.41c1.12-0.11,2.25-0.19,3.38-0.25S1161.87,466.06,1163,466.06z"/>
<path class="st15" d="M1186.7,622.31c0.31,0,0.61,0.08,0.91,0.23c0.3,0.17,0.53,0.4,0.7,0.7c0.17,0.3,0.26,0.61,0.26,0.93
	c0,0.33-0.08,0.64-0.25,0.94c-0.17,0.3-0.4,0.53-0.69,0.69c-0.3,0.17-0.61,0.25-0.92,0.25h-0.61c-1.36,0.01-2.58-0.19-3.66-0.6
	s-1.96-1.11-2.62-2.09c-0.65-1.01-1.01-2.05-1.07-3.1s-0.02-2.15,0.15-3.3c0.13-0.86-0.03-1.42-0.5-1.67c-0.46-0.25-1-0.28-1.6-0.07
	c-0.74,0.26-1.32,0.7-1.75,1.31c-0.65,0.92-0.93,1.81-0.85,2.65c0.08,0.84,0.44,1.51,1.06,2.02c0.62,0.5,1.43,0.7,2.44,0.59
	c0.47-0.01,0.79,0.26,0.95,0.81s0.07,1.12-0.26,1.69c-0.33,0.58-0.99,0.89-1.97,0.95c-1.25,0.02-2.46-0.4-3.63-1.27
	c-0.78-0.66-1.31-1.58-1.57-2.77c-0.26-1.18-0.25-2.45,0.05-3.78c0.3-1.34,0.89-2.56,1.78-3.68c0.89-1.11,2.08-1.92,3.59-2.43
	c0.88-0.28,1.71-0.35,2.49-0.21s1.47,0.41,2.07,0.84c0.73,0.55,1.22,1.21,1.48,1.97c0.26,0.77,0.34,1.58,0.26,2.45
	c-0.02,0.22-0.04,0.45-0.07,0.68c-0.12,0.88-0.15,1.72-0.1,2.52c0.05,0.8,0.37,1.45,0.94,1.96
	C1184.26,622.04,1185.27,622.3,1186.7,622.31z"/>
<path class="st15" d="M1186.7,622.31h0.26c0.54-0.03,0.94-0.24,1.2-0.61c0.26-0.37,0.48-0.84,0.65-1.39c0.1-0.25,0.2-0.51,0.31-0.76
	c0.17-0.52,0.4-1,0.71-1.45c0.53-0.77,1.21-1.38,2.03-1.83c0.83-0.45,1.75-0.68,2.78-0.69c1.38,0.02,2.51,0.35,3.41,0.97
	s1.55,1.43,1.97,2.4s0.58,1.98,0.5,3.04c-0.2,1.86-0.91,3.22-2.14,4.09c-1.23,0.87-2.6,1.25-4.13,1.15s-2.83-0.66-3.92-1.69
	c-0.29-0.3-0.54-0.62-0.74-0.96c-0.56,0.57-1.22,0.99-1.97,1.26c-0.3,0.15-0.61,0.23-0.92,0.23s-0.63-0.08-0.93-0.25
	c-0.3-0.17-0.53-0.4-0.69-0.69c-0.17-0.3-0.25-0.61-0.25-0.94c0-0.32,0.08-0.63,0.25-0.93c0.17-0.3,0.4-0.53,0.69-0.69
	C1186.07,622.39,1186.38,622.31,1186.7,622.31z M1194.96,619.44L1194.96,619.44c-0.73-0.1-1.34-0.01-1.84,0.26
	c-0.5,0.28-0.82,0.58-0.97,0.93c-0.14,0.37-0.12,0.81,0.06,1.31s0.48,0.93,0.9,1.28c0.52,0.41,1.1,0.61,1.74,0.6
	c0.64,0,1.2-0.26,1.66-0.75c0.51-0.6,0.67-1.28,0.49-2.07S1196.14,619.7,1194.96,619.44z"/>
<path class="st15" d="M1208.26,622.31v3.75h-0.71c-1.46,0-2.59-0.27-3.39-0.8s-1.36-1.25-1.7-2.16c-0.34-0.9-0.54-1.92-0.6-3.06
	c-0.06-1.13-0.08-2.31-0.06-3.54v-0.26l0.07-6.91c0.05-0.81,0.37-1.39,0.93-1.73c0.57-0.34,1.13-0.35,1.69-0.03
	c0.56,0.32,0.85,1.07,0.88,2.25l-0.13,9.78c0.05,1.06,0.34,1.78,0.87,2.16s1.15,0.57,1.89,0.54H1208.26z M1208.19,622.31
	c0.31,0,0.61,0.08,0.92,0.24c0.3,0.16,0.54,0.39,0.7,0.69c0.17,0.3,0.25,0.61,0.25,0.93c0,0.33-0.08,0.64-0.24,0.94
	c-0.16,0.3-0.39,0.53-0.69,0.69s-0.61,0.25-0.93,0.25c-0.33,0-0.64-0.08-0.94-0.25s-0.53-0.4-0.69-0.69
	c-0.17-0.3-0.25-0.61-0.25-0.94c0-0.32,0.08-0.63,0.26-0.93c0.17-0.3,0.4-0.53,0.7-0.69
	C1207.57,622.39,1207.87,622.31,1208.19,622.31z"/>
<path class="st15" d="M1208.28,622.31c0.32,0,0.63,0.08,0.92,0.24c0.3,0.16,0.53,0.39,0.7,0.69c0.17,0.3,0.26,0.61,0.26,0.93
	c0,0.33-0.08,0.64-0.25,0.94c-0.17,0.3-0.4,0.53-0.69,0.69c-0.3,0.17-0.61,0.25-0.94,0.25c-0.32,0-0.63-0.08-0.92-0.25
	c-0.3-0.17-0.53-0.4-0.69-0.69c-0.17-0.3-0.25-0.61-0.25-0.94c0-0.32,0.08-0.63,0.25-0.93c0.17-0.3,0.4-0.53,0.7-0.69
	C1207.66,622.39,1207.97,622.31,1208.28,622.31z M1219.48,622.31v3.75c-0.39,0.01-0.77,0.01-1.14,0c-1.17,0.02-2.32-0.19-3.45-0.64
	c-1.13-0.45-2-1.19-2.61-2.22c-0.34,0.86-0.88,1.55-1.61,2.07c-0.73,0.52-1.54,0.78-2.44,0.79v-3.75c0.83,0.01,1.43-0.1,1.83-0.34
	c0.39-0.24,0.67-0.53,0.83-0.87c0.15-0.32,0.25-0.68,0.27-1.07s0.03-0.82,0.01-1.27c-0.03-0.63-0.01-1.27,0.07-1.92
	c0.11-0.63,0.38-1.06,0.82-1.29c0.43-0.23,0.87-0.18,1.3,0.15s0.7,1.02,0.81,2.07c0.02,0.22,0.05,0.43,0.1,0.64
	c0.04,0.3,0.08,0.58,0.12,0.86c0.11,0.52,0.35,1.01,0.72,1.46s0.9,0.83,1.6,1.13C1217.39,622.16,1218.32,622.31,1219.48,622.31z
	 M1210.64,608.6L1210.64,608.6c0.82-0.22,1.56-0.16,2.25,0.19c0.68,0.35,1.12,0.86,1.32,1.53c0.17,0.82,0.01,1.49-0.46,2.03
	c-0.47,0.54-0.99,0.88-1.56,1.02c-1.13,0.22-2.03,0.01-2.69-0.64s-0.92-1.39-0.81-2.24C1208.81,609.65,1209.46,609.02,1210.64,608.6
	z M1219.48,622.31c0.32,0,0.63,0.08,0.92,0.24c0.3,0.16,0.53,0.39,0.7,0.69c0.17,0.3,0.26,0.61,0.26,0.93
	c0,0.33-0.08,0.64-0.25,0.94c-0.17,0.3-0.4,0.53-0.69,0.69c-0.3,0.17-0.61,0.25-0.94,0.25c-0.32,0-0.63-0.08-0.93-0.25
	c-0.3-0.17-0.54-0.4-0.69-0.69c-0.16-0.3-0.24-0.61-0.24-0.94c0-0.32,0.08-0.63,0.25-0.93c0.17-0.3,0.4-0.53,0.69-0.69
	C1218.85,622.39,1219.16,622.31,1219.48,622.31z M1219.51,622.31c0.32,0,0.63,0.08,0.93,0.24c0.3,0.16,0.53,0.39,0.7,0.69
	c0.17,0.3,0.26,0.61,0.26,0.93c0,0.33-0.08,0.64-0.25,0.94c-0.17,0.3-0.4,0.53-0.69,0.69c-0.3,0.17-0.61,0.25-0.94,0.25
	c-0.32,0-0.63-0.08-0.92-0.25c-0.3-0.17-0.53-0.4-0.69-0.69c-0.17-0.3-0.25-0.61-0.25-0.94c0-0.32,0.08-0.63,0.25-0.93
	c0.17-0.3,0.4-0.53,0.69-0.69C1218.88,622.39,1219.19,622.31,1219.51,622.31z M1236.79,622.81c-0.47,0.96-0.97,1.69-1.49,2.2
	c-0.76,0.74-1.68,1.09-2.76,1.07c-1.08-0.03-2.05-0.46-2.92-1.3c-0.45,0.65-1.02,1.06-1.72,1.22c-0.69,0.17-1.38,0.1-2.06-0.19
	c-0.68-0.29-1.21-0.79-1.61-1.48c-0.82,0.82-1.63,1.33-2.43,1.53c-0.8,0.2-1.57,0.27-2.3,0.21v-3.75c0.87,0.01,1.5-0.11,1.88-0.37
	s0.63-0.59,0.74-1.01c0.12-0.41,0.19-0.85,0.22-1.31c0.02-0.44,0.08-0.85,0.19-1.23c0.1-0.38,0.33-0.68,0.67-0.9
	c0.46-0.26,0.94-0.33,1.43-0.2c0.49,0.13,0.83,0.46,1.03,0.97c0.14,0.46,0.21,0.99,0.21,1.57c0,0.44,0.04,0.88,0.12,1.32
	c0.19,0.92,0.46,1.31,0.83,1.14c0.36-0.17,0.7-0.61,1-1.33c0.3-0.72,0.47-1.44,0.5-2.16c0.05-0.76,0.32-1.29,0.8-1.59
	s0.98-0.3,1.5,0.02s0.84,1.03,0.97,2.14l0.03,1.17c0.03,1.22,0.21,1.8,0.55,1.73c0.33-0.07,0.7-0.63,1.12-1.66
	c0.28-0.68,0.4-1.42,0.38-2.21c0.01-1,0.25-1.72,0.7-2.16c0.46-0.44,0.97-0.58,1.54-0.41c0.57,0.17,1.01,0.65,1.33,1.45
	c0.31,0.88,0.41,1.81,0.29,2.79C1237.43,621.04,1237.18,621.96,1236.79,622.81z"/>
<path class="st15" d="M1244.69,617.9l0.05,0.26c0.23,1.43,0.26,2.87,0.07,4.33c-0.18,1.45-0.63,2.79-1.34,4.01
	c-0.71,1.22-1.75,2.2-3.11,2.94c-0.61,0.32-1.26,0.56-1.96,0.74c-0.7,0.17-1.4,0.21-2.09,0.11c-0.27-0.03-0.59-0.13-0.95-0.28
	c-0.36-0.15-0.57-0.38-0.64-0.68c-0.02-0.26,0.1-0.5,0.36-0.7c0.26-0.2,0.56-0.37,0.9-0.51c0.34-0.14,0.6-0.23,0.79-0.27
	c1.1-0.33,2-0.88,2.68-1.66s1.22-1.7,1.59-2.77c0.3-0.97,0.38-1.96,0.25-2.97c-0.03-0.4-0.08-0.79-0.13-1.19
	c-0.07-0.47-0.12-0.95-0.15-1.44c-0.03-0.28-0.04-0.57-0.01-0.89s0.12-0.6,0.27-0.84c0.15-0.21,0.35-0.36,0.59-0.45
	c0.24-0.09,0.49-0.14,0.74-0.17c0.25-0.02,0.51-0.01,0.77,0.03s0.48,0.17,0.67,0.36c0.2,0.23,0.34,0.54,0.43,0.92
	C1244.58,617.18,1244.65,617.55,1244.69,617.9z"/>
<path class="st15" d="M1255,619.45L1255,619.45c-0.29-0.94-1.18-1.83-2.69-2.68c-0.82-0.44-1.44-0.88-1.88-1.31
	c-0.43-0.53-0.59-1.07-0.47-1.62c0.12-0.55,0.43-0.96,0.94-1.23c0.51-0.27,1.16-0.24,1.96,0.09c0.87,0.42,1.99,1.2,3.35,2.35
	c1.3,1.17,2.07,2.56,2.3,4.16l0.02-0.02c0.01,0.13,0.02,0.26,0.02,0.4c0,1.11-0.23,2.1-0.69,2.96c-0.67,1.17-1.64,2.06-2.92,2.67
	c-1.27,0.61-2.64,0.95-4.09,1.02c-1.4,0.03-2.4-0.19-3-0.66c-0.6-0.47-0.89-1-0.86-1.59c0.03-0.59,0.28-1.03,0.75-1.33
	c0.36-0.15,1.02-0.21,1.98-0.16c0.57,0.01,1.17,0,1.8-0.03c1.54-0.09,2.57-0.4,3.07-0.93C1255.09,621.01,1255.23,620.31,1255,619.45
	z"/>
<path class="st13" d="M1216.5,240.06c1.39,0,2.78,0.07,4.17,0.2c1.38,0.14,2.76,0.34,4.13,0.61s2.71,0.61,4.05,1.01
	c1.33,0.4,2.64,0.87,3.93,1.41c1.29,0.53,2.54,1.13,3.77,1.78c1.23,0.66,2.42,1.37,3.58,2.14c1.16,0.77,2.27,1.6,3.35,2.48
	c1.08,0.88,2.11,1.82,3.09,2.8c0.98,0.98,1.92,2.01,2.8,3.09c0.88,1.08,1.71,2.19,2.49,3.35c0.77,1.16,1.49,2.35,2.14,3.58
	s1.25,2.48,1.78,3.77c0.53,1.29,1,2.6,1.41,3.93s0.74,2.68,1.01,4.05s0.48,2.74,0.61,4.13c0.14,1.39,0.21,2.77,0.21,4.17
	c0,1.39-0.07,2.78-0.21,4.17c-0.14,1.39-0.34,2.76-0.61,4.13s-0.61,2.71-1.01,4.05s-0.87,2.64-1.41,3.93
	c-0.53,1.29-1.13,2.54-1.78,3.77s-1.37,2.42-2.14,3.58c-0.77,1.16-1.6,2.27-2.49,3.35c-0.88,1.08-1.82,2.11-2.8,3.09
	s-2.01,1.92-3.09,2.8c-1.08,0.88-2.19,1.71-3.35,2.48c-1.16,0.77-2.35,1.49-3.58,2.14s-2.48,1.25-3.77,1.78
	c-1.29,0.53-2.59,1-3.93,1.41s-2.68,0.74-4.05,1.01c-1.37,0.27-2.74,0.48-4.13,0.61c-1.39,0.14-2.77,0.21-4.17,0.21
	s-2.78-0.07-4.17-0.21c-1.38-0.14-2.76-0.34-4.13-0.61c-1.37-0.27-2.71-0.61-4.05-1.01s-2.64-0.87-3.93-1.41
	c-1.29-0.53-2.54-1.13-3.77-1.78s-2.42-1.37-3.58-2.14c-1.16-0.77-2.27-1.6-3.35-2.48c-1.08-0.88-2.11-1.82-3.09-2.8
	c-0.98-0.98-1.92-2.01-2.8-3.09c-0.88-1.08-1.71-2.19-2.48-3.35c-0.77-1.16-1.49-2.35-2.14-3.58s-1.25-2.48-1.78-3.77
	c-0.53-1.29-1-2.59-1.41-3.93s-0.74-2.68-1.01-4.05s-0.48-2.74-0.61-4.13c-0.14-1.39-0.21-2.77-0.21-4.17
	c0-1.39,0.07-2.78,0.21-4.17c0.14-1.38,0.34-2.76,0.61-4.13s0.61-2.71,1.01-4.05s0.87-2.64,1.41-3.93c0.53-1.29,1.13-2.54,1.78-3.77
	s1.37-2.42,2.14-3.58c0.77-1.16,1.6-2.27,2.48-3.35c0.88-1.08,1.82-2.11,2.8-3.09c0.98-0.98,2.01-1.92,3.09-2.8s2.19-1.71,3.35-2.48
	c1.16-0.77,2.35-1.49,3.58-2.14c1.23-0.66,2.48-1.25,3.77-1.78c1.29-0.53,2.59-1,3.93-1.41c1.33-0.4,2.68-0.74,4.05-1.01
	s2.74-0.48,4.13-0.61C1213.72,240.13,1215.11,240.06,1216.5,240.06z"/>
<path class="st13" d="M1139,379.06c0.82,0,1.64,0.04,2.45,0.12c0.82,0.08,1.62,0.2,2.43,0.35c0.8,0.16,1.6,0.35,2.38,0.58
	c0.78,0.23,1.55,0.5,2.31,0.81c0.76,0.31,1.5,0.65,2.22,1.03c0.72,0.38,1.42,0.79,2.1,1.24c0.68,0.45,1.34,0.92,1.97,1.43
	c0.63,0.51,1.24,1.05,1.82,1.62s1.13,1.16,1.65,1.78s1.01,1.26,1.46,1.93c0.45,0.67,0.88,1.35,1.26,2.06
	c0.39,0.71,0.74,1.43,1.05,2.17s0.59,1.5,0.83,2.26c0.24,0.77,0.44,1.55,0.6,2.33c0.16,0.79,0.28,1.58,0.36,2.38
	c0.08,0.8,0.12,1.6,0.12,2.4s-0.04,1.6-0.12,2.4c-0.08,0.8-0.2,1.59-0.36,2.38s-0.36,1.56-0.6,2.33c-0.24,0.77-0.51,1.52-0.83,2.26
	s-0.66,1.47-1.05,2.17c-0.39,0.71-0.81,1.4-1.26,2.06c-0.46,0.67-0.94,1.31-1.46,1.93c-0.52,0.62-1.07,1.21-1.65,1.78
	s-1.19,1.11-1.82,1.61s-1.29,0.99-1.97,1.43c-0.68,0.45-1.38,0.86-2.1,1.24c-0.72,0.38-1.46,0.72-2.22,1.03
	c-0.76,0.31-1.53,0.58-2.31,0.81c-0.78,0.23-1.58,0.43-2.38,0.58c-0.8,0.16-1.61,0.27-2.43,0.35c-0.81,0.08-1.63,0.12-2.45,0.12
	s-1.64-0.04-2.45-0.12c-0.82-0.08-1.62-0.2-2.43-0.35c-0.8-0.16-1.6-0.35-2.38-0.58c-0.78-0.23-1.55-0.5-2.31-0.81
	c-0.76-0.31-1.5-0.65-2.22-1.03c-0.72-0.38-1.42-0.79-2.1-1.24c-0.68-0.45-1.34-0.92-1.97-1.43c-0.63-0.51-1.24-1.05-1.82-1.61
	s-1.13-1.16-1.65-1.78c-0.52-0.62-1.01-1.26-1.46-1.93s-0.88-1.35-1.26-2.06c-0.39-0.71-0.74-1.43-1.05-2.17s-0.59-1.5-0.83-2.26
	c-0.24-0.77-0.44-1.54-0.6-2.33c-0.16-0.79-0.28-1.58-0.36-2.38s-0.12-1.6-0.12-2.4s0.04-1.6,0.12-2.4c0.08-0.8,0.2-1.59,0.36-2.38
	c0.16-0.79,0.36-1.56,0.6-2.33c0.24-0.77,0.51-1.52,0.83-2.26s0.66-1.47,1.05-2.17c0.39-0.71,0.81-1.4,1.26-2.06
	c0.46-0.67,0.94-1.31,1.46-1.93s1.07-1.21,1.65-1.78s1.18-1.11,1.82-1.62c0.63-0.51,1.29-0.99,1.97-1.43s1.38-0.86,2.1-1.24
	c0.72-0.38,1.46-0.72,2.22-1.03c0.76-0.31,1.53-0.58,2.31-0.81c0.78-0.23,1.58-0.43,2.38-0.58c0.8-0.16,1.61-0.27,2.43-0.35
	C1137.36,379.1,1138.18,379.06,1139,379.06z"/>
<path class="st14" d="M1080,273.06c0.66,0,1.31,0.07,1.95,0.2c0.64,0.13,1.27,0.33,1.88,0.6s1.18,0.59,1.73,0.97
	c0.55,0.38,1.05,0.82,1.52,1.31c0.46,0.49,0.88,1.02,1.24,1.59c0.37,0.57,0.67,1.18,0.92,1.82c0.25,0.64,0.44,1.29,0.57,1.97
	c0.13,0.68,0.19,1.36,0.19,2.05c0,0.69-0.06,1.37-0.19,2.05c-0.13,0.68-0.32,1.33-0.57,1.97c-0.25,0.64-0.56,1.24-0.92,1.82
	c-0.36,0.57-0.78,1.1-1.24,1.59s-0.97,0.92-1.52,1.31s-1.12,0.71-1.73,0.97s-1.23,0.46-1.88,0.6c-0.64,0.13-1.29,0.2-1.95,0.2
	c-0.66,0-1.31-0.07-1.95-0.2c-0.64-0.13-1.27-0.33-1.88-0.6c-0.61-0.26-1.18-0.59-1.73-0.97s-1.05-0.82-1.52-1.31
	c-0.46-0.49-0.88-1.02-1.24-1.59s-0.67-1.18-0.92-1.82c-0.25-0.64-0.44-1.29-0.57-1.97c-0.13-0.68-0.19-1.36-0.19-2.05
	c0-0.69,0.06-1.37,0.19-2.05s0.32-1.33,0.57-1.97c0.25-0.64,0.56-1.24,0.92-1.82s0.78-1.1,1.24-1.59c0.46-0.49,0.97-0.92,1.52-1.31
	c0.55-0.38,1.12-0.71,1.73-0.97c0.61-0.26,1.23-0.46,1.88-0.6C1078.69,273.13,1079.34,273.06,1080,273.06z"/>
<path class="st1" d="M1163,261.06c1.13,0,2.26,0.03,3.39,0.08s2.25,0.14,3.38,0.25c1.12,0.11,2.24,0.25,3.36,0.41
	c1.12,0.17,2.23,0.36,3.34,0.58c1.11,0.22,2.21,0.47,3.3,0.74c1.1,0.27,2.18,0.58,3.26,0.9c1.08,0.33,2.15,0.68,3.22,1.06
	c1.06,0.38,2.12,0.79,3.16,1.22c1.04,0.43,2.08,0.89,3.1,1.37c1.02,0.48,2.03,0.99,3.02,1.52s1.98,1.09,2.95,1.67
	c0.97,0.58,1.92,1.18,2.86,1.81c0.94,0.63,1.86,1.28,2.77,1.95c0.91,0.67,1.8,1.37,2.67,2.08s1.73,1.45,2.56,2.21
	c0.84,0.76,1.65,1.54,2.45,2.34c0.8,0.8,1.58,1.62,2.33,2.45c0.76,0.84,1.5,1.69,2.21,2.56s1.41,1.76,2.08,2.67
	c0.67,0.91,1.32,1.83,1.95,2.77c0.63,0.94,1.23,1.89,1.81,2.86c0.58,0.97,1.14,1.95,1.67,2.95s1.04,2,1.52,3.02
	c0.48,1.02,0.94,2.05,1.37,3.1c0.43,1.04,0.84,2.1,1.22,3.16s0.73,2.14,1.06,3.22c0.33,1.08,0.63,2.17,0.9,3.26
	c0.27,1.1,0.52,2.2,0.74,3.3c0.22,1.11,0.41,2.22,0.58,3.34c0.17,1.12,0.3,2.24,0.42,3.36c0.11,1.12,0.19,2.25,0.25,3.38
	s0.08,2.26,0.08,3.39c0,1.13-0.03,2.26-0.08,3.39s-0.14,2.25-0.25,3.38c-0.11,1.12-0.25,2.24-0.41,3.36
	c-0.17,1.12-0.36,2.23-0.58,3.34c-0.22,1.11-0.47,2.21-0.74,3.3c-0.27,1.1-0.58,2.18-0.9,3.26c-0.33,1.08-0.68,2.15-1.06,3.22
	s-0.79,2.12-1.22,3.16c-0.43,1.04-0.89,2.08-1.37,3.1c-0.48,1.02-0.99,2.03-1.52,3.03s-1.09,1.98-1.67,2.95
	c-0.58,0.97-1.18,1.92-1.81,2.86c-0.63,0.94-1.28,1.86-1.95,2.77c-0.67,0.91-1.37,1.8-2.08,2.67s-1.45,1.73-2.21,2.56
	c-0.76,0.84-1.54,1.65-2.33,2.45c-0.8,0.8-1.62,1.58-2.45,2.33c-0.84,0.76-1.69,1.5-2.56,2.21c-0.87,0.72-1.76,1.41-2.67,2.08
	s-1.83,1.32-2.77,1.95c-0.94,0.63-1.89,1.23-2.86,1.81c-0.97,0.58-1.95,1.14-2.95,1.67s-2,1.04-3.02,1.52
	c-1.02,0.48-2.05,0.94-3.1,1.37c-1.04,0.43-2.1,0.84-3.16,1.22c-1.06,0.38-2.14,0.73-3.22,1.06c-1.08,0.33-2.17,0.63-3.26,0.9
	c-1.1,0.27-2.2,0.52-3.3,0.74c-1.11,0.22-2.22,0.41-3.34,0.58c-1.12,0.17-2.24,0.3-3.36,0.42c-1.12,0.11-2.25,0.19-3.38,0.25
	s-2.26,0.08-3.39,0.08s-2.26-0.03-3.39-0.08s-2.25-0.14-3.38-0.25c-1.12-0.11-2.24-0.25-3.36-0.42c-1.12-0.17-2.23-0.36-3.34-0.58
	c-1.11-0.22-2.21-0.47-3.3-0.74c-1.1-0.27-2.18-0.58-3.26-0.9c-1.08-0.33-2.15-0.68-3.22-1.06c-1.06-0.38-2.12-0.79-3.16-1.22
	c-1.04-0.43-2.08-0.89-3.1-1.37s-2.03-0.99-3.03-1.52s-1.98-1.09-2.95-1.67c-0.97-0.58-1.92-1.19-2.86-1.81
	c-0.94-0.63-1.86-1.28-2.77-1.95c-0.91-0.67-1.8-1.37-2.67-2.08c-0.87-0.72-1.73-1.45-2.56-2.21c-0.84-0.76-1.65-1.54-2.45-2.33
	c-0.8-0.8-1.58-1.62-2.33-2.45c-0.76-0.84-1.5-1.69-2.21-2.56c-0.72-0.87-1.41-1.76-2.08-2.67c-0.67-0.91-1.32-1.83-1.95-2.77
	c-0.63-0.94-1.23-1.89-1.81-2.86c-0.58-0.97-1.14-1.95-1.67-2.95s-1.04-2-1.52-3.03s-0.94-2.05-1.37-3.1
	c-0.43-1.04-0.84-2.1-1.22-3.16c-0.38-1.06-0.73-2.13-1.06-3.22c-0.33-1.08-0.63-2.17-0.9-3.26c-0.27-1.1-0.52-2.2-0.74-3.3
	c-0.22-1.11-0.41-2.22-0.58-3.34c-0.17-1.12-0.3-2.24-0.42-3.36c-0.11-1.12-0.19-2.25-0.25-3.38s-0.08-2.26-0.08-3.39
	c0-1.13,0.03-2.26,0.08-3.39s0.14-2.25,0.25-3.38c0.11-1.12,0.25-2.24,0.42-3.36s0.36-2.23,0.58-3.34c0.22-1.11,0.47-2.21,0.74-3.3
	c0.27-1.1,0.58-2.18,0.9-3.26c0.33-1.08,0.68-2.15,1.06-3.22c0.38-1.06,0.79-2.12,1.22-3.16c0.43-1.04,0.89-2.08,1.37-3.1
	s0.99-2.03,1.52-3.02s1.09-1.98,1.67-2.95c0.58-0.97,1.19-1.92,1.81-2.86s1.28-1.86,1.95-2.77s1.37-1.8,2.08-2.67
	c0.72-0.87,1.45-1.73,2.21-2.56c0.76-0.84,1.54-1.65,2.33-2.45c0.8-0.8,1.62-1.58,2.45-2.34c0.84-0.76,1.69-1.5,2.56-2.21
	c0.87-0.72,1.76-1.41,2.67-2.08c0.91-0.67,1.83-1.32,2.77-1.95c0.94-0.63,1.89-1.23,2.86-1.81c0.97-0.58,1.95-1.14,2.95-1.67
	s2-1.04,3.03-1.52s2.05-0.94,3.1-1.37c1.04-0.43,2.1-0.84,3.16-1.22c1.06-0.38,2.13-0.73,3.22-1.06c1.08-0.33,2.17-0.63,3.26-0.9
	c1.1-0.27,2.2-0.52,3.3-0.74s2.22-0.41,3.34-0.58s2.24-0.3,3.36-0.41c1.12-0.11,2.25-0.19,3.38-0.25S1161.87,261.06,1163,261.06z"/>
<path class="st15" d="M1171.21,425.18L1171.21,425.18c-0.55-1.65-0.63-3.28-0.22-4.9c0.41-1.62,1.15-3.05,2.23-4.3
	c1.08-1.25,2.36-2.15,3.83-2.71c0.55-0.21,1.17-0.31,1.84-0.3c0.67,0.01,1.09,0.29,1.26,0.83c0.05,0.36-0.09,0.7-0.42,1.03
	s-0.76,0.69-1.29,1.07c-0.76,0.53-1.51,1.19-2.25,1.97c-0.74,0.78-1.22,1.78-1.46,2.99c-0.31,2.25,0.19,4.13,1.5,5.63
	c1.31,1.5,3.1,2.24,5.38,2.22c1.15-0.06,2.29-0.39,3.44-0.99c1.14-0.59,2.09-1.38,2.86-2.37s1.14-2.08,1.14-3.29v-9.45v-6.09
	c0.01-0.83,0.18-1.44,0.51-1.82c0.33-0.38,0.71-0.55,1.14-0.53c0.43,0.02,0.82,0.2,1.16,0.55c0.34,0.34,0.51,0.8,0.51,1.36v4.33
	l0.02,10.74c0.05,2.16-0.47,4.16-1.56,6c-1.2,1.9-2.72,3.27-4.57,4.12c-1.85,0.85-3.77,1.19-5.78,1.01c-2-0.18-3.84-0.86-5.5-2.05
	C1173.3,429.04,1172.05,427.36,1171.21,425.18z M1197.78,406.08L1197.78,406.08c0.04,1.66,0.02,3.79-0.08,6.39s-0.25,4.71-0.47,6.32
	c-0.2,1.23-0.48,2.16-0.85,2.77c-0.37,0.62-0.72,0.77-1.05,0.46c-0.33-0.31-0.54-1.23-0.62-2.78l-0.25-12.07
	c0.03-1.19,0.31-1.98,0.84-2.38c0.53-0.4,1.06-0.47,1.59-0.22C1197.42,404.83,1197.71,405.33,1197.78,406.08z M1209.53,418.51
	c0.29,0,0.58,0.07,0.86,0.22c0.28,0.16,0.5,0.38,0.67,0.67c0.16,0.29,0.24,0.58,0.24,0.88c0,0.31-0.08,0.61-0.23,0.89
	c-0.16,0.28-0.38,0.5-0.66,0.66c-0.28,0.16-0.57,0.23-0.88,0.23h-1.88c-0.63,1.82-1.84,3.22-3.63,4.23c-0.57,0.31-1.2,0.55-1.86,0.7
	c-0.67,0.16-1.33,0.19-1.97,0.11c-0.26-0.03-0.56-0.12-0.9-0.27c-0.34-0.15-0.55-0.37-0.62-0.66c-0.01-0.24,0.11-0.46,0.36-0.65
	c0.25-0.19,0.53-0.35,0.85-0.49c0.31-0.13,0.56-0.22,0.75-0.27c1.53-0.48,2.66-1.39,3.38-2.74c-1-0.01-1.92-0.3-2.75-0.86
	c-0.83-0.56-1.39-1.37-1.67-2.41c-0.2-0.79-0.16-1.59,0.13-2.4c0.28-0.81,0.77-1.5,1.46-2.08s1.55-0.92,2.58-1.01
	c1.54-0.08,2.73,0.37,3.57,1.35c0.68,0.87,1.02,1.84,1.03,2.93c0.01,0.31,0.01,0.63,0,0.96L1209.53,418.51z M1204.49,419.51
	L1204.49,419.51c0.73-0.05,1.18-0.34,1.36-0.86s0.09-1.03-0.26-1.53c-0.35-0.5-0.95-0.74-1.79-0.73c-0.43,0.03-0.78,0.2-1.06,0.52
	c-0.28,0.31-0.4,0.72-0.34,1.22c0.07,0.39,0.32,0.71,0.73,0.98C1203.53,419.38,1203.99,419.51,1204.49,419.51z M1209.53,418.51
	c0.3,0,0.59,0.08,0.88,0.23c0.28,0.15,0.5,0.37,0.67,0.66c0.16,0.29,0.24,0.58,0.24,0.88c0,0.31-0.08,0.61-0.24,0.89
	c-0.16,0.28-0.38,0.5-0.66,0.66c-0.28,0.16-0.58,0.23-0.89,0.23c-0.3,0-0.59-0.08-0.88-0.23c-0.28-0.16-0.5-0.38-0.66-0.66
	c-0.16-0.28-0.23-0.58-0.23-0.89c0-0.3,0.08-0.6,0.23-0.88c0.16-0.29,0.38-0.51,0.66-0.66S1209.23,418.51,1209.53,418.51z
	 M1225.9,418.98c-0.45,0.91-0.92,1.6-1.41,2.08c-0.72,0.7-1.59,1.04-2.61,1.01c-1.02-0.03-1.95-0.44-2.77-1.23
	c-0.43,0.62-0.97,1-1.63,1.16s-1.31,0.1-1.95-0.18c-0.64-0.28-1.15-0.74-1.53-1.4c-0.77,0.77-1.54,1.25-2.3,1.45
	s-1.49,0.26-2.17,0.2v-3.55c0.82,0.01,1.42-0.11,1.78-0.35c0.36-0.25,0.59-0.56,0.7-0.96c0.11-0.39,0.18-0.81,0.21-1.24
	c0.02-0.42,0.08-0.81,0.18-1.17c0.1-0.36,0.31-0.64,0.63-0.85c0.44-0.25,0.89-0.31,1.35-0.19c0.46,0.13,0.79,0.43,0.98,0.92
	c0.14,0.44,0.2,0.93,0.2,1.49c0,0.42,0.04,0.83,0.11,1.25c0.18,0.88,0.44,1.24,0.78,1.08s0.66-0.58,0.95-1.26
	c0.29-0.68,0.45-1.37,0.48-2.04c0.05-0.72,0.3-1.22,0.76-1.51s0.93-0.28,1.42,0.02c0.49,0.3,0.8,0.97,0.92,2.03l0.03,1.11
	c0.03,1.16,0.2,1.7,0.52,1.64c0.31-0.07,0.67-0.59,1.06-1.57c0.26-0.65,0.38-1.35,0.36-2.1c0.01-0.95,0.23-1.63,0.67-2.05
	c0.43-0.42,0.92-0.55,1.46-0.39c0.54,0.16,0.96,0.62,1.26,1.38c0.29,0.83,0.38,1.72,0.27,2.65S1226.27,418.18,1225.9,418.98z"/>
<path class="st0" d="M285.05,97.77c1.98,0,3.9,0.5,5.75,1.49c1.85,0.99,3.3,2.43,4.36,4.31c1.06,1.88,1.59,3.81,1.59,5.8
	c0,2.05-0.51,4-1.54,5.85c-1.03,1.85-2.46,3.28-4.31,4.31c-1.85,1.03-3.8,1.54-5.85,1.54h-1.23c-3.63,0-7.8-0.55-12.52-1.64
	c-5.2-1.16-9.95-3.45-14.26-6.88c-4.31-3.42-7.05-8.38-8.21-14.88c-6.77,7.87-16.52,13.66-29.24,17.39
	c-12.72,3.73-26,5.66-39.81,5.8c-13.82,0.14-25.69-1.27-35.61-4.21c-5.47-1.71-10.54-3.76-15.19-6.16
	c-8.76-4.45-15.53-9.88-20.32-16.32c-4.79-6.43-7.01-13.17-6.67-20.21c0.75-8.41,3.92-15.32,9.49-20.73
	c5.57-5.4,12.47-9.56,20.68-12.47c8.21-2.91,16.62-4.77,25.24-5.59c8.62-0.82,16.35-0.85,23.19-0.1c6.22,0.75,10.98,1.76,14.26,3.03
	c3.28,1.27,3.73,2.55,1.33,3.85c-2.4,1.3-9.03,2.43-19.91,3.39c-20.66,2.05-35.3,5.69-43.92,10.93s-12.42,10.93-11.39,17.08
	c1.03,6.16,5.64,11.59,13.85,16.31c5.88,3.22,13.9,5.51,24.06,6.88c10.16,1.37,20.9,1.68,32.22,0.92
	c11.32-0.75,21.65-2.7,30.99-5.85c9.34-3.15,16.09-7.63,20.27-13.44c1.98-3.42,3.04-6.94,3.18-10.57c0.21-1.37,0.41-2.67,0.62-3.9
	c0.96-3.83,2.77-6.46,5.44-7.9c2.67-1.44,5.3-1.13,7.9,0.92c2.6,2.05,4.24,6.33,4.93,12.83c0.14,1.3,0.31,2.63,0.51,4
	c0.75,4.38,1.83,8.38,3.23,12c1.4,3.63,3.5,6.57,6.31,8.82C277.29,96.64,280.81,97.77,285.05,97.77z M181.21,131.84L181.21,131.84
	c5.06-1.37,9.71-0.96,13.95,1.23c4.24,2.19,6.98,5.34,8.21,9.44c1.03,5.13,0.08,9.37-2.82,12.72c-2.91,3.35-6.14,5.47-9.7,6.36
	c-7.05,1.3-12.6-0.04-16.67-4c-4.07-3.97-5.75-8.59-5.03-13.85C169.88,138.47,173.89,134.5,181.21,131.84z M339.23,97.87
	c0.48-0.07,0.99-0.1,1.54-0.1c1.98,0,3.9,0.5,5.75,1.49c1.85,0.99,3.3,2.43,4.36,4.31c1.06,1.88,1.59,3.81,1.59,5.8
	c0,2.05-0.51,4-1.54,5.85c-1.03,1.85-2.46,3.28-4.31,4.31c-1.85,1.03-3.8,1.54-5.85,1.54h-55v-0.1c-0.48,0.07-0.96,0.1-1.44,0.1
	c-1.98,0-3.9-0.51-5.75-1.54c-1.85-1.03-3.28-2.46-4.31-4.31c-1.03-1.85-1.54-3.8-1.54-5.85c0-1.98,0.51-3.92,1.54-5.8
	c1.03-1.88,2.46-3.32,4.31-4.31c1.85-0.99,3.76-1.49,5.75-1.49c0.55,0,1.06,0.04,1.54,0.1H339.23z"/>
<path class="st0" d="M346.52,119.52c-1.85,1.03-3.8,1.54-5.85,1.54c-1.98,0-3.9-0.51-5.75-1.54c-1.85-1.03-3.28-2.46-4.31-4.31
	c-1.03-1.85-1.54-3.8-1.54-5.85c0-1.98,0.51-3.92,1.54-5.8c1.03-1.88,2.46-3.32,4.31-4.31c1.85-0.99,3.76-1.49,5.75-1.49
	c4.17-0.07,7.17-1.35,8.98-3.85c1.81-2.5,3.27-5.45,4.36-8.88c0.55-1.5,1.09-2.98,1.64-4.41c1.09-3.21,2.57-6.22,4.41-9.03
	c3.35-4.79,7.59-8.58,12.72-11.39c5.13-2.8,10.88-4.24,17.24-4.31c11.15,0.27,19.79,3.59,25.91,9.95
	c6.12,6.36,9.63,13.89,10.52,22.57c0.55,2.81,1.74,5.06,3.59,6.77c1.71,1.71,4.48,2.57,8.31,2.57h0.41c1.91,0,3.8,0.48,5.64,1.44
	c1.85,1.03,3.3,2.48,4.36,4.36c1.06,1.88,1.59,3.81,1.59,5.8c0,2.05-0.51,4-1.54,5.85c-1.03,1.85-2.46,3.28-4.31,4.31
	c-1.85,1.03-3.76,1.54-5.75,1.54c-7.87,0.14-14.5-1.61-19.91-5.23c-7.32,8.07-16.45,12.23-27.4,12.47
	c-10.95,0.24-20.35-3.27-28.22-10.52c-1.85-1.85-3.42-3.83-4.72-5.95C355.1,115.32,351.1,117.88,346.52,119.52z M391.97,79.92
	L391.97,79.92c-4.58-0.62-8.43-0.07-11.54,1.64c-3.11,1.71-5.11,3.63-6,5.75c-0.82,2.33-0.67,5.05,0.46,8.16
	c1.13,3.11,2.99,5.76,5.59,7.95c3.21,2.53,6.82,3.78,10.83,3.75c4-0.03,7.44-1.59,10.31-4.67c3.08-3.69,4.07-7.97,2.98-12.83
	C403.5,84.81,399.29,81.56,391.97,79.92z"/>
<path class="st0" d="M492.94,97.87c0.48-0.07,0.99-0.1,1.54-0.1c1.98,0,3.9,0.5,5.75,1.49c1.85,0.99,3.3,2.43,4.36,4.31
	c1.06,1.88,1.59,3.81,1.59,5.8c0,2.05-0.51,4-1.54,5.85c-1.03,1.85-2.46,3.28-4.31,4.31c-1.85,1.03-3.8,1.54-5.85,1.54h-55v-0.1
	c-0.48,0.07-0.96,0.1-1.44,0.1c-1.98,0-3.9-0.51-5.75-1.54c-1.85-1.03-3.28-2.46-4.31-4.31c-1.03-1.85-1.54-3.8-1.54-5.85
	c0-1.98,0.51-3.92,1.54-5.8c1.03-1.88,2.46-3.32,4.31-4.31c1.85-0.99,3.76-1.49,5.75-1.49c0.55,0,1.06,0.04,1.54,0.1H492.94z"/>
<path class="st0" d="M494.17,97.77c1.98,0,3.9,0.5,5.75,1.49c1.85,0.99,3.3,2.43,4.36,4.31c1.06,1.88,1.59,3.81,1.59,5.8
	c0,2.05-0.51,4-1.54,5.85c-1.03,1.85-2.46,3.28-4.31,4.31c-1.85,1.03-3.8,1.54-5.85,1.54c-1.98,0-3.92-0.51-5.8-1.54
	c-1.88-1.03-3.32-2.46-4.31-4.31c-0.99-1.85-1.49-3.8-1.49-5.85c0-1.98,0.51-3.92,1.54-5.8c1.03-1.88,2.46-3.32,4.31-4.31
	C490.27,98.27,492.19,97.77,494.17,97.77z M494.27,97.77h15.8c7.18-0.62,12.19-3.92,15.03-9.9c2.84-5.98,3.4-12.12,1.69-18.42
	c-2.05-7.32-2.36-12.31-0.92-14.98c1.44-2.67,3.68-3.45,6.72-2.36c3.04,1.1,5.95,3.61,8.72,7.54c2.77,3.93,4.5,8.88,5.18,14.83
	c0.75,7.66-0.1,14.9-2.56,21.7c-2.46,6.81-6.6,12.47-12.42,16.98c-5.61,4.38-12.93,7.01-21.96,7.9c-9.92,0-15.02,0-15.29,0V97.77z
	 M513.46,131.84L513.46,131.84c5.06-1.37,9.71-0.96,13.95,1.23c4.24,2.19,6.98,5.34,8.21,9.44c1.03,5.13,0.08,9.37-2.82,12.72
	c-2.91,3.35-6.14,5.47-9.7,6.36c-7.05,1.3-12.6-0.04-16.67-4c-4.07-3.97-5.75-8.59-5.03-13.85
	C502.12,138.47,506.14,134.5,513.46,131.84z"/>
<path class="st0" d="M130.38,200.59L130.38,200.59c0.18,7,0.07,16-0.33,27c-0.4,10.99-1.06,19.88-1.98,26.67
	c-0.84,5.2-2.04,9.1-3.6,11.7c-1.56,2.6-3.04,3.25-4.43,1.95c-1.39-1.3-2.26-5.21-2.61-11.73l-1.06-50.95
	c0.13-5.02,1.31-8.37,3.54-10.04c2.22-1.67,4.46-1.98,6.71-0.93C128.86,195.3,130.12,197.41,130.38,200.59z M180.01,253.06
	c1.23,0,2.45,0.31,3.63,0.93c1.19,0.66,2.13,1.6,2.81,2.81c0.68,1.21,1.02,2.46,1.02,3.73c0,1.32-0.33,2.58-0.99,3.77
	c-0.66,1.19-1.59,2.11-2.78,2.78s-2.42,0.99-3.7,0.99h-7.93c-2.64,7.67-7.75,13.61-15.33,17.84c-2.42,1.32-5.05,2.31-7.86,2.97
	c-2.82,0.66-5.6,0.81-8.33,0.46c-1.1-0.13-2.37-0.51-3.8-1.12c-1.43-0.62-2.3-1.54-2.61-2.78c-0.04-1.01,0.46-1.93,1.52-2.74
	c1.06-0.82,2.25-1.5,3.57-2.05c1.32-0.55,2.38-0.94,3.17-1.16c6.48-2.03,11.23-5.88,14.27-11.56c-4.23-0.04-8.11-1.26-11.63-3.63
	c-3.53-2.38-5.88-5.77-7.07-10.18c-0.84-3.35-0.66-6.73,0.53-10.14c1.19-3.41,3.24-6.34,6.15-8.79c2.91-2.45,6.54-3.87,10.9-4.26
	c6.52-0.35,11.54,1.54,15.07,5.68c2.86,3.66,4.32,7.78,4.36,12.36c0.04,1.32,0.04,2.67,0,4.03L180.01,253.06z M158.73,257.29
	L158.73,257.29c3.08-0.22,5-1.43,5.75-3.63c0.75-2.2,0.39-4.35-1.09-6.44c-1.48-2.09-4-3.12-7.57-3.07
	c-1.81,0.13-3.3,0.86-4.49,2.18c-1.19,1.32-1.68,3.04-1.45,5.15c0.31,1.63,1.33,3.01,3.07,4.13
	C154.69,256.73,156.62,257.29,158.73,257.29z M214.9,253.13c0.31-0.04,0.64-0.07,0.99-0.07c1.28,0,2.51,0.32,3.7,0.96
	c1.19,0.64,2.13,1.56,2.81,2.78c0.68,1.21,1.02,2.46,1.02,3.73c0,1.32-0.33,2.58-0.99,3.77c-0.66,1.19-1.59,2.11-2.78,2.78
	s-2.45,0.99-3.77,0.99h-35.42V268c-0.31,0.04-0.62,0.07-0.93,0.07c-1.28,0-2.51-0.33-3.7-0.99c-1.19-0.66-2.11-1.59-2.78-2.78
	c-0.66-1.19-0.99-2.45-0.99-3.77c0-1.28,0.33-2.52,0.99-3.73c0.66-1.21,1.59-2.14,2.78-2.78c1.19-0.64,2.42-0.96,3.7-0.96
	c0.35,0,0.68,0.02,0.99,0.07H214.9z M260.84,253.06c1.28,0,2.51,0.32,3.7,0.96c1.19,0.64,2.13,1.56,2.81,2.78
	c0.68,1.21,1.02,2.46,1.02,3.73c0,1.32-0.33,2.58-0.99,3.77c-0.66,1.19-1.59,2.11-2.78,2.78s-2.45,0.99-3.77,0.99
	c-1.54,0.04-3.06,0.04-4.56,0c-4.67,0.09-9.27-0.76-13.81-2.54c-4.54-1.78-8.02-4.75-10.44-8.89c-1.37,3.44-3.5,6.19-6.41,8.26
	c-2.69,1.89-5.64,2.93-8.86,3.11c-0.22,0.04-0.46,0.07-0.73,0.07h-0.2c-1.19-0.04-2.36-0.37-3.5-0.99
	c-1.19-0.66-2.11-1.59-2.78-2.78c-0.66-1.19-0.99-2.45-0.99-3.77c0-1.28,0.33-2.52,0.99-3.73c0.66-1.21,1.61-2.15,2.84-2.81
	c1.15-0.57,2.29-0.88,3.44-0.93h0.4c3.08,0,5.4-0.46,6.94-1.39c1.54-0.92,2.64-2.07,3.3-3.44c0.62-1.28,0.98-2.71,1.09-4.3
	c0.11-1.59,0.12-3.28,0.03-5.09c-0.13-2.51-0.04-5.07,0.26-7.67c0.44-2.51,1.53-4.23,3.27-5.15c1.74-0.93,3.47-0.73,5.19,0.59
	s2.8,4.08,3.24,8.26c0.09,0.88,0.22,1.74,0.4,2.58c0.18,1.19,0.33,2.34,0.46,3.44c0.44,2.07,1.4,4.02,2.88,5.85
	c1.48,1.83,3.61,3.34,6.41,4.53C252.5,252.47,256.21,253.06,260.84,253.06z M239.09,203.63L239.09,203.63
	c4.93,0.49,8.56,1.37,10.87,2.64c2.31,1.28,2.84,2.58,1.59,3.9c-1.26,1.32-4.79,2.31-10.61,2.97c-3.04,0.4-6.82,0.84-11.33,1.32
	c-4.52,0.49-8.58,0.73-12.19,0.73c-0.35,0-0.73,0-1.12,0c-1.98,0.04-3.58-0.15-4.79-0.59c-1.21-0.44-1.82-1.67-1.82-3.7
	c0.22-2.51,1.53-4.32,3.93-5.42c2.4-1.1,5.23-1.75,8.49-1.95c3.26-0.2,6.23-0.27,8.92-0.23c0.84,0.04,1.59,0.07,2.25,0.07
	c0.26,0,0.55,0,0.86,0c1.63-0.04,2.4-0.05,2.31-0.03C236.36,203.35,237.24,203.45,239.09,203.63z M260.77,268.06
	c-1.32,0-2.58-0.33-3.77-0.99s-2.1-1.59-2.74-2.78c-0.64-1.19-0.96-2.45-0.96-3.77c0-1.28,0.33-2.52,0.99-3.73
	c0.66-1.21,1.59-2.14,2.78-2.78c1.19-0.64,2.42-0.96,3.7-0.96h3.7c4.05,0.04,8.35-0.13,12.89-0.53c4.54-0.4,8.98-1.43,13.32-3.11
	c4.34-1.67,8.23-4.41,11.66-8.19c-1.76-0.97-3.55-2.07-5.35-3.3c-3.13-2.25-6.37-3.96-9.71-5.15c-3.17-0.84-5.41-0.86-6.71-0.07
	c-1.3,0.79-2.24,1.94-2.81,3.44c-1.5,2.78-2.99,4.33-4.46,4.66c-1.48,0.33-2.72-0.18-3.73-1.52c-1.01-1.34-1.56-3.12-1.65-5.32
	c-0.04-3.04,1.18-5.94,3.67-8.69c2.49-2.75,6.18-4.47,11.07-5.16c4.89-0.68,10.93,0.63,18.11,3.93l3.17,1.52
	c3.22,1.76,6.42,3.1,9.62,4c3.19,0.9,7.54,1.18,13.05,0.83c1.54-0.13,3.13-0.42,4.76-0.86c1.59-0.44,3.18-0.75,4.79-0.93
	c1.61-0.18,3.18,0.09,4.73,0.79c1.81,0.93,3.12,2.38,3.93,4.36c0.81,1.98,0.56,4.05-0.76,6.21c-1.9,2.6-4.1,4.24-6.61,4.92
	c-2.51,0.68-5.13,1.05-7.86,1.09c-0.62,0-1.23,0.02-1.85,0.07c0.44,1.72,1.42,3.28,2.94,4.69c1.52,1.41,3.76,2.18,6.71,2.31h7.73
	c1.19,0.04,2.36,0.35,3.5,0.93c1.19,0.66,2.13,1.6,2.81,2.81c0.68,1.21,1.02,2.46,1.02,3.73c0,1.32-0.33,2.58-0.99,3.77
	c-0.66,1.19-1.59,2.11-2.78,2.78s-2.45,0.99-3.77,0.99h-8.46c-0.79,0-1.59-0.01-2.38-0.03c-0.79-0.02-1.48-0.05-2.05-0.1
	c-3.88-0.35-7.35-1.46-10.41-3.34c-3.06-1.87-5.72-4.79-7.96-8.76c0-0.04-0.11-0.31-0.33-0.79c-0.22-0.48-0.51-1.1-0.86-1.85
	c-0.18-0.35-0.35-0.73-0.53-1.12c-1.41,0.79-2.82,1.56-4.23,2.31c-3.04,1.76-6.1,3.46-9.19,5.09c-4.89,2.64-9.87,4.74-14.94,6.28
	c-5.07,1.54-10.33,2.31-15.79,2.31H260.77z M344.96,253.06h1.06c2.16-0.13,3.76-0.95,4.79-2.45c1.03-1.5,1.91-3.35,2.61-5.55
	c0.4-1.01,0.81-2.03,1.26-3.04c0.66-2.07,1.61-4.01,2.84-5.82c2.11-3.08,4.82-5.53,8.13-7.34c3.3-1.81,7.01-2.73,11.1-2.78
	c5.51,0.09,10.06,1.39,13.65,3.9c3.59,2.51,6.21,5.71,7.86,9.58c1.65,3.88,2.32,7.93,2.02,12.16c-0.79,7.45-3.65,12.9-8.56,16.36
	c-4.91,3.46-10.42,4.99-16.52,4.59c-6.1-0.4-11.33-2.64-15.7-6.74c-1.15-1.19-2.14-2.47-2.97-3.83c-2.25,2.29-4.87,3.97-7.86,5.02
	c-1.19,0.62-2.42,0.93-3.7,0.93s-2.51-0.33-3.7-0.99c-1.19-0.66-2.11-1.59-2.78-2.78c-0.66-1.19-0.99-2.45-0.99-3.77
	c0-1.28,0.33-2.52,0.99-3.73c0.66-1.21,1.59-2.14,2.78-2.78C342.45,253.38,343.69,253.06,344.96,253.06z M378.01,241.56
	L378.01,241.56c-2.91-0.4-5.36-0.04-7.37,1.06c-2.01,1.1-3.29,2.34-3.87,3.7c-0.57,1.5-0.5,3.25,0.23,5.25
	c0.73,2.01,1.93,3.71,3.6,5.12c2.07,1.63,4.4,2.44,6.97,2.41c2.58-0.02,4.79-1.02,6.64-3.01c2.03-2.38,2.68-5.13,1.95-8.26
	C385.44,244.71,382.72,242.62,378.01,241.56z"/>
<path class="st16" d="M156.53,405.01c0.91,0,1.79,0.23,2.63,0.68c0.88,0.49,1.57,1.18,2.07,2.07c0.5,0.89,0.75,1.81,0.75,2.75
	c0,0.97-0.24,1.9-0.73,2.78c-0.49,0.88-1.17,1.56-2.05,2.04c-0.84,0.46-1.74,0.7-2.68,0.73h-2.44c2.6,4.48,3.28,8.31,2.05,11.49
	c-1.23,3.18-3.6,5.75-7.11,7.69c-3.51,1.95-7.39,3.31-11.64,4.09c-4.87,0.97-9.77,1.07-14.71,0.29c-5.29-0.84-10.02-2.82-14.17-5.94
	c-4.16-3.12-7.13-7.37-8.91-12.76c-1.4-4.19-1.54-8.59-0.44-13.2c1.1-3.86,3.06-7.21,5.87-10.06c2.81-2.84,5.92-5.1,9.35-6.77
	c3.42-1.67,6.63-2.7,9.62-3.09c3.28-0.36,5.38-0.06,6.31,0.9c0.93,0.96-0.17,2.33-3.29,4.12c-0.84,0.45-1.67,0.89-2.48,1.31
	c-2.4,1.17-4.68,2.49-6.84,3.97c-2.16,1.48-4.1,3.51-5.82,6.11c-2.31,3.8-3.2,7.48-2.68,11.05c0.52,3.57,2.08,6.62,4.67,9.16
	c3.6,3.34,7.94,5.28,13.03,5.82c5.08,0.54,9.84-0.11,14.29-1.92c3.96-1.69,6.34-3.51,7.13-5.45c0.79-1.95,0.19-3.6-1.83-4.94
	c-2.01-1.35-5.28-1.97-9.79-1.88c-0.88,0.06-1.8,0.18-2.78,0.34c-1.66,0.32-3.21,0.41-4.67,0.24c-2.08-0.42-3.38-1.56-3.9-3.41
	c-0.52-1.85,0.17-3.65,2.07-5.41s5.4-2.68,10.49-2.78L156.53,405.01z M156.53,416.06c-0.94,0-1.85-0.24-2.73-0.73
	c-0.88-0.49-1.56-1.17-2.04-2.04c-0.49-0.88-0.73-1.8-0.73-2.78c0-0.94,0.24-1.86,0.73-2.75c0.49-0.89,1.17-1.57,2.04-2.04
	s1.79-0.71,2.73-0.71c1.72,0,3.46-0.07,5.23-0.2c1.77-0.13,3.09-0.52,3.97-1.17c-2.34-1.56-3.9-3.7-4.67-6.43
	c-0.78-2.73-0.8-5.5-0.07-8.33s2.18-5.16,4.36-7.01c3.86-2.95,7.77-4.26,11.71-3.92s7.25,1.81,9.91,4.41
	c2.66,2.6,4.06,5.79,4.19,9.59c0.13,3.8-1.69,7.65-5.45,11.54c0.68,0.68,1.61,1.1,2.78,1.27s2.4,0.24,3.7,0.24h1.7
	c0.88,0.03,1.72,0.26,2.53,0.68c0.88,0.49,1.57,1.18,2.07,2.07c0.5,0.89,0.75,1.81,0.75,2.75c0,0.97-0.24,1.9-0.73,2.78
	c-0.49,0.88-1.17,1.56-2.04,2.04c-0.81,0.46-1.67,0.7-2.58,0.73h-8.62c-2.4,0-4.48-0.54-6.23-1.61c-1.75-1.07-3.05-2.39-3.9-3.94
	c-1.1,2.14-3,3.6-5.7,4.38c-2.69,0.78-5.49,1.17-8.38,1.17H156.53z M173.14,357.58L173.14,357.58c2.4-0.65,4.61-0.46,6.62,0.56
	c2.01,1.02,3.31,2.53,3.9,4.5c0.49,2.4,0.04,4.4-1.34,5.99c-1.38,1.59-2.91,2.6-4.6,3.02c-3.34,0.65-5.98,0.02-7.91-1.88
	c-1.93-1.9-2.73-4.1-2.39-6.6C167.75,360.68,169.66,358.81,173.14,357.58z M178.98,394.15L178.98,394.15
	c1.17-2.56,1.13-4.3-0.12-5.21c-1.25-0.91-2.78-1.05-4.58-0.41s-2.93,1.99-3.38,4.07c-0.32,2.56-0.01,4.25,0.95,5.06
	c0.96,0.81,2.13,0.89,3.53,0.22C176.77,397.21,177.97,395.97,178.98,394.15z M206.83,424.34L206.83,424.34
	c3.64,0.36,6.31,1.01,8.01,1.95c1.7,0.94,2.09,1.9,1.17,2.87c-0.93,0.97-3.53,1.7-7.82,2.19c-2.24,0.29-5.02,0.62-8.35,0.97
	c-3.33,0.36-6.32,0.54-8.98,0.54c-0.26,0-0.54,0-0.83,0c-1.46,0.03-2.64-0.11-3.53-0.44c-0.89-0.32-1.34-1.23-1.34-2.73
	c0.16-1.85,1.13-3.18,2.9-3.99c1.77-0.81,3.86-1.29,6.26-1.44s4.59-0.2,6.57-0.17c0.62,0.03,1.17,0.05,1.66,0.05
	c0.19,0,0.41,0,0.63,0c1.2-0.03,1.77-0.04,1.7-0.03C204.82,424.14,205.47,424.21,206.83,424.34z M227.04,405.01
	c0.94,0,1.85,0.24,2.73,0.71c0.88,0.47,1.57,1.15,2.07,2.04c0.5,0.89,0.75,1.81,0.75,2.75c0,0.97-0.24,1.9-0.73,2.78
	c-0.49,0.88-1.17,1.56-2.05,2.04c-0.88,0.49-1.8,0.73-2.78,0.73c-1.14,0.03-2.26,0.03-3.36,0c-3.44,0.06-6.83-0.56-10.18-1.88
	c-3.34-1.31-5.91-3.5-7.69-6.55c-1.01,2.53-2.58,4.56-4.72,6.09c-1.98,1.4-4.16,2.16-6.52,2.29c-0.16,0.03-0.34,0.05-0.54,0.05
	h-0.15c-0.88-0.03-1.74-0.28-2.58-0.73c-0.88-0.49-1.56-1.17-2.05-2.04c-0.49-0.88-0.73-1.8-0.73-2.78c0-0.94,0.24-1.86,0.73-2.75
	c0.49-0.89,1.19-1.58,2.09-2.07c0.84-0.42,1.69-0.65,2.53-0.68h0.29c2.27,0,3.98-0.34,5.11-1.02c1.14-0.68,1.95-1.53,2.44-2.53
	c0.45-0.94,0.72-2,0.8-3.17c0.08-1.17,0.09-2.42,0.02-3.75c-0.1-1.85-0.03-3.73,0.19-5.65c0.32-1.85,1.13-3.12,2.41-3.8
	c1.28-0.68,2.56-0.54,3.82,0.44s2.06,3,2.39,6.09c0.06,0.65,0.16,1.28,0.29,1.9c0.13,0.88,0.24,1.72,0.34,2.53
	c0.32,1.53,1.03,2.96,2.12,4.31c1.09,1.35,2.66,2.46,4.72,3.33C220.9,404.57,223.63,405.01,227.04,405.01z M227.04,416.06
	c-0.94,0-1.85-0.24-2.73-0.73c-0.88-0.49-1.56-1.17-2.05-2.04c-0.49-0.88-0.73-1.8-0.73-2.78c0-0.94,0.24-1.86,0.73-2.75
	c0.49-0.89,1.17-1.57,2.05-2.04s1.79-0.71,2.73-0.71c2.82,0,5.18-0.31,7.06-0.93c1.92-0.62,3.46-1.44,4.63-2.48
	c2.05-1.82,3.15-4.15,3.31-7.01v-0.54l-0.39-25.86c0.1-3.47,0.97-5.68,2.63-6.62c1.66-0.94,3.31-0.91,4.97,0.1
	c1.69,1.04,2.6,2.76,2.73,5.16l0.19,20.35c0.13,5.97-0.52,11.12-1.95,15.44c-1.43,4.29-3.99,7.6-7.69,9.93
	c-3.67,2.3-8.81,3.47-15.44,3.51H227.04z M276.03,405.01h0.58c3.41-0.29,5.79-1.86,7.13-4.7c1.35-2.84,1.61-5.75,0.8-8.74
	c-0.97-3.47-1.12-5.84-0.44-7.11s1.74-1.65,3.19-1.14c1.44,0.5,2.82,1.7,4.14,3.58c1.31,1.88,2.13,4.22,2.46,7.01
	c0.36,3.6-0.03,7.02-1.17,10.25c-1.14,3.23-3.06,5.92-5.77,8.06c-2.71,2.14-6.27,3.42-10.69,3.85h-0.05h-0.1h-0.19h-2.34
	c-4.29,0-7.6-0.79-9.93-2.39s-4.01-3.72-5.02-6.38c-1.01-2.66-1.61-5.66-1.8-9.01s-0.24-6.82-0.15-10.42c0-0.23,0-0.47,0-0.73
	l0.19-20.31c0.13-2.4,1.03-4.11,2.7-5.14c1.67-1.02,3.34-1.06,4.99-0.12s2.53,3.17,2.63,6.67l-0.44,28.78
	c0.19,3.12,1.06,5.24,2.6,6.35c1.54,1.12,3.38,1.66,5.53,1.63H276.03z M291.22,370.58L291.22,370.58c3.64,0.39,6.31,1.05,8.03,2
	c1.72,0.94,2.11,1.9,1.17,2.87c-0.94,0.97-3.55,1.69-7.84,2.14c-2.24,0.29-5.02,0.63-8.33,1c-3.31,0.37-6.3,0.54-8.96,0.51
	c-0.29,0-0.57,0-0.83,0c-1.46,0.07-2.65-0.07-3.55-0.41c-0.91-0.34-1.35-1.24-1.31-2.7c0.13-1.88,1.09-3.22,2.87-4.02
	c1.79-0.79,3.88-1.27,6.28-1.44c2.4-0.16,4.59-0.21,6.57-0.15c0.58,0,1.12,0,1.61,0c0.23,0,0.45,0,0.68,0c1.2,0,1.76,0.01,1.68,0.02
	C289.22,370.43,289.86,370.48,291.22,370.58z"/>
<path class="st16" d="M121.61,520.16c0.03,0.2,0.06,0.41,0.11,0.61c0.54,3.32,0.59,6.66,0.17,10.02c-0.42,3.37-1.45,6.47-3.1,9.3
	c-1.65,2.83-4.05,5.1-7.21,6.81c-1.4,0.74-2.91,1.31-4.53,1.7s-3.23,0.48-4.84,0.25c-0.64-0.08-1.37-0.29-2.2-0.65
	c-0.83-0.36-1.32-0.88-1.47-1.57c-0.05-0.61,0.23-1.16,0.84-1.63s1.31-0.87,2.09-1.19c0.78-0.32,1.38-0.53,1.82-0.63
	c2.55-0.76,4.62-2.05,6.22-3.84c1.59-1.8,2.82-3.93,3.69-6.41c0.69-2.24,0.88-4.54,0.57-6.89c-0.08-0.92-0.18-1.84-0.31-2.75
	c-0.15-1.1-0.27-2.21-0.34-3.33c-0.08-0.64-0.08-1.33-0.02-2.07c0.06-0.74,0.27-1.39,0.63-1.95c0.36-0.48,0.82-0.83,1.38-1.03
	s1.13-0.33,1.72-0.38c0.59-0.05,1.18-0.03,1.78,0.08c0.6,0.1,1.12,0.38,1.55,0.84c0.46,0.54,0.79,1.25,0.99,2.14
	C121.35,518.49,121.51,519.35,121.61,520.16z M145.48,523.76L145.48,523.76c-0.66-2.17-2.74-4.23-6.24-6.2
	c-1.89-1.02-3.34-2.03-4.36-3.02c-0.99-1.22-1.36-2.47-1.09-3.75c0.27-1.27,0.99-2.22,2.18-2.85s2.7-0.55,4.53,0.21
	c2.01,0.97,4.6,2.78,7.77,5.43c3.01,2.7,4.78,5.92,5.32,9.64l0.04-0.04c0.03,0.31,0.04,0.61,0.04,0.92c0,2.58-0.54,4.86-1.61,6.85
	c-1.56,2.7-3.81,4.76-6.75,6.18c-2.95,1.42-6.1,2.2-9.47,2.35c-3.24,0.08-5.55-0.43-6.94-1.53c-1.39-1.1-2.05-2.33-1.99-3.69
	c0.06-1.36,0.64-2.39,1.74-3.08c0.84-0.36,2.37-0.48,4.59-0.38c1.33,0.03,2.72,0,4.17-0.08c3.57-0.2,5.94-0.92,7.12-2.14
	C145.7,527.35,146.02,525.75,145.48,523.76z M223.38,539.06c-0.84,0-2.05-0.13-3.62-0.4c-1.57-0.27-3.09-0.76-4.55-1.49
	c-1.47-0.73-2.7-1.77-3.69-3.12c-4.52,2.12-9.65,3.56-15.4,4.34c-5.75,0.78-11.19,1-16.32,0.65c-5.13-0.34-9.03-1.1-11.71-2.28
	c-1.61-0.82-2.58-1.83-2.91-3.04c-0.33-1.21-0.02-2.25,0.94-3.12s2.56-1.2,4.8-1c1.22,0.15,2.32,0.31,3.29,0.46
	c0.51,0.05,1,0.11,1.45,0.19c0.54-0.36,1.01-1,1.42-1.91c0.46-0.97,0.8-2.04,1.03-3.21s0.38-2.3,0.46-3.37
	c-0.03-1.43-0.04-2.87-0.04-4.32c0.08-3.83-0.03-7.77-0.31-11.82v-0.96c-0.1-1.66,0.01-3.14,0.34-4.46s1.29-2.25,2.87-2.81
	c2.42-0.71,4.09-0.32,4.99,1.19c0.91,1.51,1.39,3.46,1.45,5.85s-0.01,4.58-0.21,6.54c0,0.26-0.01,0.5-0.04,0.73
	c-0.03,0.28-0.04,0.59-0.04,0.92c-0.13,1.81-0.29,3.84-0.5,6.08c2.27-2.32,4.83-4.29,7.67-5.91c2.84-1.62,5.81-2.57,8.9-2.85
	c6.02-0.31,10.46,0.65,13.31,2.87c2.86,2.22,4.23,5.17,4.13,8.84c-0.08,2.52-0.84,4.76-2.3,6.7c0.59,0.64,1.3,1.13,2.14,1.49
	s1.65,0.54,2.41,0.54c0.74,0,1.45,0.19,2.14,0.55c0.69,0.37,1.23,0.91,1.63,1.61c0.4,0.7,0.59,1.42,0.59,2.16
	c0,0.76-0.19,1.49-0.57,2.18c-0.38,0.69-0.92,1.22-1.61,1.61C224.87,538.87,224.15,539.06,223.38,539.06z M185.77,530.76
	L185.77,530.76c8.34,0.23,14.7-0.39,19.07-1.86c4.37-1.47,7.04-3.18,8-5.15c0.96-1.96,0.48-3.57-1.43-4.82
	c-2.93-1.66-6.15-2.01-9.66-1.07c-3.51,0.94-6.73,2.62-9.68,5.03C189.12,525.31,187.02,527.93,185.77,530.76z M223.38,539.06
	c-0.74,0-1.45-0.19-2.14-0.57c-0.69-0.38-1.22-0.92-1.61-1.61c-0.38-0.69-0.57-1.42-0.57-2.18c0-0.74,0.19-1.46,0.57-2.16
	c0.38-0.7,0.92-1.24,1.61-1.61c0.69-0.37,1.4-0.55,2.14-0.55c1.35,0,2.72-0.05,4.11-0.15c1.39-0.1,2.43-0.41,3.12-0.92
	c-1.84-1.22-3.06-2.91-3.67-5.05c-0.61-2.14-0.63-4.32-0.06-6.54s1.72-4.06,3.42-5.51c3.04-2.32,6.1-3.35,9.2-3.08
	s5.69,1.42,7.79,3.46c2.09,2.04,3.19,4.55,3.29,7.54c0.1,2.98-1.33,6.01-4.29,9.07c0.54,0.54,1.26,0.87,2.18,0.99
	c0.92,0.13,1.89,0.19,2.91,0.19h1.34c0.69,0.03,1.35,0.21,1.99,0.54c0.69,0.38,1.23,0.92,1.63,1.63c0.4,0.7,0.59,1.42,0.59,2.16
	c0,0.76-0.19,1.49-0.57,2.18c-0.38,0.69-0.92,1.22-1.61,1.61c-0.64,0.36-1.31,0.55-2.03,0.57h-6.77c-1.89,0-3.52-0.42-4.9-1.26
	s-2.4-1.88-3.06-3.1c-0.87,1.68-2.36,2.83-4.48,3.44c-2.12,0.61-4.31,0.92-6.58,0.92H223.38z M242.89,498.08L242.89,498.08
	c2.86,0.28,4.95,0.79,6.29,1.53c1.34,0.74,1.65,1.49,0.92,2.26c-0.73,0.77-2.77,1.34-6.14,1.72c-1.76,0.23-3.95,0.49-6.56,0.76
	c-2.62,0.28-4.97,0.42-7.06,0.42c-0.2,0-0.42,0-0.65,0c-1.15,0.03-2.07-0.09-2.77-0.34s-1.05-0.97-1.05-2.14
	c0.13-1.45,0.89-2.5,2.28-3.14c1.39-0.64,3.03-1.01,4.92-1.13c1.89-0.11,3.61-0.16,5.17-0.13c0.48,0.03,0.92,0.04,1.3,0.04
	c0.15,0,0.32,0,0.5,0c0.94-0.02,1.39-0.03,1.34-0.02C241.31,497.93,241.82,497.98,242.89,498.08z M241.02,521.85L241.02,521.85
	c0.92-2.02,0.89-3.38-0.1-4.09c-0.98-0.71-2.18-0.82-3.6-0.33c-1.42,0.5-2.3,1.56-2.66,3.2c-0.26,2.01-0.01,3.34,0.75,3.98
	c0.75,0.64,1.68,0.7,2.77,0.17C239.28,524.25,240.23,523.27,241.02,521.85z M260.49,530.38c2.17,0.05,4.28-0.2,6.33-0.76
	s3.65-1.93,4.8-4.09c-1.68,1.53-3.52,2.46-5.51,2.79s-3.88,0.15-5.66-0.54c-2.83-1.12-4.71-2.78-5.62-4.97
	c-0.92-2.19-1.03-4.48-0.33-6.85c0.7-2.37,2.06-4.4,4.07-6.08c2.01-1.68,4.54-2.59,7.58-2.72c3.49-0.02,6.57,1.17,9.24,3.6
	c2.67,2.42,4.05,6.03,4.15,10.83c-0.03,2.88-0.71,5.66-2.05,8.32c-1.34,2.67-3.35,4.85-6.03,6.56s-6.02,2.58-10.02,2.6h-8.99
	c-0.74,0-1.45-0.19-2.14-0.57c-0.69-0.38-1.22-0.92-1.61-1.61c-0.38-0.69-0.57-1.42-0.57-2.18c0-0.74,0.19-1.46,0.57-2.16
	c0.38-0.7,0.92-1.24,1.61-1.61c0.69-0.37,1.4-0.55,2.14-0.55H260.49z M262.6,489.67L262.6,489.67c1.89-0.51,3.62-0.36,5.2,0.44
	c1.58,0.8,2.6,1.98,3.06,3.54c0.38,1.89,0.03,3.46-1.05,4.71s-2.29,2.04-3.62,2.37c-2.63,0.51-4.7,0.02-6.22-1.47
	s-2.14-3.22-1.87-5.18C258.37,492.1,259.87,490.64,262.6,489.67z M266.96,515.42L266.96,515.42c-1.4-0.08-2.56,0.19-3.46,0.8
	c-0.91,0.61-1.41,1.34-1.51,2.18c-0.03,0.77,0.33,1.45,1.05,2.05c0.73,0.6,1.69,0.94,2.89,1.01c1.17,0.03,2.24-0.24,3.19-0.79
	c0.96-0.55,1.52-1.26,1.7-2.12c0.1-0.66-0.15-1.31-0.75-1.93C269.48,516,268.44,515.6,266.96,515.42z"/>
<path class="st16" d="M180.43,637.8c0.87,0,1.72,0.22,2.53,0.66s1.45,1.07,1.92,1.9c0.47,0.83,0.7,1.68,0.7,2.55
	c0,0.9-0.23,1.76-0.68,2.58c-0.45,0.81-1.08,1.45-1.9,1.9c-0.81,0.45-1.67,0.68-2.58,0.68h-0.54c-1.6,0-3.44-0.24-5.52-0.72
	c-2.29-0.51-4.39-1.52-6.29-3.03c-1.9-1.51-3.1-3.69-3.62-6.56c-2.98,3.47-7.28,6.02-12.89,7.66c-5.61,1.64-11.46,2.5-17.54,2.56
	c-6.09,0.06-11.32-0.56-15.69-1.85c-2.41-0.75-4.64-1.66-6.69-2.71c-3.86-1.96-6.84-4.36-8.95-7.19c-2.11-2.83-3.09-5.8-2.94-8.91
	c0.33-3.71,1.73-6.75,4.18-9.13c2.46-2.38,5.49-4.21,9.11-5.49c3.62-1.28,7.33-2.1,11.12-2.46c3.8-0.36,7.2-0.38,10.22-0.05
	c2.74,0.33,4.84,0.78,6.29,1.33c1.45,0.56,1.64,1.12,0.59,1.7c-1.06,0.57-3.98,1.07-8.77,1.49c-9.1,0.9-15.55,2.51-19.35,4.82
	c-3.8,2.31-5.47,4.82-5.02,7.53c0.45,2.71,2.49,5.11,6.1,7.19c2.59,1.42,6.13,2.43,10.6,3.03s9.21,0.74,14.2,0.41
	c4.99-0.33,9.54-1.19,13.66-2.58c4.11-1.39,7.09-3.36,8.93-5.92c0.87-1.51,1.34-3.06,1.4-4.66c0.09-0.6,0.18-1.18,0.27-1.72
	c0.42-1.69,1.22-2.85,2.4-3.48c1.18-0.63,2.34-0.5,3.48,0.41c1.15,0.9,1.87,2.79,2.17,5.65c0.06,0.57,0.14,1.16,0.23,1.76
	c0.33,1.93,0.81,3.69,1.42,5.29c0.62,1.6,1.54,2.89,2.78,3.89C177.01,637.3,178.56,637.8,180.43,637.8z M143.08,621.88
	L143.08,621.88c3.38,0.33,5.86,0.93,7.44,1.81s1.94,1.76,1.09,2.67c-0.86,0.9-3.28,1.58-7.26,2.03c-2.08,0.27-4.67,0.57-7.75,0.9
	c-3.09,0.33-5.87,0.5-8.34,0.5c-0.24,0-0.5,0-0.77,0c-1.36,0.03-2.45-0.11-3.28-0.41c-0.83-0.3-1.24-1.15-1.24-2.53
	c0.15-1.72,1.05-2.95,2.69-3.71c1.64-0.75,3.58-1.2,5.81-1.33c2.23-0.14,4.27-0.19,6.1-0.16c0.57,0.03,1.08,0.05,1.54,0.05
	c0.18,0,0.38,0,0.59,0c1.11-0.03,1.64-0.04,1.58-0.02C141.21,621.69,141.81,621.76,143.08,621.88z M180.38,648.06
	c-0.87,0-1.72-0.23-2.53-0.68c-0.81-0.45-1.45-1.09-1.9-1.9c-0.45-0.81-0.68-1.67-0.68-2.58c0-0.88,0.23-1.73,0.68-2.55
	s1.09-1.46,1.9-1.9c0.81-0.44,1.66-0.66,2.53-0.66h0.05c2.38,0.03,4.1-0.31,5.15-1.02c1.05-0.71,1.74-1.63,2.06-2.76
	c0.32-1.13,0.5-2.31,0.56-3.55c0.09-1.21,0.28-2.34,0.57-3.39c0.29-1.05,0.88-1.88,1.79-2.49c1.3-0.72,2.61-0.9,3.93-0.52
	c1.33,0.38,2.28,1.26,2.85,2.65c0.36,1.27,0.54,2.7,0.54,4.3c0.03,1.21,0.14,2.43,0.32,3.66c0.54,2.53,1.31,3.57,2.31,3.1
	c0.99-0.47,1.91-1.68,2.74-3.64s1.29-3.93,1.38-5.92c0.12-2.05,0.84-3.5,2.17-4.34c1.33-0.84,2.69-0.84,4.09,0.02
	c1.4,0.86,2.3,2.81,2.69,5.86l0.04,3.21c0.12,3.38,0.63,4.96,1.54,4.75s1.93-1.72,3.07-4.52c0.75-1.87,1.08-3.89,0.99-6.06
	c0.09-3.13,0.9-5.26,2.44-6.38c1.54-1.11,3.16-1.15,4.86-0.09c1.7,1.06,2.8,3.27,3.28,6.65c0.09,0.63,0.17,1.25,0.23,1.85
	c0.09,2.56,0.57,4.64,1.45,6.24c0.87,1.6,2.29,2.4,4.25,2.4h0.09c0.87,0,1.72,0.22,2.53,0.66s1.45,1.07,1.92,1.9
	c0.47,0.83,0.7,1.68,0.7,2.55c0,0.9-0.23,1.76-0.68,2.58c-0.45,0.81-1.08,1.45-1.9,1.9c-0.81,0.45-1.67,0.68-2.58,0.68
	c-2.53,0.06-4.54-0.09-6.01-0.45c-1.87-0.48-3.45-1.91-4.75-4.3c-1.84,2.96-4.43,4.54-7.78,4.77c-3.35,0.23-6.39-0.94-9.13-3.5
	c-1.27,1.78-2.84,2.89-4.73,3.32c-1.88,0.44-3.75,0.26-5.61-0.54c-1.85-0.8-3.34-2.15-4.45-4.05c-2.08,2.2-4.07,3.57-5.97,4.12
	c-1.9,0.54-4.22,0.75-6.96,0.63H180.38z M259.69,637.84c0.21-0.03,0.44-0.05,0.68-0.05c0.87,0,1.72,0.22,2.53,0.66
	s1.45,1.07,1.92,1.9c0.47,0.83,0.7,1.68,0.7,2.55c0,0.9-0.23,1.76-0.68,2.58c-0.45,0.81-1.09,1.45-1.9,1.9
	c-0.81,0.45-1.67,0.68-2.58,0.68h-24.24v-0.04c-0.21,0.03-0.42,0.04-0.63,0.04c-0.87,0-1.72-0.23-2.53-0.68
	c-0.81-0.45-1.45-1.09-1.9-1.9c-0.45-0.81-0.68-1.67-0.68-2.58c0-0.88,0.23-1.73,0.68-2.55s1.08-1.46,1.9-1.9s1.66-0.66,2.53-0.66
	c0.24,0,0.47,0.02,0.68,0.05H259.69z"/>
<path class="st16" d="M270.82,600.54L270.82,600.54c3.38,0.33,5.86,0.93,7.44,1.81c1.58,0.88,1.94,1.76,1.08,2.67
	c-0.86,0.9-3.28,1.58-7.26,2.04c-2.08,0.27-4.67,0.57-7.75,0.9c-3.09,0.33-5.87,0.5-8.34,0.5c-0.24,0-0.5,0-0.77,0
	c-1.36,0.03-2.45-0.11-3.28-0.41c-0.83-0.3-1.24-1.14-1.24-2.53c0.15-1.72,1.05-2.95,2.69-3.71c1.64-0.75,3.58-1.2,5.81-1.33
	c2.23-0.13,4.27-0.19,6.1-0.16c0.57,0.03,1.09,0.05,1.54,0.05c0.18,0,0.38,0,0.59,0c1.11-0.03,1.64-0.04,1.58-0.02
	C268.95,600.35,269.55,600.42,270.82,600.54z M260.24,637.8c0.87,0,1.72,0.22,2.53,0.66s1.45,1.07,1.92,1.9
	c0.47,0.83,0.7,1.68,0.7,2.55c0,0.9-0.23,1.76-0.68,2.58c-0.45,0.81-1.09,1.45-1.9,1.9c-0.81,0.45-1.67,0.68-2.58,0.68
	c-0.87,0-1.73-0.23-2.56-0.68c-0.83-0.45-1.46-1.09-1.9-1.9c-0.44-0.81-0.66-1.67-0.66-2.58c0-0.88,0.23-1.73,0.68-2.55
	s1.09-1.46,1.9-1.9C258.52,638.02,259.36,637.8,260.24,637.8z M260.28,637.8h6.96c3.17-0.27,5.37-1.73,6.62-4.36
	c1.25-2.64,1.5-5.34,0.75-8.12c-0.9-3.23-1.04-5.43-0.41-6.6c0.63-1.18,1.62-1.52,2.96-1.04c1.34,0.48,2.62,1.59,3.84,3.32
	c1.22,1.73,1.98,3.91,2.28,6.53c0.33,3.38-0.04,6.56-1.13,9.56s-2.91,5.49-5.47,7.48c-2.47,1.93-5.7,3.09-9.68,3.48
	c-4.37,0-6.62,0-6.74,0V637.8z"/>
<path class="st16" d="M345.7,634.04L345.7,634.04c-0.45,4.52-2.05,7.97-4.79,10.33c-2.74,2.37-5.94,3.69-9.59,3.98
	c-3.65,0.29-7.06-0.43-10.24-2.15c-3.18-1.72-5.43-4.42-6.76-8.09c-1.81,0.09-3.31,0.69-4.5,1.81c-1.19,1.12-1.86,3-2.01,5.65
	l0.45,16.5c-0.09,3.2-0.89,5.24-2.4,6.13c-1.51,0.89-3.04,0.87-4.59-0.04c-1.55-0.92-2.42-2.5-2.6-4.73l-0.18-8.59
	c-0.21-4.58-0.11-8.92,0.29-13c0.41-4.08,1.73-7.42,3.98-9.99c2.25-2.58,6.02-3.9,11.33-3.96h0.18c1.08-3.35,2.98-6.07,5.67-8.16
	c2.7-2.1,5.92-3.17,9.65-3.23c3.77,0.06,6.88,0.95,9.34,2.67c2.46,1.72,4.25,3.9,5.38,6.56
	C345.45,628.38,345.91,631.15,345.7,634.04z M330.46,627.08L330.46,627.08c-1.99-0.27-3.67-0.03-5.04,0.72
	c-1.37,0.75-2.25,1.6-2.65,2.53c-0.39,1.02-0.34,2.22,0.16,3.59c0.5,1.37,1.32,2.54,2.46,3.5c1.42,1.12,3.01,1.67,4.77,1.65
	c1.76-0.01,3.28-0.7,4.54-2.06c1.36-1.63,1.79-3.51,1.31-5.65C335.54,629.24,333.69,627.8,330.46,627.08z"/>
<path class="st16" d="M368.62,637.8v10.26h-1.94c-4.01,0-7.1-0.73-9.27-2.19c-2.17-1.46-3.72-3.43-4.66-5.9
	c-0.93-2.47-1.49-5.26-1.65-8.37c-0.17-3.1-0.22-6.33-0.16-9.68c0-0.24,0-0.48,0-0.72l0.18-18.9c0.15-2.23,1-3.81,2.55-4.75
	c1.55-0.93,3.09-0.96,4.61-0.09c1.52,0.87,2.33,2.92,2.42,6.15l-0.36,26.77c0.15,2.89,0.94,4.87,2.37,5.92
	c1.43,1.06,3.16,1.55,5.18,1.49H368.62z M368.44,637.8c0.84,0,1.68,0.22,2.51,0.66s1.47,1.07,1.92,1.9s0.68,1.68,0.68,2.55
	c0,0.9-0.22,1.76-0.66,2.58c-0.44,0.81-1.07,1.45-1.9,1.9c-0.83,0.45-1.68,0.68-2.55,0.68c-0.9,0-1.76-0.23-2.58-0.68
	c-0.81-0.45-1.45-1.09-1.9-1.9c-0.45-0.81-0.68-1.67-0.68-2.58c0-0.88,0.23-1.73,0.7-2.55c0.47-0.83,1.11-1.46,1.92-1.9
	S367.57,637.8,368.44,637.8z"/>
<path class="st16" d="M368.53,637.8c0.87,0,1.72,0.22,2.53,0.66s1.45,1.07,1.92,1.9c0.47,0.83,0.7,1.68,0.7,2.55
	c0,0.9-0.23,1.76-0.68,2.58c-0.45,0.81-1.09,1.45-1.9,1.9c-0.81,0.45-1.67,0.68-2.58,0.68c-0.87,0-1.73-0.23-2.55-0.68
	c-0.83-0.45-1.46-1.09-1.9-1.9c-0.44-0.81-0.66-1.67-0.66-2.58c0-0.88,0.23-1.73,0.68-2.55s1.08-1.46,1.9-1.9
	S367.66,637.8,368.53,637.8z M368.58,637.8h6.96c3.17-0.27,5.37-1.73,6.62-4.36c1.25-2.64,1.5-5.34,0.75-8.12
	c-0.9-3.23-1.04-5.43-0.41-6.6s1.62-1.52,2.96-1.04c1.34,0.48,2.62,1.59,3.84,3.32c1.22,1.73,1.98,3.91,2.28,6.53
	c0.33,3.38-0.05,6.56-1.13,9.56c-1.09,3-2.91,5.49-5.47,7.48c-2.47,1.93-5.7,3.09-9.68,3.48c-4.37,0-6.62,0-6.74,0V637.8z
	 M377.03,652.81L377.03,652.81c2.23-0.6,4.28-0.42,6.15,0.54c1.87,0.96,3.07,2.35,3.62,4.16c0.45,2.26,0.04,4.13-1.24,5.61
	c-1.28,1.48-2.71,2.41-4.27,2.8c-3.11,0.57-5.55-0.02-7.35-1.76c-1.79-1.75-2.53-3.78-2.22-6.1S373.81,653.99,377.03,652.81z"/>
</svg>
