<?xml version="1.0" encoding="utf-8"?>
<!-- Generator: Adobe Illustrator 23.0.0, SVG Export Plug-In . SVG Version: 6.00 Build 0)  -->
<svg version="1.1" id="Layer_1" xmlns="http://www.w3.org/2000/svg" xmlns:xlink="http://www.w3.org/1999/xlink" x="0px" y="0px"
	 viewBox="0 0 1366 277.6" style="enable-background:new 0 0 1366 277.6;" xml:space="preserve">
<style type="text/css">
	.st0{fill:#495867;}
	.st1{fill:#FFFFFF;}
	.st2{clip-path:url(#SVGID_2_);}
	.st3{clip-path:url(#SVGID_4_);}
	.st4{clip-path:url(#SVGID_6_);}
	.st5{clip-path:url(#SVGID_8_);}
	.st6{clip-path:url(#SVGID_10_);}
	.st7{clip-path:url(#SVGID_12_);}
	.st8{clip-path:url(#SVGID_14_);}
	.st9{clip-path:url(#SVGID_16_);}
	.st10{clip-path:url(#SVGID_18_);}
	.st11{clip-path:url(#SVGID_20_);}
	.st12{clip-path:url(#SVGID_22_);}
	.st13{clip-path:url(#SVGID_24_);}
	.st14{clip-path:url(#SVGID_26_);}
	.st15{clip-path:url(#SVGID_28_);}
	.st16{clip-path:url(#SVGID_30_);}
	.st17{clip-path:url(#SVGID_32_);}
	.st18{fill:#BE7E7F;}
	.st19{fill:#DAAFB4;}
	.st20{fill:#315C77;}
	.st21{fill:#658FA4;}
	.st22{fill:#23485F;}
	.st23{fill:#3A6A89;}
	.st24{fill:#223349;}
	.st25{fill:#3B526E;}
	.st26{fill:#36394F;}
	.st27{fill:#26283B;}
	.st28{fill:#25283E;}
	.st29{fill:#333C5B;}
</style>
<g>
	<g>
		<path class="st0" d="M1366.2,211.9v78.4H0.2l-0.1-74.5c0,0,91.7,0,240.5,0S857.4,161.9,1366.2,211.9"/>
	</g>
	<g>
		<path class="st1" d="M321.3,220.6h-11c1.5,2,3.9,3.3,6.5,3.3h4.5c0.9,0,1.9-0.2,2.7-0.5l0,0C324.1,221.9,322.9,220.6,321.3,220.6"
			/>
		<path class="st1" d="M114.6,213.2H89.4c-1.6,0-2.8,1.3-2.8,2.8v1.6c0,1.6,1.3,2.8,2.8,2.8h25.1c1.6,0,2.8-1.3,2.8-2.8V216
			C117.5,214.4,116.2,213.2,114.6,213.2"/>
		<path class="st0" d="M81.3,240.8c-1.5,0-2.9,0-4.3,0c-0.3,4.5-4.1,8.1-8.7,8.1H44.6c-4.6,0-8.3-3.6-8.6-8.1c-0.2,0-0.3,0-0.5,0
			c0,0.4-0.1,0.8-0.2,1.2c-0.8,3.9-4.3,6.9-8.5,6.9l0,0h-20c-3,0-5.6-1.5-7.1-3.8v5.9c2,1.4,4.5,2.1,7.1,2.1h20.1
			c3.5,0,6.6-1.4,8.9-3.5c2.3,2.2,5.4,3.5,8.9,3.5h23.7C75.2,253.2,80.9,247.7,81.3,240.8 M148.7,240.8c-1.5,0-3,0-4.4,0l-0.3,2.1
			c-0.5,3.3-3.3,5.8-6.6,5.8h-0.1c-0.3,0-0.5,0-0.8-0.1l-3.7-0.5c-3.5-0.5-6.1-3.7-5.7-7.3c-0.7,0-1.4,0-2.1,0
			c-0.8,3.5-3.8,6.2-7.5,6.6l-21.4,2.4c-0.3,0-0.6,0.1-0.9,0.1c-4.4,0-8.1-3.3-8.7-7.7l-0.2-1.4c-1.5,0-2.9,0-4.3,0l0.2,1.9
			c0.7,6.6,6.3,11.6,12.9,11.6c0.5,0,1,0,1.4-0.1l21.3-2.4c2.7-0.3,5.3-1.5,7.3-3.3c1.7,2.1,4.2,3.6,7,4l3.7,0.5
			c0.5,0.1,1,0.1,1.5,0.1c5.5,0,10.1-4.1,10.9-9.5L148.7,240.8 M160.1,240.8c-1.4,0-2.9,0-4.4,0c0.2,6.9,6,12.6,13,12.6h10.9v-4.5
			h-10.9C164.2,248.9,160.4,245.3,160.1,240.8 M202.9,240.8c-0.6,0-1.2,0-1.9,0c-0.2,2.9-1.9,5.5-4.3,6.9h8.2
			C203.4,245.9,202.6,243.4,202.9,240.8 M240.1,240.8L240.1,240.8c-1.3,0-2.6,0-3.8,0l-0.9,5.1c-0.1,0.6-0.3,1.2-0.5,1.8h2.9
			c0.9-1.4,1.6-3.1,1.9-4.9L240.1,240.8"/>
		<g>
			<g>
				<g>
					<defs>
						<path id="SVGID_1_" d="M237.9,247.7H235c-1.3,3.3-4.5,5.5-8.1,5.5c-0.5,0-0.9,0-1.4-0.1l-15.4-2.5c-2.1-0.4-3.8-1.4-5.1-2.9
							h-8.2c-1.3,0.8-2.8,1.2-4.4,1.2h-12.8v4.5h12.8c4.3,0,8.2-2.2,10.5-5.4c1.7,1.5,4,2.7,6.4,3l15.4,2.5c0.7,0.1,1.4,0.1,2.2,0.1
							C231.5,253.7,235.5,251.3,237.9,247.7"/>
					</defs>
					<clipPath id="SVGID_2_">
						<use xlink:href="#SVGID_1_"  style="overflow:visible;"/>
					</clipPath>
					<g class="st2">
						<g>
							<g>
								<defs>
									<rect id="SVGID_3_" x="178.6" y="246.7" width="60.3" height="7.9"/>
								</defs>
								<clipPath id="SVGID_4_">
									<use xlink:href="#SVGID_3_"  style="overflow:visible;"/>
								</clipPath>
								<g class="st3">
									
										<image style="overflow:visible;enable-background:new    ;" width="63" height="9" xlink:href="8708F31A.jpg"  transform="matrix(0.8643 0 0 0.8643 181.5278 246.7944)">
									</image>
								</g>
							</g>
						</g>
					</g>
				</g>
			</g>
		</g>
		<g>
			<g>
				<g>
					<defs>
						<path id="SVGID_5_" d="M205,247.7h-8.2l0,0H205L205,247.7 M237.9,247.7H235l0,0H237.9L237.9,247.7"/>
					</defs>
					<clipPath id="SVGID_6_">
						<use xlink:href="#SVGID_5_"  style="overflow:visible;"/>
					</clipPath>
					<g class="st4">
						<g>
							<g>
								<defs>
									<rect id="SVGID_7_" x="196.1" y="247" width="42.6" height="2.3"/>
								</defs>
								<clipPath id="SVGID_8_">
									<use xlink:href="#SVGID_7_"  style="overflow:visible;"/>
								</clipPath>
								<g class="st5">
									
										<image style="overflow:visible;enable-background:new    ;" width="60" height="7" xlink:href="8708F319.jpg"  transform="matrix(0.4397 0 0 0.4411 204.182 246.5517)">
									</image>
								</g>
							</g>
						</g>
					</g>
				</g>
			</g>
		</g>
		<path class="st0" d="M259.9,240.3c-1.5,0.1-2.9,0.1-4.3,0.2c0,2.7,0.9,5.2,2.3,7.2h1.8H258h1.7v2c2.3,2.2,5.5,3.6,8.9,3.6h5.1V249
			h16c0.4-0.5,0.8-1,1.2-1.6c-1.2-0.9-2.3-2.1-3.1-3.4c-1.4,2.8-4.4,4.8-7.8,4.8h-11.5C263.8,248.9,259.9,245,259.9,240.3"/>
		<g>
			<g>
				<g>
					<defs>
						<path id="SVGID_9_" d="M259.6,247.7h-1.7c0.5,0.7,1.1,1.4,1.7,2V247.7"/>
					</defs>
					<clipPath id="SVGID_10_">
						<use xlink:href="#SVGID_9_"  style="overflow:visible;"/>
					</clipPath>
					<g class="st6">
						<g>
							<g>
								<defs>
									<rect id="SVGID_11_" x="256.7" y="246.7" width="4" height="3.9"/>
								</defs>
								<clipPath id="SVGID_12_">
									<use xlink:href="#SVGID_11_"  style="overflow:visible;"/>
								</clipPath>
								<g class="st7">
									
										<image style="overflow:visible;enable-background:new    ;" width="5" height="6" xlink:href="8708F328.jpg"  transform="matrix(0.6478 0 0 0.6478 257.0091 246.765)">
									</image>
								</g>
							</g>
						</g>
					</g>
				</g>
			</g>
		</g>
		<g>
			<g>
				<g>
					<defs>
						<polyline id="SVGID_13_" points="259.6,247.7 257.9,247.7 257.9,247.7 259.6,247.7 259.6,247.7 						"/>
					</defs>
					<clipPath id="SVGID_14_">
						<use xlink:href="#SVGID_13_"  style="overflow:visible;"/>
					</clipPath>
					<g class="st8">
						<g>
							<g>
								<defs>
									<rect id="SVGID_15_" x="257.4" y="247" width="3" height="2.3"/>
								</defs>
								<clipPath id="SVGID_16_">
									<use xlink:href="#SVGID_15_"  style="overflow:visible;"/>
								</clipPath>
								<g class="st9">
									
										<image style="overflow:visible;enable-background:new    ;" width="7" height="7" xlink:href="8708F331.jpg"  transform="matrix(0.3204 0 0 0.3214 257.7471 246.9705)">
									</image>
								</g>
							</g>
						</g>
					</g>
				</g>
			</g>
		</g>
		<g>
			<g>
				<g>
					<defs>
						<path id="SVGID_17_" d="M289.6,249h-16v4.3h6.4C283.8,253.3,287.3,251.6,289.6,249"/>
					</defs>
					<clipPath id="SVGID_18_">
						<use xlink:href="#SVGID_17_"  style="overflow:visible;"/>
					</clipPath>
					<g class="st10">
						<g>
							<g>
								<defs>
									<rect id="SVGID_19_" x="272.7" y="248.1" width="17.9" height="6.3"/>
								</defs>
								<clipPath id="SVGID_20_">
									<use xlink:href="#SVGID_19_"  style="overflow:visible;"/>
								</clipPath>
								<g transform="matrix(1 0 0 1 0 1.525879e-05)" class="st11">
									
										<image style="overflow:visible;enable-background:new    ;" width="22" height="9" xlink:href="8708F332.jpg"  transform="matrix(0.7417 0 0 0.7415 273.5269 247.9238)">
									</image>
								</g>
							</g>
						</g>
					</g>
				</g>
			</g>
		</g>
		<polyline class="st0" points="232.1,247.5 231.8,247.7 232,247.7 232.1,247.5 		"/>
		<g>
			<g>
				<g>
					<defs>
						<path id="SVGID_21_" d="M232,247.7h-0.2c-0.5,0.4-1,0.6-1.6,0.9l0.5,0.1h0.3c0.5,0,0.9-0.3,1-0.8V247.7"/>
					</defs>
					<clipPath id="SVGID_22_">
						<use xlink:href="#SVGID_21_"  style="overflow:visible;"/>
					</clipPath>
					<g class="st12">
						<g>
							<g>
								<defs>
									<rect id="SVGID_23_" x="229" y="246.7" width="3.9" height="3"/>
								</defs>
								<clipPath id="SVGID_24_">
									<use xlink:href="#SVGID_23_"  style="overflow:visible;"/>
								</clipPath>
								<g class="st13">
									
										<image style="overflow:visible;enable-background:new    ;" width="5" height="5" xlink:href="8708F333.jpg"  transform="matrix(0.6708 0 0 0.6708 229.2973 246.5376)">
									</image>
								</g>
							</g>
						</g>
					</g>
				</g>
			</g>
		</g>
		<g>
			<g>
				<g>
					<defs>
						<polyline id="SVGID_25_" points="232,247.7 231.8,247.7 231.8,247.7 232,247.7 232,247.7 						"/>
					</defs>
					<clipPath id="SVGID_26_">
						<use xlink:href="#SVGID_25_"  style="overflow:visible;"/>
					</clipPath>
					<g class="st14">
						<g>
							<g>
								<defs>
									<rect id="SVGID_27_" x="231.2" y="247" width="2.2" height="2.3"/>
								</defs>
								<clipPath id="SVGID_28_">
									<use xlink:href="#SVGID_27_"  style="overflow:visible;"/>
								</clipPath>
								<g transform="matrix(1 0 0 1 -1.525879e-05 0)" class="st15">
									
										<image style="overflow:visible;enable-background:new    ;" width="7" height="7" xlink:href="8708F334.jpg"  transform="matrix(0.2902 0 0 0.2911 231.3109 247.0768)">
									</image>
								</g>
							</g>
						</g>
					</g>
				</g>
			</g>
		</g>
		<path class="st1" d="M76.9,210.4v3.5c0.1-0.3,0.2-0.6,0.2-0.9v-1.6C77.1,211.1,77.1,210.8,76.9,210.4"/>
		<path class="st0" d="M32.2,121.5c0,1.6-1.3,2.8-2.8,2.8H5.2c-0.2-2.6-0.5-5-0.8-7.2h25c1.6,0,2.8,1.3,2.8,2.8V121.5 M32.2,132.2
			c0,1.6-1.3,2.8-2.8,2.8H5.7c-0.1-2.5-0.2-4.9-0.3-7.2h23.9c1.6,0,2.8,1.3,2.8,2.8v1.6 M32.2,228c0,1.6-1.3,2.8-2.8,2.8H4.2
			c-1.6,0-2.8-1.3-2.8-2.8v-1.6c0-1.6,1.3-2.8,2.8-2.8h25.1c1.6,0,2.8,1.3,2.8,2.8L32.2,228L32.2,228 M1.3,130.6
			c0-0.7,0.2-1.2,0.6-1.7v4.9c-0.4-0.5-0.6-1-0.6-1.7V130.6 M1.3,119.9c0-0.7,0.2-1.2,0.6-1.7v4.9c-0.4-0.5-0.6-1-0.6-1.7V119.9
			 M26.8,102.4h-20c-4.8,0-8.7,3.9-8.7,8.7v129.2c0,4.8,3.9,8.7,8.7,8.7h20.1c4.8,0,8.7-3.9,8.7-8.7V111
			C35.5,106.3,31.6,102.4,26.8,102.4"/>
		<path class="st0" d="M284.6,94.2c0,1.6-1.3,2.8-2.8,2.8h-15.2c-0.4,0-0.7-0.1-1-0.2c-0.1-2.3-0.4-4.5-0.6-6.5
			c0.4-0.4,1-0.5,1.7-0.5h15.2c1.6,0,2.8,1.3,2.8,2.8L284.6,94.2 M284.6,230.8c0,4.5-3.7,8.2-8.2,8.2h-4.5c-4.5,0-8.2-3.7-8.2-8.2
			v-7.1c0-4.5,3.7-8.2,8.2-8.2h4.5c4.5,0,8.2,3.7,8.2,8.2V230.8 M280,76.2h-11.5c-4.8,0-8.7,3.9-8.7,8.7v155.3
			c0,4.8,3.9,8.7,8.7,8.7H280c4.8,0,8.7-3.9,8.7-8.7V84.9C288.7,80.1,284.8,76.2,280,76.2"/>
		<path class="st0" d="M156.7,140.1l-0.3,2.5c-0.3,2.5-2.6,4.2-5.1,3.9l-4.9-0.6c-0.6-0.1-1.2-0.3-1.8-0.6c0.5-3.8,0.8-7.4,0.8-10.4
			c0.7-0.4,1.6-0.5,2.5-0.4l4.9,0.6C155.2,135.3,157,137.6,156.7,140.1 M154.9,150.9l-0.1,0.6c-0.1,0.6-0.6,0.9-1.1,0.9l-10-1.3
			c0.1-0.9,0.3-1.7,0.4-2.6l9.9,1.3C154.5,149.9,154.9,150.4,154.9,150.9 M140.9,149.7l0.1-0.6c0.1-0.5,0.5-0.9,1-0.9l-0.4,2.5
			C141.1,150.6,140.9,150.2,140.9,149.7 M142.4,140.7l0.3-2.5c0.1-0.9,0.5-1.7,1-2.3l-1.1,7.1C142.4,142.3,142.4,141.5,142.4,140.7
			 M153.4,126.6l-3.7-0.5c-3.6-0.5-7,2.1-7.5,5.7l-14.9,108.8c-0.5,3.6,2.1,7,5.7,7.5l3.7,0.5c3.6,0.5,7-2.1,7.5-5.7l14.9-108.8
			C159.7,130.5,157.1,127.2,153.4,126.6"/>
		<path class="st0" d="M72.5,232.6c0,1.6-1.3,2.8-2.8,2.8H44.5c-1.6,0-2.8-1.3-2.8-2.8V231c0-1.6,1.3-2.8,2.8-2.8h25.1
			c1.6,0,2.8,1.3,2.8,2.8L72.5,232.6 M43.9,149.9c0-4.8,3.9-8.7,8.7-8.7h7.9c4.8,0,8.7,3.9,8.7,8.7v8.1c0,4.8-3.9,8.7-8.7,8.7h-7.9
			c-4.8,0-8.7-3.9-8.7-8.7V149.9 M68.3,132.4H44.6c-4.8,0-8.7,3.9-8.7,8.7v99.1c0,4.8,3.9,8.7,8.7,8.7h23.7c4.8,0,8.7-3.9,8.7-8.7
			v-99.1C76.9,136.3,73,132.4,68.3,132.4"/>
		<path class="st0" d="M254.7,116.4l-0.1,0.6c-0.1,0.6-0.6,0.9-1.2,0.9l-23.8-4.2c0-0.9,0-1.8,0-2.6c0.1,0,0.2,0,0.4,0l23.9,4.2
			C254.4,115.3,254.7,115.8,254.7,116.4 M253.7,122.9l-0.1,0.6c-0.1,0.6-0.6,0.9-1.2,0.9l-23.3-4c0.1-0.9,0.2-1.8,0.3-2.7l23.5,4.1
			C253.4,121.8,253.7,122.3,253.7,122.9 M233.4,240.9l-0.1,0.6c-0.1,0.6-0.6,0.9-1.2,0.8l-23.8-4.9c-0.6-0.1-0.9-0.6-0.8-1.2
			l0.1-0.6c0.1-0.6,0.6-0.9,1.2-0.8l23.8,4.9C233.1,239.8,233.5,240.4,233.4,240.9 M232.1,247.3l-0.1,0.6c-0.1,0.6-0.6,0.9-1.2,0.8
			l-23.8-4.9c-0.6-0.1-0.9-0.6-0.8-1.2l0.1-0.6c0.1-0.6,0.6-0.9,1.2-0.8l23.8,4.9C231.8,246.3,232.2,246.8,232.1,247.3 M250.5,103.1
			l-15.4-2.5c-4.7-0.8-9.2,2.5-10,7.2L203,240.6c-0.8,4.7,2.5,9.2,7.1,10l15.4,2.5c4.7,0.8,9.2-2.5,10-7.1l22.2-132.9
			C258.4,108.4,255.2,103.9,250.5,103.1"/>
		<path class="st0" d="M196.2,126.2c0,1-0.9,1.9-1.9,1.9h-27c-1,0-1.9-0.9-1.9-1.9v-1c0-1,0.9-1.9,1.9-1.9h27c1,0,1.9,0.9,1.9,1.9
			V126.2 M196.2,133.2c0,1-0.9,1.9-1.9,1.9h-27c-0.6,0-1.2-0.4-1.6-0.9c-0.1-0.9-0.1-1.9-0.1-2.8c0.3-0.6,0.9-1.2,1.7-1.2h27
			c1,0,1.9,0.9,1.9,1.9L196.2,133.2 M196.2,230.2c0,1-0.9,1.9-1.9,1.9h-27c-1,0-1.9-0.9-1.9-1.9v-1c0-1,0.9-1.9,1.9-1.9h27
			c1,0,1.9,0.9,1.9,1.9V230.2 M196.2,237.2c0,1-0.9,1.9-1.9,1.9h-27c-1,0-1.9-0.9-1.9-1.9v-1c0-1,0.9-1.9,1.9-1.9h27
			c1,0,1.9,0.9,1.9,1.9V237.2 M192.4,113.5h-23.7c-4.8,0-8.7,3.9-8.7,8.7v118.1c0,4.8,3.9,8.7,8.7,8.7h23.7c4.8,0,8.7-3.9,8.7-8.7
			V122.2C201.1,117.4,197.2,113.5,192.4,113.5"/>
		<path class="st0" d="M119.2,233.7l-26.9,3.4c-1,0.1-1.9-0.6-2-1.6l-0.1-1c-0.1-1,0.6-1.9,1.6-2l26.9-3.4c1-0.1,1.9,0.6,2,1.6
			l0.1,1C120.9,232.6,120.2,233.5,119.2,233.7z M116.8,164.9c-0.5-4.8-4.8-8.2-9.6-7.7l-21.4,2.4c-4.8,0.5-8.2,4.8-7.7,9.6l8.2,72.9
			c0.5,4.8,4.8,8.2,9.6,7.7l21.4-2.4c4.8-0.5,8.2-4.8,7.7-9.6L116.8,164.9z"/>
		<path class="st1" d="M60.6,141.2h-7.9c-4.8,0-8.7,3.9-8.7,8.7v8.1c0,4.8,3.9,8.7,8.7,8.7h7.9c4.8,0,8.7-3.9,8.7-8.7v-8.1
			C69.2,145.1,65.3,141.2,60.6,141.2"/>
		<path class="st1" d="M29.4,117.1h-25c0.4,2.2,0.6,4.6,0.8,7.2h24.2l0,0c0.8,0,1.5-0.3,2-0.9c0.5-0.5,0.8-1.2,0.8-1.9l0,0v-1.6
			C32.2,118.4,30.9,117.1,29.4,117.1"/>
		<path class="st0" d="M31.4,123.4c-0.5,0.5-1.2,0.9-2,0.9C30.2,124.3,30.9,124,31.4,123.4 M32.2,121.5L32.2,121.5L32.2,121.5
			 M32.2,119.9L32.2,119.9v1.6V119.9 M29.4,117.1h-25H29.4"/>
		<path d="M1.9,118.3c-0.4,0.5-0.6,1.1-0.6,1.7v1.6c0,0.7,0.2,1.2,0.6,1.7V118.3z"/>
		<path class="st1" d="M29.4,127.8H5.5c0.1,2.3,0.2,4.8,0.3,7.2h23.5c1.6,0,2.8-1.3,2.8-2.8v-1.6c0.1-1.4-1.1-2.6-2.5-2.8
			C29.6,127.8,29.5,127.8,29.4,127.8"/>
		<path class="st0" d="M29.4,127.8h-24c0.1,2.3,0.2,4.7,0.3,7.2h0.1c-0.1-2.5-0.2-4.9-0.3-7.2H29.4c0.1,0,0.2,0,0.3,0
			C29.6,127.8,29.5,127.8,29.4,127.8"/>
		<path d="M1.9,128.9c-0.4,0.5-0.6,1.1-0.6,1.7v1.6c0,0.7,0.2,1.2,0.6,1.7V128.9z"/>
		<path class="st1" d="M281.7,89.8h-15.2c-0.5,0-1,0.2-1.4,0.4c0.2,1.4,0.3,3,0.4,4.6c0.3,0.1,0.6,0.2,1,0.2h15.2
			c1.4,0,2.7-1.1,2.8-2.6C284.4,90.9,283.3,89.8,281.7,89.8"/>
		<path class="st0" d="M265.1,90.2l-0.3,0.1c0.3,1.9,0.5,4.2,0.6,6.5c0.3,0.1,0.6,0.2,1,0.2h15.2c1.6,0,2.8-1.3,2.8-2.8v-1.6v-0.2
			c-0.1,1.5-1.4,2.6-2.8,2.6h-15.2c-0.4,0-0.7-0.1-1-0.2C265.4,93.2,265.3,91.6,265.1,90.2"/>
		<path class="st1" d="M147.3,134.3c-0.7,0-1.3,0.2-1.9,0.4c0,3-0.3,6.6-0.8,10.4l0,0c0.6,0.4,1.2,0.6,1.8,0.6l4.9,0.6
			c0.2,0,0.4,0,0.5,0l0,0l0,0c2.2,0,4.2-1.6,4.5-3.9v-0.1l0.3-2.5c0-0.2,0-0.3,0-0.5s0-0.4,0-0.6c-0.3-2-1.8-3.7-3.9-3.9l-4.9-0.6
			C147.7,134.3,147.5,134.3,147.3,134.3"/>
		<path class="st0" d="M151.9,146.5L151.9,146.5L151.9,146.5 M144.6,145.1L144.6,145.1c0.5,0.4,1.2,0.6,1.8,0.6
			C145.8,145.7,145.2,145.5,144.6,145.1 M156.4,142.6c-0.3,2.2-2.3,3.9-4.5,3.9C154.1,146.4,156.1,144.8,156.4,142.6 M156.7,138.9
			c0,0.2,0,0.4,0,0.6C156.7,139.3,156.7,139.1,156.7,138.9 M145.4,134.7L145.4,134.7c0,3-0.4,6.6-0.8,10.4
			C145.1,141.3,145.4,137.7,145.4,134.7"/>
		<path class="st1" d="M143.7,136.1c-0.5,0.6-0.9,1.4-0.9,2.2l-0.3,2.5c-0.1,0.7,0,1.4,0.2,2L143.7,136.1"/>
		<path class="st0" d="M143.8,136l-0.1,0.1l-1,6.7c0,0.1,0.1,0.2,0.1,0.3L143.8,136"/>
		<path class="st1" d="M141.9,148.3c-0.3,0-0.5,0.1-0.7,0.3c-0.1,0.1-0.2,0.3-0.3,0.5l-0.1,0.6c-0.1,0.5,0.2,0.9,0.7,1.1
			L141.9,148.3"/>
		<path class="st0" d="M141.2,148.6c-0.2,0.1-0.3,0.4-0.3,0.6l-0.1,0.6c0,0.4,0.3,0.9,0.7,1.1v-0.1c-0.5-0.2-0.7-0.6-0.7-1.1
			l0.1-0.6C141,148.9,141.1,148.7,141.2,148.6"/>
		<path class="st1" d="M144.1,148.5c-0.1,0.8-0.3,1.7-0.4,2.5l9.9,1.3h0.1c0.5,0,0.9-0.4,1-0.9l0.1-0.6v-0.1c0-0.5-0.4-0.9-0.9-1
			L144.1,148.5"/>
		<path class="st0" d="M154.9,150.8L154.9,150.8l-0.1,0.7c-0.1,0.5-0.5,0.9-1,0.9h-0.1l-9.9-1.3v0.1l10,1.3h0.1c0.5,0,0.9-0.4,1-0.9
			l0.1-0.6L154.9,150.8"/>
		<path class="st0" d="M229.9,107c-0.1,0-0.3,0-0.4,0c0,0.9,0,1.7,0,2.6l23.8,4.2h0.1c0.5,0,0.9-0.3,1.1-0.9l0.1-0.6
			c0.1-0.5-0.3-1-0.9-1.2L229.9,107"/>
		<path class="st1" d="M229.5,113.6L229.5,113.6l23.6,4.2c-0.1-0.1-0.2-0.1-0.4-0.1L229.5,113.6"/>
		<path class="st0" d="M229.3,113.6c-0.1,0.9-0.1,1.7-0.3,2.7l23.3,4h0.1c0.5,0,0.9-0.3,1.1-0.9l0.1-0.6c0.1-0.4-0.1-0.8-0.4-1
			l-23.6-4.2v-0.1L229.3,113.6"/>
		<path class="st1" d="M194.4,123.3h-27c-1,0-1.9,0.9-1.9,1.9v0.9c0,1,0.9,1.9,1.9,1.9h27c1,0,1.9-0.9,1.9-1.9v-0.9
			C196.2,124.2,195.4,123.3,194.4,123.3"/>
		<path class="st0" d="M194.4,123.3h-27c-1,0-1.9,0.9-1.9,1.9v0.1c0-1,0.9-1.9,1.9-1.9L194.4,123.3c1,0.1,1.9,0.9,1.9,1.9v0.9v-1
			C196.2,124.1,195.4,123.3,194.4,123.3"/>
		<path class="st1" d="M194.4,130.3h-27c-0.8,0-1.4,0.5-1.7,1.1c0,0.1,0,0.3,0,0.4c0.1,0.8,0.1,1.6,0.1,2.3l0,0
			c0.4,0.5,0.9,0.9,1.6,0.9h27c1,0,1.9-0.9,1.9-1.9v-0.9C196.2,131.1,195.4,130.3,194.4,130.3"/>
		<path class="st0" d="M196.2,132.3v0.9c0,1-0.9,1.9-1.9,1.9h-27c-0.6,0-1.2-0.4-1.6-0.9l0,0v0.1c0.4,0.5,0.9,0.9,1.6,0.9h27
			c1,0,1.9-0.9,1.9-1.9V132.3 M165.6,131.5L165.6,131.5c0,0.1,0,0.3,0,0.4C165.7,131.8,165.6,131.6,165.6,131.5"/>
		<path class="st0" d="M443,221.1c-1.5,0.2-3,0.4-4.5,0.5l-2.5,18.3v0.2c-0.5,3.2-3.3,5.6-6.6,5.6h-0.1c-0.3,0-0.5,0-0.8-0.1
			l-3.7-0.5c-3.3-0.5-5.8-3.3-5.8-6.6c0-0.3,0-0.6,0.1-0.9l1.9-13.9c-1.7,0.2-3.4,0.4-5,0.6l1.2,10.6c0.5,4.8-3,9-7.7,9.6l-21.4,2.4
			c-0.3,0-0.6,0.1-0.9,0.1c-4.4,0-8.1-3.3-8.7-7.7l-1.2-10.3c-2.8,0.3-5.6,0.7-8.4,1v2.3v5.1c0,4.8-3.9,8.7-8.7,8.7h-23.7
			c-4.8,0-8.7-3.9-8.7-8.7v-2.7c-0.1,0-0.3,0-0.4,0.1v2.7c0,4.8-3.9,8.7-8.7,8.7h-20.1c-2.4,0-4.5-1-6.1-2.5c-0.4,1.5-1,2.9-1.8,4.1
			c0.8,0.6,1.7,1.1,2.6,1.6H324c1.3-0.6,2.5-1.4,3.6-2.4c1,1,2.3,1.8,3.6,2.4h34.3c4.5-2,7.7-6.6,7.7-11.9v-5.6l0.9,8.2
			c0.7,6.6,6.3,11.6,12.9,11.6c0.5,0,1,0,1.4-0.1l21.3-2.4c2.7-0.3,5.3-1.5,7.3-3.3c1.7,2.1,4.2,3.6,7,4l3.7,0.5
			c0.5,0.1,1,0.1,1.5,0.1c5.5,0,10.1-4.1,10.9-9.5L443,221.1 M536.7,210.6c-1.5,0.2-3,0.3-4.5,0.5l-4.7,27.9
			c-0.7,4.3-4.5,7.3-8.6,7.3c-0.4,0-0.9,0-1.3-0.1l-15.4-2.5c-4.7-0.8-7.9-5.3-7.1-10l1.9-11.2c-1.5-1.9-2.3-4.4-1.9-6.9l0.1-0.5
			c-0.6,0.1-1.3,0.1-2,0.2v0.9v21c0,4.8-3.9,8.7-8.7,8.7h-23.7c-4.8,0-8.7-3.9-8.7-8.7V220c-1.4,0.2-2.9,0.3-4.3,0.5v16.8
			c0,7.1,5.9,13,13,13h23.7c4.3,0,8.2-2.2,10.5-5.4c1.7,1.5,4,2.7,6.4,3l15.4,2.5c0.7,0.1,1.4,0.1,2.2,0.1c6.4,0,11.8-4.6,12.8-10.8
			L536.7,210.6 M585,205.8c-1.5,0.1-2.9,0.3-4.3,0.4v1v30c0,4.8-3.9,8.7-8.7,8.7h-11.5c-4.8,0-8.7-3.9-8.7-8.7v-28.1
			c-1.5,0.1-2.9,0.3-4.3,0.4v27.8c0,7.1,5.8,13,13,13H572c7.2,0,13-5.9,13-13V205.8"/>
		<g>
			<g>
				<g>
					<defs>
						<path id="SVGID_29_" d="M324.1,249h-30.7c1.6,0.7,3.4,1.1,5.3,1.1h20.1C320.7,250.2,322.5,249.8,324.1,249 M365.6,249h-34.3
							c1.6,0.7,3.4,1.1,5.3,1.1h23.7C362.2,250.2,364,249.8,365.6,249"/>
					</defs>
					<clipPath id="SVGID_30_">
						<use xlink:href="#SVGID_29_"  style="overflow:visible;"/>
					</clipPath>
					<g class="st16">
						<g>
							<g>
								<defs>
									<rect id="SVGID_31_" x="292.4" y="248.1" width="74.4" height="2.7"/>
								</defs>
								<clipPath id="SVGID_32_">
									<use xlink:href="#SVGID_31_"  style="overflow:visible;"/>
								</clipPath>
								<g transform="matrix(1 0 0 1 0 1.525879e-05)" class="st17">
									
										<image style="overflow:visible;enable-background:new    ;" width="84" height="5" xlink:href="8708F335.jpg"  transform="matrix(0.8849 0 0 0.8846 292.4857 247.2562)">
									</image>
								</g>
							</g>
						</g>
					</g>
				</g>
			</g>
		</g>
		<path class="st0" d="M288.7,238.3L288.7,238.3c0,1.8-0.6,3.4-1.5,4.8c0.2,0.4,0.4,0.7,0.6,1c0.6-1.2,0.9-2.5,0.9-3.9V238.3"/>
		<path class="st1" d="M327.5,203.3v17.9c0.1-0.2,0.3-0.4,0.4-0.5v-16.8C327.8,203.6,327.6,203.5,327.5,203.3"/>
		<path class="st0" d="M290.1,238.2c-0.5,0-1,0.1-1.5,0.1v1.9c0,1.4-0.3,2.7-0.9,3.9c0.8,1.3,1.9,2.4,3.1,3.4
			c0.8-1.2,1.4-2.6,1.8-4.1C291.3,242,290.4,240.2,290.1,238.2"/>
		<path class="st1" d="M485.9,106.3h-26.6c-0.8,0-1.4,0.5-1.7,1.2c0.1,0.9,0.1,1.9,0.1,2.8c0.2,0.2,0.4,0.4,0.6,0.6
			c0.7-0.2,1.5-0.3,2.3-0.3h23.7c0.9,0,1.8,0.2,2.7,0.4c0.7-0.3,1.1-1,1.1-1.7v-1.1c0-0.7-0.4-1.3-1-1.7
			C486.8,106.4,486.4,106.3,485.9,106.3 M544.1,96.6c0.5,0.2,1,0.4,1.4,0.7c-0.1-0.3-0.4-0.6-0.7-0.6L544.1,96.6 M521.4,92.6
			c-0.1,0.7-0.2,1.5-0.3,2.3c1.4-0.8,3-1.3,4.6-1.3c0.4,0,0.9,0,1.3,0.1l2.6,0.4L521.4,92.6 M525.7,89.2c-0.3,0-0.7,0-1,0l20.6,3.6
			h0.2c0.2,0,0.4-0.1,0.6-0.2c-0.9-0.4-1.9-0.7-2.9-0.8l-15.4-2.5C527.2,89.2,526.4,89.2,525.7,89.2"/>
		<path class="st0" d="M324.2,118.5c0,1.6-1.3,2.8-2.8,2.8h-24.2c-0.2-2.6-0.5-5-0.8-7.2h25c1.6,0,2.8,1.3,2.8,2.8V118.5
			 M324.2,129.2c0,1.6-1.3,2.8-2.8,2.8h-23.6c-0.1-2.5-0.1-4.9-0.3-7.2h23.9c1.6,0,2.8,1.3,2.8,2.8V129.2 M318.8,99.4h-20.1
			c-4.8,0-8.7,3.9-8.7,8.7v129.2c0,4.8,3.9,8.7,8.7,8.7h20.1c4.8,0,8.7-3.9,8.7-8.7V108C327.5,103.3,323.6,99.4,318.8,99.4"/>
		<path class="st0" d="M576.6,61.2c0,1.6-1.3,2.8-2.8,2.8h-15.2c-0.4,0-0.7-0.1-1-0.2c-0.1-2.3-0.4-4.5-0.7-6.5
			c0.4-0.4,1-0.5,1.7-0.5h15.2c1.6,0,2.8,1.3,2.8,2.8V61.2 M576.6,197.8c0,4.5-3.7,8.2-8.2,8.2h-4.5c-4.5,0-8.2-3.7-8.2-8.2v-7.1
			c0-4.5,3.7-8.2,8.2-8.2h4.5c4.5,0,8.2,3.7,8.2,8.2V197.8 M572,43.2h-11.5c-4.8,0-8.7,3.9-8.7,8.7v155.3c0,4.8,3.9,8.7,8.7,8.7H572
			c4.8,0,8.7-3.9,8.7-8.7V51.9C580.7,47.1,576.8,43.2,572,43.2 M571.9,102.4h-11.5c-4.8,0-8.7,3.9-8.7,8.7v155.3
			c0,4.8,3.9,8.7,8.7,8.7h11.5c4.8,0,8.7-3.9,8.7-8.7V111.1C580.6,106.3,576.7,102.4,571.9,102.4"/>
		<path class="st0" d="M448.7,137.1l-0.3,2.4c-0.3,2.5-2.6,4.2-5,3.9l-4.9-0.6c-0.6-0.1-1.2-0.3-1.8-0.6c0.5-3.8,0.8-7.4,0.8-10.4
			c0.7-0.4,1.6-0.5,2.5-0.4l4.9,0.6C447.2,132.3,449,134.6,448.7,137.1 M446.9,147.9l-0.1,0.6c-0.1,0.6-0.6,0.9-1.1,0.9l-10-1.3
			c0.1-0.9,0.3-1.7,0.4-2.6l9.9,1.3C446.5,146.9,446.9,147.4,446.9,147.9 M432.9,146.7l0.1-0.6c0.1-0.5,0.5-0.9,1-0.9l-0.4,2.5
			C433.1,147.6,432.9,147.2,432.9,146.7 M434.4,137.7l0.3-2.4c0.1-0.9,0.5-1.7,1-2.3l-1.1,7.1C434.4,139.3,434.4,138.5,434.4,137.7
			 M445.1,123.6l-3.7-0.5c-3.6-0.5-7,2.1-7.5,5.7L419,237.6c-0.5,3.6,2.1,7,5.7,7.5l3.7,0.5c3.6,0.5,7-2.1,7.5-5.7l14.9-108.8
			C451.3,127.5,448.7,124.2,445.1,123.6"/>
		<path class="st0" d="M362.5,225.3c-0.1,1.6-1.4,2.8-2.9,2.7l-25.1-1.2c-1.6-0.1-2.8-1.4-2.7-2.9l0.1-1.6c0.1-1.6,1.4-2.8,2.9-2.7
			l25.1,1.2c1.6,0.1,2.8,1.4,2.7,2.9L362.5,225.3 M337.9,141.4c0.2-4.8,4.3-8.5,9.1-8.3l7.9,0.4c4.8,0.2,8.5,4.3,8.3,9.1l-0.4,8.1
			c-0.2,4.8-4.3,8.5-9.1,8.2l-7.9-0.4c-4.8-0.2-8.5-4.3-8.3-9.1L337.9,141.4 M363,125l-23.7-1.1c-4.8-0.2-8.8,3.5-9.1,8.3l-4.7,99
			c-0.2,4.8,3.5,8.8,8.3,9.1l23.7,1.1c4.8,0.2,8.8-3.5,9.1-8.2l4.7-99C371.5,129.3,367.8,125.3,363,125"/>
		<path class="st0" d="M546.7,91.4l-0.1,0.6c-0.1,0.6-0.7,0.9-1.2,0.9l-23.8-4.2c0-0.9,0-1.8,0-2.6c0.2,0,0.2,0,0.4,0l23.9,4.2
			C546.4,90.3,546.7,90.8,546.7,91.4 M545.7,97.9l-0.1,0.6c-0.1,0.6-0.7,0.9-1.2,0.9l-23.3-4c0.1-0.9,0.2-1.8,0.3-2.7l23.5,4.1
			C545.4,96.8,545.7,97.3,545.7,97.9 M525.4,215.9l-0.2,0.6c-0.2,0.6-0.7,0.9-1.2,0.8l-23.8-4.9c-0.6-0.1-0.9-0.6-0.8-1.2l0.1-0.6
			c0.1-0.6,0.6-0.9,1.2-0.8l23.8,4.9C525.1,214.8,525.5,215.4,525.4,215.9 M524.1,222.3l-0.1,0.6c-0.2,0.6-0.7,0.9-1.2,0.8
			l-23.8-4.9c-0.6-0.1-0.9-0.6-0.8-1.2l0.1-0.6c0.1-0.6,0.6-0.9,1.2-0.8l23.8,4.9C523.8,221.3,524.2,221.8,524.1,222.3 M542.5,78.1
			l-15.4-2.5c-4.7-0.8-9.2,2.5-10,7.2L495,215.6c-0.8,4.7,2.5,9.2,7.1,10l15.4,2.5c4.7,0.8,9.2-2.5,10-7.1l22.2-132.9
			C550.4,83.4,547.2,78.9,542.5,78.1"/>
		<path class="st0" d="M488.2,104.2c0,1-0.9,1.9-1.9,1.9h-27c-1,0-1.9-0.9-1.9-1.9v-1c0-1,0.9-1.9,1.9-1.9h27c1,0,1.9,0.9,1.9,1.9
			V104.2 M488.2,111.2c0,1-0.9,1.9-1.9,1.9h-27c-0.6,0-1.2-0.4-1.6-0.9c-0.1-0.9-0.1-1.9-0.1-2.8c0.3-0.7,0.9-1.2,1.7-1.2h27
			c1,0,1.9,0.9,1.9,1.9V111.2 M488.2,208.2c0,1-0.9,1.9-1.9,1.9h-27c-1,0-1.9-0.9-1.9-1.9v-1c0-1,0.9-1.9,1.9-1.9h27
			c1,0,1.9,0.9,1.9,1.9V208.2 M488.2,215.2c0,1-0.9,1.9-1.9,1.9h-27c-1,0-1.9-0.9-1.9-1.9v-1c0-1,0.9-1.9,1.9-1.9h27
			c1,0,1.9,0.9,1.9,1.9V215.2 M484.4,91.5h-23.7c-4.8,0-8.7,3.9-8.7,8.7v118.1c0,4.8,3.9,8.7,8.7,8.7h23.7c4.8,0,8.7-3.9,8.7-8.7
			V100.2C493.1,95.4,489.2,91.5,484.4,91.5"/>
		<path class="st0" d="M411.2,222.7l-26.9,3.4c-1,0.1-1.9-0.6-2-1.6l-0.1-1c-0.1-1,0.6-1.9,1.6-2l26.9-3.4c1-0.1,1.9,0.6,2,1.6
			l0.1,1C412.9,221.6,412.2,222.5,411.2,222.7z M408.8,153.9c-0.5-4.8-4.8-8.2-9.6-7.7l-21.4,2.4c-4.8,0.5-8.2,4.8-7.6,9.6l8.2,72.9
			c0.5,4.8,4.8,8.2,9.6,7.7l21.4-2.4c4.8-0.5,8.2-4.8,7.6-9.6L408.8,153.9z"/>
		<path class="st1" d="M321.4,114.1h-25c0.4,2.2,0.6,4.6,0.8,7.2h24.2l0,0c0.8,0,1.5-0.3,2-0.9c0.5-0.5,0.8-1.2,0.8-1.9l0,0v-1.6
			C324.2,115.4,322.9,114.1,321.4,114.1"/>
		<path class="st0" d="M323.4,120.4c-0.5,0.5-1.2,0.9-2,0.9C322.2,121.3,322.9,121,323.4,120.4 M324.2,118.5L324.2,118.5
			L324.2,118.5 M324.2,116.9L324.2,116.9v1.6V116.9 M321.4,114.1h-25H321.4"/>
		<path class="st1" d="M321.4,124.8h-23.9c0.1,2.3,0.2,4.8,0.3,7.2h23.5c1.6,0,2.8-1.3,2.8-2.8v-1.6c0.1-1.4-1.1-2.6-2.4-2.8
			C321.6,124.8,321.5,124.8,321.4,124.8"/>
		<path class="st0" d="M573.7,86.8h-15.2c-0.7,0-1.2,0.2-1.7,0.5c0.3,1.9,0.5,4.2,0.7,6.5c0.3,0.1,0.7,0.2,1,0.2h15.2
			c1.6,0,2.8-1.3,2.8-2.8v-1.6C576.6,88,575.3,86.8,573.7,86.8"/>
		<path class="st1" d="M439.3,131.3c-0.7,0-1.3,0.2-1.9,0.4c0,3-0.3,6.6-0.8,10.4l0,0c0.6,0.4,1.1,0.6,1.8,0.6l4.9,0.6
			c0.2,0,0.4,0,0.5,0c1.2,0,2.3-0.5,3.1-1.2c0.7-0.7,1.2-1.6,1.4-2.6v-0.1l0.3-2.4c0.3-2.4-1.3-4.6-3.7-5h-0.2l-4.9-0.7
			C439.7,131.3,439.5,131.3,439.3,131.3"/>
		<path class="st0" d="M436.6,142.1L436.6,142.1c0.5,0.4,1.1,0.6,1.8,0.6l4.9,0.6c0.2,0,0.4,0,0.5,0l0,0c-0.2,0-0.4,0-0.5,0
			l-4.9-0.6C437.8,142.7,437.2,142.5,436.6,142.1 M448.4,139.6c-0.1,1.1-0.6,2-1.4,2.6C447.7,141.5,448.2,140.6,448.4,139.6
			 M437.4,131.7L437.4,131.7c0,3-0.4,6.6-0.8,10.4C437.1,138.3,437.4,134.7,437.4,131.7 M439.9,131.4L439.9,131.4l4.9,0.7h0.2h-0.2
			L439.9,131.4"/>
		<path class="st0" d="M435.8,133l-0.1,0.1l-1,6.7c0,0.1,0.1,0.2,0.1,0.3L435.8,133"/>
		<path class="st1" d="M433.9,145.3c-0.3,0-0.5,0.1-0.7,0.3c-0.1,0.1-0.2,0.3-0.3,0.5l-0.1,0.6c-0.1,0.5,0.2,0.9,0.7,1.1
			L433.9,145.3"/>
		<path class="st0" d="M433.2,145.6c-0.2,0.1-0.3,0.4-0.3,0.6l-0.1,0.6c0,0.4,0.3,0.9,0.7,1.1v-0.1c-0.5-0.2-0.7-0.6-0.7-1.1
			l0.1-0.6C433,145.9,433.1,145.7,433.2,145.6"/>
		<path class="st1" d="M436.1,145.5c-0.1,0.8-0.3,1.7-0.4,2.5l10,1.3h0.1c0.5,0,0.9-0.4,1-0.9l0.1-0.6v-0.1c0-0.5-0.4-0.9-0.9-1
			L436.1,145.5"/>
		<path class="st0" d="M446.9,147.8L446.9,147.8l-0.1,0.7c-0.1,0.5-0.5,0.9-1,0.9h-0.1l-10-1.3v0.1l10,1.3h0.1c0.5,0,0.9-0.4,1-0.9
			l0.1-0.6V147.8"/>
		<path class="st1" d="M546.2,108.4l-0.4,2.3c0.4-0.1,0.6-0.4,0.8-0.8l0.1-0.6C546.7,109,546.6,108.6,546.2,108.4"/>
		<path class="st0" d="M521.9,104c-0.2,0-0.3,0-0.4,0c0,0.9,0,1.7,0,2.6l23.8,4.2h0.1c0.1,0,0.2,0,0.3-0.1l0.4-2.3
			c-0.1-0.1-0.3-0.2-0.4-0.2L521.9,104"/>
		<path class="st1" d="M545.2,114.8l-0.4,2.4c0.4-0.1,0.7-0.4,0.8-0.8l0.1-0.6C545.7,115.5,545.5,115,545.2,114.8"/>
		<path class="st0" d="M521.3,110.6c-0.1,0.9-0.2,1.7-0.3,2.7l23.3,4h0.1c0.1,0,0.2,0,0.3-0.1l0.4-2.4c-0.1-0.1-0.2-0.1-0.4-0.1
			L521.3,110.6"/>
		<path class="st0" d="M486.4,120.3h-27c-1,0-1.9,0.9-1.9,1.9v1c0,1,0.9,1.9,1.9,1.9h27c1,0,1.9-0.9,1.9-1.9v-1
			C488.2,121.1,487.4,120.3,486.4,120.3"/>
		<path class="st0" d="M486.4,127.3h-27c-0.8,0-1.4,0.5-1.7,1.1c0.1,0.9,0.1,1.9,0.1,2.8c0.4,0.5,0.9,0.9,1.6,0.9h27
			c1,0,1.9-0.9,1.9-1.9v-1C488.2,128.1,487.4,127.3,486.4,127.3"/>
		<path class="st0" d="M1249.1,219.3l0.9,8c0.7,6.6,6.3,11.6,12.9,11.6c0.5,0,1,0,1.4-0.1l21.3-2.4c2.7-0.3,5.3-1.5,7.3-3.3
			c1.7,2.1,4.2,3.6,7,4l3.7,0.5c0.5,0.1,1,0.1,1.5,0.1c4.5,0,8.4-2.8,10.1-6.7c-1.3-0.3-2.7-0.5-4-0.8c-1.1,2.4-3.5,4-6.1,4
			c-0.3,0-0.6,0-0.9-0.1l-3.7-0.5c-3.3-0.5-5.7-3.3-5.8-6.5c-0.8-0.1-1.7-0.3-2.5-0.5c-1.2,2.8-3.8,4.9-7,5.3l-21.4,2.4
			c-0.3,0-0.6,0.1-0.9,0.1c-4.4,0-8.1-3.3-8.7-7.7l-0.8-6.7C1252.1,219.8,1250.5,219.6,1249.1,219.3 M1161.5,207.2v17.5
			c0,7.1,5.8,13,13,13h20.1c3.5,0,6.6-1.4,8.9-3.5c2.3,2.2,5.4,3.5,8.9,3.5h23.7c7.2,0,13-5.9,13-13v-5.4c-1.4-0.2-2.9-0.5-4.3-0.7
			v6.1c0,4.8-3.9,8.7-8.7,8.7h-23.7c-4.8,0-8.7-3.9-8.7-8.7v-12.2c-0.2,0-0.3,0-0.4-0.1v1.2v11c0,4.8-3.9,8.7-8.7,8.7h-20.1
			c-4.8,0-8.7-3.9-8.7-8.7v-17.1C1164.5,207.5,1163,207.4,1161.5,207.2"/>
		<path class="st0" d="M1200,95c0,1.6-1.3,2.8-2.8,2.8H1173c-0.2-2.6-0.5-5-0.8-7.2h25c1.6,0,2.8,1.3,2.8,2.8V95 M1200,105.7
			c0,1.6-1.3,2.8-2.8,2.8h-23.6c-0.1-2.5-0.1-4.9-0.3-7.2h23.9c1.6,0,2.8,1.3,2.8,2.8V105.7 M1200,207.6c0,1.6-1.3,2.8-2.8,2.8H1172
			c-1.6,0-2.8-1.3-2.8-2.8V206c0-1.6,1.3-2.8,2.8-2.8h25.1c1.6,0,2.8,1.3,2.8,2.8L1200,207.6L1200,207.6 M1169.1,104.2
			c0-0.7,0.2-1.2,0.6-1.7v4.9c-0.4-0.5-0.6-1-0.6-1.7V104.2 M1169.1,93.5c0-0.7,0.2-1.2,0.6-1.7v4.9c-0.4-0.5-0.6-1-0.6-1.7V93.5
			 M1194.6,75.9h-20.1c-4.8,0-8.7,3.9-8.7,8.7v129.2c0,4.8,3.9,8.7,8.7,8.7h20.1c4.8,0,8.7-3.9,8.7-8.7V84.6
			C1203.3,79.8,1199.4,75.9,1194.6,75.9"/>
		<path class="st0" d="M1324.5,125.6l-0.3,2.5c-0.3,2.5-2.6,4.2-5.1,3.9l-4.9-0.7c-0.7-0.1-1.2-0.3-1.8-0.6
			c0.5-3.8,0.8-7.4,0.8-10.4c0.7-0.4,1.6-0.5,2.5-0.4l4.9,0.7C1323,120.8,1324.8,123.2,1324.5,125.6 M1322.7,136.4l-0.1,0.6
			c-0.1,0.6-0.6,0.9-1.2,0.9l-10-1.3c0.1-0.9,0.3-1.7,0.4-2.6l9.9,1.3C1322.3,135.4,1322.7,135.9,1322.7,136.4 M1308.7,135.2
			l0.1-0.6c0.1-0.5,0.5-0.9,1-0.9l-0.4,2.5C1308.9,136.2,1308.6,135.7,1308.7,135.2 M1310.2,126.3l0.3-2.5c0.2-0.9,0.5-1.7,1-2.3
			l-1.1,7.1C1310.2,127.8,1310.2,127.1,1310.2,126.3 M1320.9,112.2l-3.7-0.5c-3.6-0.5-7,2.1-7.5,5.7l-14.9,108.8
			c-0.5,3.6,2.1,7,5.7,7.5l3.7,0.5c3.6,0.5,7-2.1,7.5-5.7l14.9-108.8C1327.1,116.1,1324.5,112.7,1320.9,112.2"/>
		<path class="st0" d="M1240.3,209.1c0,1.6-1.3,2.8-2.8,2.8h-25.1c-1.6,0-2.8-1.3-2.8-2.8v-1.6c0-1.6,1.3-2.8,2.8-2.8h25.1
			c1.6,0,2.8,1.3,2.8,2.8V209.1 M1211.7,124.4c0-4.8,3.9-8.7,8.7-8.7h7.9c4.8,0,8.7,3.9,8.7,8.7v8.1c0,4.8-3.9,8.7-8.7,8.7h-7.9
			c-4.8,0-8.7-3.9-8.7-8.7V124.4 M1236.1,108h-23.7c-4.8,0-8.7,3.9-8.7,8.7v99.1c0,4.8,3.9,8.7,8.7,8.7h23.7c4.8,0,8.7-3.9,8.7-8.7
			v-99.1C1244.7,111.9,1240.8,108,1236.1,108"/>
		<path class="st0" d="M1287,215.2l-26.9,3.4c-1,0.1-1.9-0.6-2-1.6l-0.1-1c-0.1-1,0.6-1.9,1.6-2l26.9-3.4c1-0.1,1.9,0.6,2,1.6l0.1,1
			C1288.7,214.1,1288,215.1,1287,215.2z M1284.6,146.5c-0.5-4.8-4.8-8.2-9.6-7.7l-21.4,2.4c-4.8,0.5-8.2,4.8-7.7,9.6l8.2,72.9
			c0.5,4.8,4.8,8.2,9.6,7.7l21.4-2.4c4.8-0.5,8.2-4.8,7.7-9.6L1284.6,146.5z"/>
		<path class="st1" d="M1268.9,148.5l-7.9,1.1c-4.4,0.6-7.6,4.5-7.5,8.8c1.1,4.2,5.2,7.1,9.6,6.5l7.9-1.1c4.4-0.6,7.6-4.5,7.5-8.8
			C1277.4,150.8,1273.3,147.9,1268.9,148.5"/>
		<path class="st0" d="M1278.4,157.3c-0.5,4.3-4.2,7.7-8.6,7.7h-7.9c-4.4,0-8.1-3.4-8.6-7.7c0,0.3-0.1,0.6-0.1,1v8.1
			c0,4.8,3.9,8.7,8.7,8.7h7.9c4.8,0,8.7-3.9,8.7-8.7v-8.1C1278.4,157.9,1278.4,157.6,1278.4,157.3"/>
		<path class="st0" d="M1234.4,153.7h-24c0.1,2.3,0.2,4.7,0.3,7.2h23.6c1.6,0,2.8-1.3,2.8-2.8v-1.6
			C1237.2,155,1235.9,153.7,1234.4,153.7"/>
		<path class="st1" d="M240.9,213.1l-0.6,3.6c0.5-0.3,0.9-0.9,0.9-1.6v-1C241.2,213.8,241.1,213.4,240.9,213.1"/>
		<path class="st0" d="M239.4,212.2h-27c-1,0-1.9,0.9-1.9,1.9v1c0,1,0.9,1.9,1.9,1.9h27c0.4,0,0.7-0.1,1-0.3l0.6-3.6
			C240.6,212.6,240,212.2,239.4,212.2"/>
		<path class="st0" d="M239.4,219.2h-27c-1,0-1.9,0.9-1.9,1.9v1c0,1,0.9,1.9,1.9,1.9h26.8l0.8-4.7
			C239.7,219.3,239.6,219.2,239.4,219.2"/>
		<path class="st0" d="M260.3,285.2c-1-0.1-1.8-1-1.7-2l1.9-26.9c0.1-1,1-1.8,2-1.7l1,0.1c1,0.1,1.8,1,1.7,2l-1.9,26.9
			c-0.1,1-1,1.8-2,1.7L260.3,285.2 M253.4,284.7c-1-0.1-1.8-1-1.7-2l1.9-26.9c0-0.6,0.4-1.2,1-1.5c0.9,0,1.9,0.1,2.8,0
			c0.6,0.3,1.1,1,1,1.8l-1.9,26.9c-0.1,1-1,1.8-2,1.7H253.4 M158.2,278c-1-0.1-1.8-1-1.7-2l1.9-26.9c0.1-1,1-1.8,2-1.7l1,0.1
			c1,0.1,1.8,1,1.7,2l-1.9,26.9c-0.1,1-1,1.8-2,1.7L158.2,278 M151.3,277.6c-1-0.1-1.8-1-1.7-2l1.9-26.9c0.1-1,1-1.8,2-1.7l1,0.1
			c1,0.1,1.8,1,1.7,2l-1.9,26.9c-0.1,1-1,1.8-2,1.7L151.3,277.6 M273,282.2l1.7-23.6c0.3-4.8-3.2-8.9-7.9-9.2l-115.9-8.1
			c-4.7-0.3-8.8,3.3-9.1,8.1l-1.7,23.6c-0.3,4.8,3.2,8.9,7.9,9.2l115.9,8.1C268.6,290.6,272.7,287,273,282.2"/>
		<path class="st0" d="M370.1,285.2c-1-0.1-1.8-1-1.7-2l1.9-26.9c0.1-1,1-1.8,2-1.7l1,0.1c1,0.1,1.8,1,1.7,2l-1.9,26.9
			c-0.1,1-1,1.8-2,1.7L370.1,285.2 M363.2,284.7c-1-0.1-1.8-1-1.7-2l1.9-26.9c0-0.6,0.4-1.2,1-1.5c0.9,0,1.9,0.1,2.8,0
			c0.6,0.3,1.1,1,1,1.8l-1.9,26.9c-0.1,1-1,1.8-2,1.7H363.2 M268,278c-1-0.1-1.8-1-1.7-2l1.9-26.9c0.1-1,1-1.8,2-1.7l1,0.1
			c1,0.1,1.8,1,1.7,2l-1.9,26.9c-0.1,1-1,1.8-2,1.7L268,278 M261.1,277.6c-1-0.1-1.8-1-1.7-2l1.9-26.9c0.1-1,1-1.8,2-1.7l1,0.1
			c1,0.1,1.8,1,1.7,2l-1.9,26.9c-0.1,1-1,1.8-2,1.7L261.1,277.6 M382.9,282.2l1.7-23.6c0.3-4.8-3.2-8.9-7.9-9.2l-115.9-8.1
			c-4.7-0.3-8.8,3.3-9.1,8.1L250,273c-0.3,4.8,3.2,8.9,7.9,9.2l115.9,8.1C378.4,290.6,382.5,287,382.9,282.2"/>
		<path class="st0" d="M1363.1,124.1c0,1.6-1.3,2.8-2.8,2.8h-24.2c-0.2-2.6-0.5-5-0.8-7.2h25c1.6,0,2.8,1.3,2.8,2.8V124.1
			 M1363.1,134.8c0,1.6-1.3,2.8-2.8,2.8h-23.6c-0.1-2.5-0.1-4.9-0.3-7.2h23.9c1.6,0,2.8,1.3,2.8,2.8V134.8 M1363.1,236.6
			c0,1.6-1.3,2.8-2.8,2.8H1335c-1.6,0-2.8-1.3-2.8-2.8V235c0-1.6,1.3-2.8,2.8-2.8h25.1c1.6,0,2.8,1.3,2.8,2.8L1363.1,236.6
			L1363.1,236.6 M1332.2,133.2c0-0.7,0.2-1.2,0.6-1.7v4.9c-0.4-0.5-0.6-1-0.6-1.7V133.2 M1332.2,122.5c0-0.7,0.2-1.2,0.6-1.7v4.9
			c-0.4-0.5-0.6-1-0.6-1.7V122.5 M1357.7,104.9h-20.1c-4.8,0-8.7,3.9-8.7,8.7v129.2c0,4.8,3.9,8.7,8.7,8.7h20.1
			c4.8,0,8.7-3.9,8.7-8.7V113.6C1366.4,108.8,1362.5,104.9,1357.7,104.9"/>
	</g>
	<g>
		<path class="st18" d="M863.8,207l13.4,27.4h15c0-18.1,0-36.3,0-54.4L863.8,207"/>
		<path class="st19" d="M920.3,206.6l-13.6,27.9h-14.5c0-18.1,0-36.3,0-54.4L920.3,206.6"/>
		<path class="st20" d="M892.2,180.1c-9.5,9-19,18-28.4,27L816.2,108C841.5,132,866.9,156,892.2,180.1"/>
		<path class="st21" d="M892.1,265c4.9-10.2,9.7-20.3,14.6-30.5h-14.5C892.2,244.7,892.2,254.8,892.1,265"/>
		<path class="st20" d="M892.1,265c-5-10.2-10-20.3-15-30.5h15C892.2,244.7,892.1,254.8,892.1,265"/>
		<path class="st21" d="M892.2,180.1l28,26.5c16-32.9,32-65.8,48-98.6L892.2,180.1"/>
		<polyline class="st22" points="832,107.8 892.1,164.9 892.1,146.4 832,107.8 		"/>
		<polyline class="st23" points="952.2,107.8 892.1,164.9 892.1,146.4 952.2,107.8 		"/>
		<path class="st24" d="M848.2,106.2l43.9,26.1c0-4.2,0-8.4,0-12.6L848.2,106.2"/>
		<path class="st25" d="M936,106.2l-43.9,26.1c0-4.2,0-8.4,0-12.6L936,106.2"/>
		<polyline class="st26" points="892.1,104 892.2,110.4 915.5,100.6 892.1,104 		"/>
		<path class="st27" d="M892.1,104c0,2.2,0,4.3,0,6.5l-23.5-9.7L892.1,104"/>
		<path class="st28" d="M892.1,80.8c-0.7,0-1.3,0.1-2,0.4c-3.3,1.2-4.2,5-4.4,5.6c0.2,0.6,1.1,4.1,4.3,5.4c0.7,0.3,1.4,0.4,2.1,0.5
			L892.1,80.8z"/>
		<path class="st29" d="M892.1,92.6c0.7,0,1.3-0.1,2-0.4c3.3-1.2,4.2-5,4.4-5.6c-0.2-0.6-1.1-4.1-4.3-5.4c-0.7-0.3-1.4-0.4-2.1-0.5
			L892.1,92.6z"/>
	</g>
</g>
</svg>
