<?xml version="1.0" encoding="utf-8"?>
<!-- Generator: Adobe Illustrator 23.0.0, SVG Export Plug-In . SVG Version: 6.00 Build 0)  -->
<svg version="1.1" id="Layer_1" xmlns="http://www.w3.org/2000/svg" xmlns:xlink="http://www.w3.org/1999/xlink" x="0px" y="0px"
	 viewBox="0 0 15.4 15" style="enable-background:new 0 0 15.4 15;" xml:space="preserve">
<style type="text/css">
	.st0{fill:#FE5F55;}
	.st1{fill:#FFFFFF;}
</style>
<path class="st0" d="M7.74,0.51c0.46,0,0.91,0.04,1.35,0.13c0.45,0.09,0.88,0.22,1.3,0.39c0.42,0.17,0.82,0.39,1.2,0.64
	c0.38,0.25,0.73,0.54,1.05,0.86c0.32,0.32,0.61,0.67,0.86,1.05c0.25,0.38,0.47,0.78,0.64,1.2c0.17,0.42,0.31,0.85,0.39,1.3
	c0.09,0.45,0.13,0.9,0.13,1.35c0,0.46-0.04,0.91-0.13,1.35c-0.09,0.45-0.22,0.88-0.39,1.3c-0.17,0.42-0.39,0.82-0.64,1.2
	c-0.25,0.38-0.54,0.73-0.86,1.05c-0.32,0.32-0.67,0.61-1.05,0.86c-0.38,0.25-0.78,0.47-1.2,0.64c-0.42,0.17-0.85,0.31-1.3,0.39
	c-0.45,0.09-0.9,0.13-1.35,0.13c-0.46,0-0.91-0.04-1.35-0.13c-0.45-0.09-0.88-0.22-1.3-0.39c-0.42-0.17-0.82-0.39-1.2-0.64
	c-0.38-0.25-0.73-0.54-1.05-0.86c-0.32-0.32-0.61-0.67-0.86-1.05c-0.25-0.38-0.47-0.78-0.64-1.2C1.15,9.68,1.02,9.25,0.93,8.8
	C0.84,8.36,0.8,7.91,0.8,7.45c0-0.46,0.04-0.91,0.13-1.35c0.09-0.45,0.22-0.88,0.39-1.3c0.17-0.42,0.39-0.82,0.64-1.2
	s0.54-0.73,0.86-1.05c0.32-0.32,0.67-0.61,1.05-0.86c0.38-0.25,0.78-0.47,1.2-0.64c0.42-0.17,0.85-0.31,1.3-0.39
	C6.83,0.55,7.28,0.51,7.74,0.51z"/>
<polygon class="st1" points="9.16,3.38 5.11,7.41 9.16,11.43 "/>
</svg>
