<?xml version="1.0" encoding="utf-8"?>
<!-- Generator: Adobe Illustrator 23.0.0, SVG Export Plug-In . SVG Version: 6.00 Build 0)  -->
<svg version="1.1" id="Layer_1" xmlns="http://www.w3.org/2000/svg" xmlns:xlink="http://www.w3.org/1999/xlink" x="0px" y="0px"
	 viewBox="0 0 23 15" style="enable-background:new 0 0 23 15;" xml:space="preserve">
<style type="text/css">
	.st0{fill:#FE5F55;}
</style>
<path class="st0" d="M15.5,8.5c-0.3,0-0.6,0-1,0c1.2,0.8,2,2,2,3.5v2.5h6V12C22.5,9.7,17.8,8.5,15.5,8.5z M7.5,8.5
	c-2.3,0-7,1.2-7,3.5v2.5h14V12C14.5,9.7,9.8,8.5,7.5,8.5z M7.5,6.5c1.7,0,3-1.3,3-3c0-1.7-1.3-3-3-3c-1.7,0-3,1.3-3,3
	C4.5,5.2,5.8,6.5,7.5,6.5z M15.5,6.5c1.7,0,3-1.3,3-3c0-1.7-1.3-3-3-3c-1.7,0-3,1.3-3,3C12.5,5.2,13.8,6.5,15.5,6.5z"/>
</svg>
