<?xml version="1.0" encoding="utf-8"?>
<!-- Generator: Adobe Illustrator 23.0.0, SVG Export Plug-In . SVG Version: 6.00 Build 0)  -->
<svg version="1.1" id="Layer_1" xmlns="http://www.w3.org/2000/svg" xmlns:xlink="http://www.w3.org/1999/xlink" x="0px" y="0px"
	 viewBox="0 0 24.6 14.4" style="enable-background:new 0 0 24.6 14.4;" xml:space="preserve">
<style type="text/css">
	.st0{fill:#F65E55;}
</style>
<path class="st0" d="M7.3,9.2c-1.1,0-2-0.9-2-2c0-1.1,0.9-2,2-2c1.1,0,2,0.9,2,2C9.3,8.3,8.4,9.2,7.3,9.2z M13,5.2
	c-0.8-2.3-3-4-5.6-4c-3.3,0-6,2.7-6,6c0,3.3,2.7,6,6,6c2.6,0,4.8-1.7,5.6-4h4.4v4h4v-4h2v-4H13z"/>
</svg>
