<?xml version="1.0" encoding="utf-8"?>
<!-- Generator: Adobe Illustrator 23.0.0, SVG Export Plug-In . SVG Version: 6.00 Build 0)  -->
<svg version="1.1" id="Layer_1" xmlns="http://www.w3.org/2000/svg" xmlns:xlink="http://www.w3.org/1999/xlink" x="0px" y="0px"
	 viewBox="0 0 41 50.8" style="enable-background:new 0 0 41 50.8;" xml:space="preserve">
<style type="text/css">
	.st0{fill:#F65E55;}
</style>
<path class="st0" d="M26.3,18.9H14.8v-3.7c0-3.2,2.6-5.7,5.7-5.7c3.2,0,5.7,2.6,5.7,5.7V18.9z M20.5,35.6c-2,0-3.7-1.7-3.7-3.7
	c0-2,1.7-3.7,3.7-3.7c2,0,3.7,1.7,3.7,3.7C24.2,33.9,22.6,35.6,20.5,35.6z M31.6,18.9h-1.9v-3.7c0-5.1-4.1-9.3-9.3-9.3
	c-5.1,0-9.3,4.1-9.3,9.3v3.7H9.4c-2,0-3.7,1.7-3.7,3.7v18.5c0,2,1.7,3.7,3.7,3.7h22.2c2,0,3.7-1.7,3.7-3.7V22.6
	C35.3,20.6,33.7,18.9,31.6,18.9z"/>
</svg>
