<?xml version="1.0" encoding="utf-8"?>
<!-- Generator: Adobe Illustrator 23.0.0, SVG Export Plug-In . SVG Version: 6.00 Build 0)  -->
<svg version="1.1" id="Layer_1" xmlns="http://www.w3.org/2000/svg" xmlns:xlink="http://www.w3.org/1999/xlink" x="0px" y="0px"
	 viewBox="0 0 21.3 21.8" style="enable-background:new 0 0 21.3 21.8;" xml:space="preserve">
<style type="text/css">
	.st0{fill:#F65E55;}
</style>
<path class="st0" d="M4.7,15.9c0-2,4-3.1,6-3.1s6,1.1,6,3.1v1h-12V15.9z M13.7,7.9c0,1.7-1.3,3-3,3c-1.7,0-3-1.3-3-3
	c0-1.7,1.3-3,3-3C12.4,4.9,13.7,6.2,13.7,7.9z M1.7,3.9v14c0,1.1,0.9,2,2,2h14c1.1,0,2-0.9,2-2v-14c0-1.1-0.9-2-2-2h-14
	C2.6,1.9,1.7,2.8,1.7,3.9z"/>
</svg>
