<?xml version="1.0" encoding="utf-8"?>
<!-- Generator: Adobe Illustrator 23.0.0, SVG Export Plug-In . SVG Version: 6.00 Build 0)  -->
<svg version="1.1" id="Layer_1" xmlns="http://www.w3.org/2000/svg" xmlns:xlink="http://www.w3.org/1999/xlink" x="0px" y="0px"
	 viewBox="0 0 24.6 17.5" style="enable-background:new 0 0 24.6 17.5;" xml:space="preserve">
<style type="text/css">
	.st0{fill:#F65E55;}
</style>
<path class="st0" d="M16.3,9.9c-0.3,0-0.6,0-1,0c1.2,0.8,2,2,2,3.5v2.5h6v-2.5C23.3,11.1,18.6,9.9,16.3,9.9z M8.3,9.9
	c-2.3,0-7,1.2-7,3.5v2.5h14v-2.5C15.3,11.1,10.6,9.9,8.3,9.9z M8.3,7.9c1.7,0,3-1.3,3-3c0-1.7-1.3-3-3-3c-1.7,0-3,1.3-3,3
	C5.3,6.6,6.6,7.9,8.3,7.9z M16.3,7.9c1.7,0,3-1.3,3-3c0-1.7-1.3-3-3-3c-1.7,0-3,1.3-3,3C13.3,6.6,14.6,7.9,16.3,7.9z"/>
</svg>
