<?xml version="1.0" encoding="utf-8"?>
<!-- Generator: Adobe Illustrator 23.0.0, SVG Export Plug-In . SVG Version: 6.00 Build 0)  -->
<svg version="1.1" id="Layer_1" xmlns="http://www.w3.org/2000/svg" xmlns:xlink="http://www.w3.org/1999/xlink" x="0px" y="0px"
	 viewBox="0 0 15.4 15" style="enable-background:new 0 0 15.4 15;" xml:space="preserve">
<style type="text/css">
	.st0{fill:#F65E55;}
</style>
<path class="st0" d="M7.7,12.4c-1.7,0-3.2-0.9-4.1-2.2c0-1.4,2.7-2.1,4.1-2.1c1.4,0,4.1,0.7,4.1,2.1C10.9,11.5,9.4,12.4,7.7,12.4z
	 M7.7,2.7c1.1,0,2,0.9,2,2c0,1.1-0.9,2-2,2c-1.1,0-2-0.9-2-2C5.7,3.6,6.6,2.7,7.7,2.7z M7.7,0.7c-3.8,0-6.8,3-6.8,6.8
	c0,3.8,3,6.8,6.8,6.8c3.8,0,6.8-3,6.8-6.8C14.5,3.7,11.5,0.7,7.7,0.7z"/>
</svg>
