<?xml version="1.0" encoding="utf-8"?>
<!-- Generator: Adobe Illustrator 23.0.0, SVG Export Plug-In . SVG Version: 6.00 Build 0)  -->
<svg version="1.1" id="Layer_1" xmlns="http://www.w3.org/2000/svg" xmlns:xlink="http://www.w3.org/1999/xlink" x="0px" y="0px"
	 viewBox="0 0 492.1 430.2" style="enable-background:new 0 0 492.1 430.2;" xml:space="preserve">
<style type="text/css">
	.st0{clip-path:url(#SVGID_2_);fill:#E0E0E0;}
	.st1{clip-path:url(#SVGID_2_);fill:#FF725E;}
	.st2{opacity:0.6;clip-path:url(#SVGID_2_);enable-background:new    ;}
	.st3{clip-path:url(#SVGID_4_);}
	.st4{opacity:0.302;clip-path:url(#SVGID_2_);}
	.st5{opacity:0.502;clip-path:url(#SVGID_2_);}
	.st6{clip-path:url(#SVGID_2_);fill:#263238;}
	.st7{opacity:0.702;clip-path:url(#SVGID_2_);}
	.st8{clip-path:url(#SVGID_2_);fill:#FAFAFA;}
	.st9{clip-path:url(#SVGID_2_);fill:#F0F0F0;}
	.st10{opacity:0.4;clip-path:url(#SVGID_2_);enable-background:new    ;}
	.st11{clip-path:url(#SVGID_6_);fill:#FFFFFF;}
	.st12{opacity:0.149;clip-path:url(#SVGID_2_);}
	.st13{opacity:0.502;clip-path:url(#SVGID_2_);fill:#FFFFFF;}
	.st14{clip-path:url(#SVGID_2_);fill:#455A64;}
	.st15{clip-path:url(#SVGID_2_);fill:#37474F;}
	.st16{opacity:0.4;clip-path:url(#SVGID_2_);fill:#FFFFFF;}
	.st17{opacity:0.2;clip-path:url(#SVGID_2_);}
	.st18{opacity:0.102;clip-path:url(#SVGID_2_);}
	.st19{clip-path:url(#SVGID_2_);fill:#FFFFFF;}
	.st20{clip-path:url(#SVGID_2_);fill:#E6E6E6;}
	.st21{clip-path:url(#SVGID_2_);fill:#FFA8A7;}
	.st22{clip-path:url(#SVGID_2_);fill:#F28F8F;}
	.st23{opacity:0.4;clip-path:url(#SVGID_2_);}
</style>
<g>
	<defs>
		<rect id="SVGID_1_" x="-791.2" y="-255" width="1366" height="766"/>
	</defs>
	<clipPath id="SVGID_2_">
		<use xlink:href="#SVGID_1_"  style="overflow:visible;"/>
	</clipPath>
	<ellipse class="st0" cx="407.7" cy="375" rx="39.6" ry="22.8"/>
	<path class="st0" d="M65.5,392.4l-40.6-23.5c-2.3-1.3-2.3-3.5,0-4.8l236.4-136.5c2.6-1.3,5.7-1.3,8.3,0l40.7,23.5
		c2.3,1.3,2.3,3.5,0,4.8L73.8,392.4C71.2,393.7,68.1,393.7,65.5,392.4L65.5,392.4z"/>
	<path class="st1" d="M211.6,350.6l34.9-20.2c3.6-2.1,5.4-4.8,5.4-7.5c0-2.7,0-4.9,0-4.9l-36.2-20.4c-2.1-1.3-3.3-3.6-3.5-6v-43.1
		l-61,35.3v43.1c0.1,2.4,1.4,4.7,3.5,6l30.8,17.8C192.7,354.7,204.4,354.7,211.6,350.6z"/>
	<g class="st2">
		<g>
			<defs>
				<rect id="SVGID_3_" x="-791.2" y="-255" width="1366" height="766"/>
			</defs>
			<clipPath id="SVGID_4_">
				<use xlink:href="#SVGID_3_"  style="overflow:visible;"/>
			</clipPath>
			<path class="st3" d="M211.6,350.6l34.9-20.2c3.6-2.1,5.4-4.8,5.4-7.5c0-2.7,0-4.9,0-4.9l-36.2-20.4c-2.1-1.3-3.3-3.6-3.5-6v-43.1
				l-61,35.3v43.1c0.1,2.4,1.4,4.7,3.5,6l30.8,17.8C192.7,354.7,204.4,354.7,211.6,350.6z"/>
		</g>
	</g>
	<path class="st4" d="M165.9,334.4v4.8l-11.2-6.5c-2-1.3-3.3-3.6-3.5-6v-43.1l11.6-6.7c0.2,3,0.5,6,0.8,9l-8.2,4.7v33.7
		c0.1,2.4,1.4,4.7,3.5,6L165.9,334.4z"/>
	<path class="st1" d="M155.4,324.4c0.1,2.4,1.4,4.7,3.5,6l26.6,15.3c7.2,4.2,18.9,4.2,26.1,0l35-20.2c7.2-4.2,7.2-10.9,0-15.1
		L220,295.1c-2-1.3-3.3-3.6-3.5-6v-33.7l-61,35.3L155.4,324.4z"/>
	<path class="st4" d="M155.4,324.4c0.1,2.4,1.4,4.7,3.5,6l26.6,15.3c7.2,4.2,18.9,4.2,26.1,0l35-20.2c7.2-4.2,7.2-10.9,0-15.1
		L220,295.1c-2-1.3-3.3-3.6-3.5-6v-33.7l-61,35.3L155.4,324.4z"/>
	<path class="st5" d="M227,299.2l-7.1-4.1c-2-1.3-3.3-3.6-3.5-6v-33.7l-61,35.3v33.7c0.1,2.4,1.4,4.7,3.5,6l7,4L227,299.2z"/>
	<path class="st1" d="M252,318v4.9c0,2.7-1.8,5.4-5.4,7.5l-35,20.2c-3.8,2-8.1,3.1-12.5,3.1v-4.8c4.3,0,8.6-1,12.5-3.1l35-20.2
		C250.1,323.4,252,320.7,252,318z"/>
	<path class="st5" d="M252,318v4.9c0,2.7-1.8,5.4-5.4,7.5l-35,20.2c-3.8,2-8.1,3.1-12.5,3.1v-4.8c4.3,0,8.6-1,12.5-3.1l35-20.2
		C250.1,323.4,252,320.7,252,318z"/>
	<path class="st1" d="M57.4,366.2c2.7,1.3,5.8,1.2,8.4-0.2l236-136.2c2.6-1.7,4.2-4.5,4.3-7.5V31.3c-0.1-3-1.6-5.7-4.1-7.4
		c-2.7-1.3-5.8-1.2-8.4,0.2l-236,136.3c-2.6,1.7-4.2,4.5-4.3,7.5v190.9C53.5,361.8,55,364.5,57.4,366.2L57.4,366.2z"/>
	<path class="st1" d="M65.9,366l236-136.2c2.6-1.7,4.2-4.5,4.3-7.5V31.3c0-2.8-1.9-3.9-4.3-2.5l-236,136.3c-2.6,1.7-4.2,4.5-4.3,7.5
		v190.9C61.5,366.3,63.5,367.4,65.9,366z"/>
	<path class="st5" d="M65.9,366l236-136.2c2.6-1.7,4.2-4.5,4.3-7.5V31.3c0-2.8-1.9-3.9-4.3-2.5l-236,136.3c-2.6,1.7-4.2,4.5-4.3,7.5
		v190.9C61.5,366.3,63.5,367.4,65.9,366z"/>
	<path class="st1" d="M65.2,371c-2.5,1.1-5.4,1-7.8-0.2c-2.4-1.7-3.9-4.4-4-7.4l0-17.4l8.1,4.7v17.4C61.5,370.7,63.1,371.8,65.2,371
		z"/>
	<path class="st5" d="M65.2,371c-2.5,1.1-5.4,1-7.8-0.2c-2.4-1.7-3.9-4.4-4-7.4l0-17.4l8.1,4.7v17.4C61.5,370.7,63.1,371.8,65.2,371
		z"/>
	<path class="st1" d="M61.5,350.8v17.4c0,2.8,2,3.9,4.3,2.5l236-136.2c2.6-1.7,4.2-4.4,4.3-7.5v-17.5L61.5,350.8z"/>
	<path class="st4" d="M61.5,350.7v17.4c0,2.8,2,3.9,4.3,2.5l236-136.2c2.6-1.7,4.2-4.4,4.3-7.5v-17.5L61.5,350.7z"/>
	<path class="st1" d="M69.7,328.9V175.3c0.1-1.8,1.1-3.5,2.6-4.5L295.4,41.9c1.4-0.8,2.6-0.2,2.6,1.5v153.7
		c-0.1,1.8-1.1,3.5-2.6,4.5L72.3,330.5C70.8,331.3,69.7,330.6,69.7,328.9z"/>
	<path class="st6" d="M69.7,328.9V175.3c0.1-1.8,1.1-3.5,2.6-4.5L295.4,41.9c1.4-0.8,2.6-0.2,2.6,1.5v153.7
		c-0.1,1.8-1.1,3.5-2.6,4.5L72.3,330.5C70.8,331.3,69.7,330.6,69.7,328.9z"/>
	<path class="st1" d="M183.9,285.7c-2.4,1.6-3.9,4.2-4.1,7.1c0,2.6,1.8,3.7,4.1,2.4c2.4-1.6,3.9-4.2,4.1-7.1
		C187.9,285.4,186.1,284.4,183.9,285.7z"/>
	<path class="st7" d="M62.8,168.3c-0.8,1.3-1.2,2.8-1.3,4.3v178.2l-8.1-4.7V167.9c0.1-1.5,0.5-3,1.3-4.3L62.8,168.3z"/>
	<path class="st4" d="M306.2,30.6c-0.3-2.2-2.1-3-4.3-1.8l-236,136.3c-1.3,0.8-2.3,1.9-3.1,3.2l-8.2-4.7c0.7-1.3,1.8-2.4,3.1-3.2
		l236-136.2c2.6-1.4,5.8-1.5,8.4-0.2C304.4,25.5,305.8,27.9,306.2,30.6L306.2,30.6z"/>
	<path class="st1" d="M318.9,54.1c-0.7-0.4-1.6-0.3-2.2,0.2L94,182.9c-1.8,1.2-2.9,3.1-3,5.3v152.7c-0.1,1,0.4,2.1,1.3,2.6
		c0.5,0.3,3.1,1.8,3.9,2.2c0.6,0.3,1.2,0.2,1.8-0.1L320.6,217c1.8-1.2,2.9-3.1,3-5.3V58.3c0.1-0.8-0.3-1.6-0.9-2
		C322.1,55.9,319.5,54.4,318.9,54.1z"/>
	<path class="st8" d="M97.9,185.1L320.6,56.5c1.7-1,3-0.2,3,1.8v153.5c-0.1,2.1-1.2,4.1-3,5.3L97.9,345.6c-1.7,1-3-0.6-3-2.5V190.4
		C95,188.2,96.1,186.3,97.9,185.1L97.9,185.1z"/>
	<path class="st0" d="M321.9,56.1c-0.5,0-1,0.2-1.4,0.4L97.9,185.1c-1.8,1.2-2.9,3.1-3,5.3v152.7c0,1.5,0.9,2.8,2,2.8
		c0.4,0,0.7-0.1,1-0.3L320.6,217c1.8-1.2,2.9-3.1,3-5.3V58.3C323.6,56.9,322.9,56.1,321.9,56.1L321.9,56.1z M321.9,57.1
		c0.6,0,0.7,0.7,0.7,1.2v153.5c-0.1,1.8-1.1,3.4-2.6,4.4L97.4,344.8c-0.1,0.1-0.3,0.2-0.5,0.2c-0.6,0-1-0.9-1-1.8V190.4
		c0.1-1.8,1-3.4,2.5-4.4L321.1,57.4C321.3,57.2,321.6,57.1,321.9,57.1"/>
	<path class="st9" d="M92.2,343.5c0.3,0.2,2.7,1.5,3.7,2.1c-0.8-0.6-1.2-1.6-1.1-2.6V200.3l-3.9-2.3v142.8
		C90.9,341.9,91.4,342.9,92.2,343.5L92.2,343.5z"/>
	<path class="st1" d="M323.6,58.2c0-1.9-1.4-2.7-3-1.7L97.9,185.1c-1.8,1.2-2.9,3.1-3,5.3v10L323.6,68.2V58.2z"/>
	<g class="st10">
		<g>
			<defs>
				<rect id="SVGID_5_" x="-791.2" y="-255" width="1366" height="766"/>
			</defs>
			<clipPath id="SVGID_6_">
				<use xlink:href="#SVGID_5_"  style="overflow:visible;"/>
			</clipPath>
			<path class="st11" d="M320.6,56.5L97.9,185.1c-0.9,0.6-1.6,1.3-2.1,2.3l-3.9-2.3c0.5-0.9,1.2-1.6,2.1-2.2L316.7,54.3
				c0.6-0.5,1.5-0.5,2.2-0.2c0.5,0.3,3.1,1.8,3.7,2.1C321.9,56,321.2,56.1,320.6,56.5L320.6,56.5z"/>
		</g>
	</g>
	<path class="st12" d="M90.9,198.1v-9.9c0-1.1,0.4-2.1,0.9-3.1l3.9,2.2c-0.6,0.9-0.9,1.9-0.9,3l0,10L90.9,198.1z"/>
	<path class="st1" d="M276.7,173.3l-133.4,77c-1.3,0.9-2.1,2.3-2.2,3.9v38.2c0.1,1.6,0.9,3,2.2,3.9l3.9,2.2c1.4,0.7,3.1,0.7,4.5,0
		l133.3-77c1.3-0.9,2.1-2.3,2.2-3.9v-38.3c-0.1-1.6-0.9-3-2.2-3.9l-3.9-2.2C279.7,172.6,278,172.6,276.7,173.3L276.7,173.3z"/>
	<path class="st13" d="M287.2,179.1c-0.2-1.1-1.1-1.6-2.2-0.9l-133.4,77c-0.7,0.4-1.2,1-1.6,1.7l-8.3-4.8c0.4-0.7,0.9-1.2,1.6-1.6
		l133.4-77c1.4-0.7,3.1-0.7,4.4,0l3.9,2.2C286.2,176.4,287,177.7,287.2,179.1z"/>
	<path class="st6" d="M151.3,298.7c-1.3,0.5-2.8,0.5-4.1-0.2l-3.9-2.2c-1.3-0.9-2.1-2.3-2.2-3.8v-38.2c0-0.8,0.3-1.5,0.7-2.2
		l8.3,4.8c-0.4,0.7-0.6,1.4-0.7,2.2v38.3C149.4,298.5,150.2,299.1,151.3,298.7z"/>
	<path class="st1" d="M151.6,255.2l133.4-77c1.2-0.7,2.2-0.1,2.2,1.3v38.3c-0.1,1.6-0.9,3-2.2,3.9l-133.4,77
		c-1.2,0.7-2.2,0.1-2.2-1.3V259C149.5,257.5,150.3,256,151.6,255.2z"/>
	<path class="st14" d="M241.3,193.8l-98,56.6c-0.6,0.4-1.2,1-1.6,1.6l8.4,4.8c0.4-0.7,0.9-1.3,1.6-1.7l98-56.6L241.3,193.8z"/>
	<path class="st15" d="M249.6,198.6l-98,56.6c-1.3,0.9-2.1,2.3-2.2,3.9v38.2c0,1.4,1,2,2.2,1.3l98-56.6V198.6z"/>
	<path class="st1" d="M174.2,250.5l50.6-29.2c2.1-1.2,3.8-0.4,3.8,1.9c-0.2,2.6-1.6,4.9-3.8,6.3l-50.6,29.2
		c-2.1,1.2-3.8,0.4-3.8-1.9C170.6,254.2,172,251.9,174.2,250.5z"/>
	<path class="st8" d="M184.6,260.2C184.6,260.1,184.6,260.1,184.6,260.2c0.1,0,0.1,0,0.1,0c0,0.1,0.1,0.1,0.1,0.2v5.7
		c0,0.5,0,1.1-0.1,1.6c-0.1,0.5-0.2,1-0.4,1.4c-0.2,0.4-0.4,0.8-0.7,1.2c-0.3,0.3-0.6,0.6-1,0.8c-0.3,0.2-0.6,0.3-1,0.3
		c-0.3,0-0.5-0.2-0.7-0.4c-0.2-0.3-0.4-0.6-0.4-1c-0.1-0.5-0.1-1-0.1-1.5v-5.7c0-0.1,0-0.2,0.1-0.3c0-0.1,0.1-0.2,0.2-0.2l0.6-0.4
		c0,0,0.1,0,0.1,0c0,0.1,0.1,0.1,0.1,0.2v5.6c0,0.3,0,0.6,0.1,0.9c0,0.2,0.1,0.4,0.2,0.5c0.1,0.1,0.2,0.2,0.4,0.2
		c0.2,0,0.3-0.1,0.5-0.2c0.2-0.1,0.3-0.2,0.5-0.4c0.2-0.2,0.3-0.4,0.4-0.6c0.1-0.3,0.2-0.5,0.3-0.8c0.1-0.3,0.1-0.7,0.1-1v-5.6
		c0-0.1,0-0.2,0.1-0.3c0-0.1,0.1-0.2,0.2-0.2L184.6,260.2z"/>
	<path class="st8" d="M188.5,265.5c0-0.1,0-0.1,0-0.2c0-0.1-0.1-0.1-0.2-0.1c-0.1,0-0.2,0-0.4,0l-0.6,0.1c-0.2,0-0.4,0-0.6,0
		c-0.1,0-0.3-0.1-0.4-0.3c-0.1-0.2-0.2-0.3-0.2-0.5c-0.1-0.5-0.1-1.1,0-1.6c0.1-0.3,0.2-0.6,0.3-0.9c0.1-0.3,0.3-0.6,0.5-0.8
		c0.2-0.2,0.4-0.4,0.7-0.6c0.2-0.1,0.4-0.2,0.7-0.2c0.2,0,0.4,0,0.5,0.1c0.1,0.1,0.3,0.2,0.3,0.4c0.1,0.2,0.1,0.4,0.1,0.6
		c0,0.1,0,0.2-0.1,0.3c0,0.1-0.1,0.2-0.2,0.2l-0.6,0.3c-0.1,0-0.1,0-0.2,0l-0.1-0.1c-0.1,0-0.1-0.1-0.2-0.1c-0.1,0-0.3,0.1-0.4,0.1
		c-0.2,0.1-0.3,0.2-0.4,0.4c-0.1,0.2-0.2,0.4-0.2,0.5c0,0.1,0,0.2,0,0.2c0,0.1,0.1,0.1,0.2,0.1c0.1,0,0.2,0,0.3,0l0.6-0.1
		c0.5-0.1,0.8,0,1,0.3c0.2,0.4,0.3,0.8,0.3,1.2c0,0.3,0,0.6-0.1,0.9c-0.1,0.3-0.2,0.6-0.3,0.9c-0.1,0.3-0.3,0.6-0.5,0.8
		c-0.2,0.2-0.5,0.4-0.7,0.6c-0.2,0.1-0.5,0.2-0.7,0.3c-0.2,0-0.4,0-0.5-0.2c-0.2-0.1-0.3-0.3-0.3-0.4c-0.1-0.2-0.1-0.4-0.1-0.6
		c0-0.1,0-0.2,0.1-0.3c0-0.1,0.1-0.2,0.2-0.2l0.6-0.3c0.1,0,0.1,0,0.2,0l0.1,0.1c0.1,0.1,0.1,0.1,0.2,0.1c0.1,0,0.3,0,0.4-0.1
		c0.2-0.1,0.3-0.2,0.5-0.4c0.1-0.1,0.1-0.2,0.2-0.3C188.4,265.8,188.5,265.7,188.5,265.5L188.5,265.5z"/>
	<path class="st8" d="M192.5,259.6c-0.2,0.1-0.3,0.2-0.4,0.3c-0.1,0.1-0.2,0.3-0.3,0.5c-0.1,0.2-0.1,0.3-0.2,0.5
		c0,0.2-0.1,0.3-0.1,0.5l1.8-1c0-0.1,0-0.3-0.1-0.4c0-0.1-0.1-0.2-0.1-0.3c-0.1-0.1-0.2-0.1-0.3-0.2
		C192.7,259.5,192.6,259.6,192.5,259.6L192.5,259.6z M190.6,262.8c0-0.5,0-1,0.1-1.5c0.1-0.5,0.2-1,0.4-1.4c0.1-0.4,0.3-0.8,0.6-1.2
		c0.2-0.3,0.5-0.6,0.8-0.8c0.2-0.2,0.5-0.2,0.8-0.2c0.2,0.1,0.5,0.2,0.6,0.4c0.2,0.3,0.3,0.6,0.4,0.9c0.1,0.4,0.1,0.8,0.1,1.3l0,0.6
		c0,0.1,0,0.2-0.1,0.3c0,0.1-0.1,0.2-0.2,0.2l-2.6,1.5c0,0.2,0,0.4,0.1,0.5c0,0.1,0.1,0.2,0.2,0.3c0.1,0.1,0.2,0.1,0.3,0.1
		c0.1,0,0.2-0.1,0.3-0.1c0.2-0.1,0.3-0.2,0.4-0.3c0.1-0.1,0.2-0.2,0.3-0.4c0-0.1,0.1-0.2,0.1-0.2c0-0.1,0.1-0.1,0.2-0.1l0.6-0.4
		c0,0,0.1,0,0.1,0c0.1,0.1,0.1,0.1,0.1,0.2c0,0.2-0.1,0.4-0.1,0.6c-0.1,0.3-0.2,0.5-0.3,0.8c-0.2,0.3-0.3,0.6-0.6,0.8
		c-0.2,0.3-0.5,0.5-0.8,0.7c-0.2,0.2-0.5,0.2-0.8,0.2c-0.2-0.1-0.5-0.2-0.6-0.4c-0.2-0.3-0.3-0.6-0.4-1
		C190.6,263.8,190.5,263.3,190.6,262.8z"/>
	<path class="st8" d="M197.5,256.9c-0.3,0.2-0.5,0.4-0.7,0.8c-0.2,0.4-0.2,0.9-0.2,1.3v3.6c0,0.1,0,0.2-0.1,0.3
		c0,0.1-0.1,0.2-0.2,0.2l-0.6,0.3c0,0,0,0-0.1,0s-0.1,0-0.1,0c0-0.1-0.1-0.1-0.1-0.2v-6.5c0-0.1,0-0.2,0.1-0.3
		c0-0.1,0.1-0.2,0.1-0.2l0.6-0.3c0,0,0.1,0,0.2,0c0,0.1,0.1,0.1,0.1,0.2v0.3c0.1-0.3,0.3-0.5,0.4-0.8c0.2-0.2,0.4-0.4,0.6-0.5
		l0.4-0.2c0,0,0.1,0,0.1,0c0,0.1,0.1,0.1,0.1,0.2v0.9c0,0.1,0,0.2-0.1,0.3c0,0.1-0.1,0.1-0.1,0.2L197.5,256.9z"/>
	<path class="st8" d="M205,256.4C205,256.4,205,256.3,205,256.4c0.1,0,0.1,0,0.2,0c0,0.1,0.1,0.1,0.1,0.2v1c0,0.1,0,0.2-0.1,0.3
		c0,0.1-0.1,0.1-0.2,0.2l-3.4,2c0,0-0.1,0-0.2,0c0-0.1-0.1-0.1-0.1-0.2v-9c0-0.1,0-0.2,0.1-0.3c0-0.1,0.1-0.1,0.2-0.2l0.6-0.4
		c0,0,0.1,0,0.1,0c0,0.1,0.1,0.1,0.1,0.2v7.6L205,256.4z"/>
	<path class="st8" d="M209,251.6c0-0.2,0-0.4-0.1-0.6c0-0.1-0.1-0.2-0.2-0.3c-0.1-0.1-0.2-0.1-0.3-0.1c-0.1,0-0.2,0.1-0.3,0.1
		c-0.1,0.1-0.2,0.1-0.3,0.2c-0.1,0.1-0.2,0.3-0.3,0.4c-0.1,0.2-0.2,0.4-0.2,0.6c-0.1,0.3-0.1,0.5-0.1,0.8c0,0.1,0,0.2,0,0.3v0.7
		c0,0.1,0,0.2,0,0.3c0,0.2,0,0.4,0.1,0.6c0,0.1,0.1,0.2,0.2,0.3c0.1,0.1,0.2,0.1,0.3,0.1c0.1,0,0.2-0.1,0.3-0.1
		c0.1-0.1,0.2-0.1,0.3-0.2c0.1-0.1,0.2-0.3,0.3-0.4c0.1-0.2,0.2-0.4,0.2-0.6c0.1-0.3,0.1-0.5,0.1-0.8c0-0.1,0-0.2,0-0.3v-0.7
		C209,251.7,209,251.6,209,251.6z M208.1,249c0.2-0.2,0.5-0.2,0.8-0.2c0.2,0,0.5,0.1,0.6,0.3c0.2,0.2,0.3,0.5,0.4,0.7
		c0.1,0.4,0.2,0.7,0.2,1.1c0,0.1,0,0.2,0,0.3v0.8c0,0.1,0,0.2,0,0.3c0,0.4-0.1,0.9-0.2,1.3c-0.1,0.4-0.2,0.8-0.4,1.2
		c-0.2,0.4-0.4,0.7-0.6,1c-0.2,0.3-0.5,0.5-0.8,0.7c-0.2,0.2-0.5,0.2-0.8,0.2c-0.2,0-0.4-0.1-0.6-0.3c-0.2-0.2-0.3-0.5-0.4-0.7
		c-0.1-0.4-0.2-0.7-0.2-1.1c0-0.1,0-0.2,0-0.3v-0.8c0-0.1,0-0.2,0-0.3c0-0.4,0.1-0.9,0.2-1.3c0.1-0.4,0.2-0.8,0.4-1.2
		c0.2-0.4,0.4-0.7,0.6-1C207.5,249.4,207.8,249.2,208.1,249z"/>
	<path class="st8" d="M212.1,250c0,0.3,0,0.5,0,0.8c0,0.4,0.1,0.8,0.3,1.1c0.2,0.2,0.5,0.2,0.6,0c0.3-0.2,0.5-0.5,0.7-0.8
		c0.2-0.4,0.3-0.9,0.3-1.3c0-0.1,0-0.3,0-0.5s0-0.4,0-0.5c0-0.4-0.1-0.7-0.3-1c-0.2-0.2-0.5-0.2-0.7,0c-0.3,0.2-0.5,0.5-0.6,0.8
		C212.3,249,212.1,249.5,212.1,250L212.1,250z M213.1,254.8c0.1-0.1,0.2-0.2,0.3-0.3c0.1-0.1,0.2-0.3,0.3-0.5
		c0.1-0.2,0.2-0.4,0.2-0.6c0.1-0.2,0.1-0.5,0.1-0.7v-0.5c0,0.1-0.1,0.2-0.2,0.4c-0.1,0.1-0.1,0.3-0.2,0.4c-0.1,0.1-0.2,0.3-0.3,0.4
		c-0.1,0.1-0.3,0.2-0.4,0.3c-0.2,0.1-0.5,0.2-0.7,0.1c-0.2-0.1-0.4-0.2-0.5-0.4c-0.2-0.3-0.3-0.5-0.4-0.8c-0.1-0.4-0.1-0.8-0.1-1.1
		c0-0.1,0-0.3,0-0.5s0-0.4,0-0.5c0-0.4,0.1-0.9,0.1-1.3c0.1-0.4,0.2-0.8,0.4-1.2c0.1-0.4,0.3-0.7,0.5-1c0.2-0.3,0.4-0.5,0.7-0.7
		c0.1-0.1,0.3-0.1,0.4-0.2c0.1,0,0.2,0,0.3,0c0.1,0,0.2,0.1,0.2,0.1c0.1,0,0.1,0.1,0.2,0.2V246c0-0.1,0-0.2,0.1-0.3
		c0-0.1,0.1-0.1,0.1-0.2l0.6-0.4c0,0,0.1,0,0.1,0c0,0.1,0.1,0.1,0.1,0.2v6.5c0,1-0.2,1.9-0.5,2.8c-0.3,0.7-0.8,1.3-1.5,1.7
		c-0.2,0.1-0.5,0.2-0.7,0.2c-0.2,0-0.4,0-0.6-0.1c-0.2-0.1-0.3-0.3-0.4-0.5c-0.1-0.2-0.2-0.5-0.2-0.7c0-0.1,0-0.2,0.1-0.3
		c0-0.1,0.1-0.2,0.1-0.2l0.5-0.3c0,0,0.1,0,0.1,0s0.1,0,0.1,0c0,0.1,0.1,0.1,0.1,0.2c0.1,0.1,0.2,0.2,0.3,0.2
		C212.7,255,212.8,254.9,213.1,254.8z"/>
	<path class="st8" d="M217.6,250.5c0,0.1,0,0.2-0.1,0.3c0,0.1-0.1,0.1-0.1,0.2l-0.6,0.3c0,0,0,0-0.1,0s-0.1,0-0.1,0
		c-0.1-0.1-0.1-0.1-0.1-0.2v-6.5c0-0.1,0-0.2,0.1-0.3c0-0.1,0.1-0.1,0.1-0.2l0.6-0.3c0,0,0.1,0,0.2,0c0,0.1,0.1,0.1,0.1,0.2V250.5z
		 M217.4,241.1c0,0,0.1,0,0.1,0c0.1,0.1,0.1,0.1,0.1,0.2v1.1c0,0.1,0,0.2-0.1,0.3c0,0.1-0.1,0.1-0.1,0.2l-0.7,0.4c0,0,0,0-0.1,0
		c0,0-0.1,0-0.1,0c-0.1-0.1-0.1-0.1-0.1-0.2V242c0-0.1,0-0.2,0.1-0.3c0-0.1,0.1-0.1,0.1-0.2L217.4,241.1z"/>
	<path class="st8" d="M222.8,247.4c0,0.1,0,0.2-0.1,0.3c0,0.1-0.1,0.1-0.2,0.2l-0.6,0.4c0,0-0.1,0-0.1,0c-0.1-0.1-0.1-0.1-0.1-0.2
		l0-3.5c0-0.4,0-0.8-0.2-1.2c-0.1-0.3-0.4-0.3-0.7-0.1c-0.3,0.2-0.5,0.5-0.6,0.9c-0.2,0.5-0.2,1-0.2,1.5l0,3.5c0,0.1,0,0.2-0.1,0.3
		c0,0.1-0.1,0.2-0.2,0.2l-0.6,0.3c0,0,0,0-0.1,0c0,0-0.1,0-0.1,0c0-0.1-0.1-0.1-0.1-0.2v-6.5c0-0.1,0-0.2,0.1-0.3
		c0-0.1,0.1-0.2,0.1-0.2l0.6-0.3c0,0,0,0,0.1,0c0,0,0.1,0,0.1,0c0,0.1,0.1,0.1,0.1,0.2v0.3c0.1-0.3,0.3-0.6,0.5-0.9
		c0.2-0.3,0.4-0.5,0.7-0.6c0.2-0.2,0.5-0.2,0.8-0.2c0.2,0.1,0.4,0.2,0.5,0.4c0.1,0.3,0.2,0.6,0.3,0.9c0.1,0.4,0.1,0.8,0.1,1.2V247.4
		z"/>
	<path class="st14" d="M273.3,218.3l-9.7,5.6l1.5-13.6c-1.2-0.6-1.9-2.1-1.9-4.3c0-3.9,2.4-8.4,5.3-10c2.9-1.6,5.3,0.1,5.3,4
		c-0.1,2.3-0.7,4.5-1.9,6.5L273.3,218.3z"/>
	<polygon class="st15" points="273.3,218.3 264.7,213.4 263.6,223.9 	"/>
	<path class="st15" d="M268.4,196c-2.1,1.4-3.7,3.5-4.5,6l7.8,4.5c1.2-2,1.8-4.2,1.9-6.5C273.7,196.1,271.3,194.3,268.4,196z"/>
	<path class="st1" d="M221.2,150.6c-3.3-1.9-7.9-1.6-13,1.3c-10.1,5.9-18.4,20.1-18.4,31.8c0,5.9,2.1,10,5.4,11.9l6.5,3.8
		c3.3,1.9,7.9,1.6,13-1.3c10.1-5.9,18.4-20.1,18.4-31.8c0-5.9-2.1-10-5.4-11.9"/>
	<path class="st1" d="M214.7,155.7c-10.1,5.9-18.4,20.1-18.4,31.8c0,11.7,8.2,16.5,18.4,10.6c10.1-5.9,18.4-20.1,18.4-31.8
		C233.1,154.6,224.9,149.8,214.7,155.7z"/>
	<path class="st1" d="M224.9,181.7v1.3c-2.4,4.3-5.9,8-10.1,10.6c-3.9,2.3-7.5,2.5-10.1,1.1v-2.8c0.3-5.8,3.4-11.2,8.3-14.3l2.7-1.5
		c2.4-1.4,4.7-1.5,6.5-0.5C223.8,176.6,224.9,178.8,224.9,181.7z"/>
	<path class="st16" d="M221.2,150.6l6.5,3.8c-3.3-1.9-7.9-1.7-13,1.3c-6.6,3.8-12.5,11.3-15.7,19.2l-6.5-3.8c3.2-8,9-15.4,15.7-19.2
		C213.3,149,217.9,148.7,221.2,150.6z"/>
	<path class="st17" d="M201.5,199.2l-6.2-3.6c-3.3-1.9-5.4-6-5.4-11.9l6.5,3.8C196.4,193.2,198.3,197.2,201.5,199.2z"/>
	<path class="st18" d="M192.5,171.1l6.5,3.8c-1.7,4-2.6,8.3-2.6,12.6l-6.5-3.8C190,179.4,190.9,175.1,192.5,171.1L192.5,171.1z"/>
	<path class="st19" d="M212.4,175.4c-0.6,0-1.2-0.2-1.8-0.5c-1.3-0.9-2.1-2.4-1.9-4c0.2-3.7,2.1-7.1,5.2-9.1l0,0
		c1.3-1,3-1.1,4.4-0.3c1.4,0.8,2.2,2.4,1.9,4c-0.2,3.7-2.1,7.1-5.2,9.1C214.2,175.1,213.3,175.4,212.4,175.4L212.4,175.4z"/>
	<path class="st19" d="M222,175.6c-1.8-1.1-4.1-0.9-6.5,0.5l-2.7,1.5c-4.9,3.2-8,8.5-8.3,14.3v2.8c2.6,1.5,6.2,1.2,10.1-1.1
		c4.2-2.6,7.7-6.3,10.1-10.6v-1.3C224.9,178.8,223.8,176.6,222,175.6z"/>
	<path class="st1" d="M427.6,348.6c0,0,1.3-11.7,7.1-20.8c5.8-9.1,13.8-14.7,21.2-15.3c7.5-0.6,13.5,6.3,5.5,11
		c-8,4.7-22.1,9.5-28.6,27.1L427.6,348.6z"/>
	<path class="st18" d="M427.6,348.6c0,0,1.3-11.7,7.1-20.8c5.8-9.1,13.8-14.7,21.2-15.3c7.5-0.6,13.5,6.3,5.5,11
		c-8,4.7-22.1,9.5-28.6,27.1L427.6,348.6z"/>
	<path class="st19" d="M429.7,345.5L429.7,345.5c-0.3-0.1-0.4-0.3-0.3-0.5c7.9-19.4,22.8-27.4,29.6-29c0.2,0,0.4,0.1,0.5,0.3
		c0,0.2-0.1,0.4-0.3,0.5c-6.7,1.5-21.4,9.5-29.1,28.5C430.1,345.5,429.9,345.6,429.7,345.5L429.7,345.5z"/>
	<path class="st1" d="M469.5,345.8c-0.7,1.5-2.3,2.3-3.9,2.9c-1.5,0.6-3.2,1.3-4.1,2.7c-1.7,2.9,1.1,7-0.7,9.8
		c-0.9,1.1-2.1,1.9-3.6,2.1c-1.2,0.2-2.3,0.2-3.5,0.3c-0.6,0-1.1-0.1-1.7-0.1c-1.6-0.4-3.3-0.2-4.8,0.5c-2.3,1.3-3,4.2-4.4,6.5
		c-1.8,2.7-4.6,4.5-7.8,4.9c-1,0.1-3,0.3-4-0.3c-0.1,0-0.2-0.1-0.2-0.1l0,0c-0.2-0.2-0.3-0.4-0.4-0.5c0,0,0,0,0-0.1
		c-0.4-1.5,0.3-3.1,0.3-4.6v-0.3c-0.1-1.8-0.1-3.6-0.2-5.4c-0.1-3.3-0.1-6.7-0.1-10c0-2.2-0.2-4.5,0.7-6.5c1-2.2,3.5-2.3,4.5-4.5
		c0.4-0.9,0.6-1.8,0.9-2.7c1.2-2.6,3.7-4.4,6.6-4.6c4.4-0.2,8.3,3.3,12.7,3c1.1-0.1,2.2-0.4,3.4-0.6c3.5-0.7,7.7,0.3,9.7,3.4
		C469.9,342.7,470.1,344.3,469.5,345.8z"/>
	<path class="st19" d="M430.1,367.4c-0.2-0.1-0.3-0.3-0.3-0.5c6.1-22.7,30-26,35.6-25.6c0.1,0,0.2,0.1,0.3,0.1
		c0.1,0.1,0.1,0.2,0.1,0.3c0,0.2-0.2,0.4-0.4,0.3c-5.5-0.4-28.9,2.8-34.9,25.1C430.5,367.4,430.3,367.5,430.1,367.4L430.1,367.4z"/>
	<path class="st19" d="M456.7,355.9c-0.1,0-0.1,0-0.2-0.1c-4.5-3.9-10.5-5.6-16.3-4.6c-0.2,0-0.4-0.1-0.4-0.3c0-0.2,0.1-0.4,0.3-0.4
		c6.1-1,12.3,0.7,17,4.8c0.1,0.1,0.1,0.2,0.1,0.3s0,0.2-0.1,0.3C457,355.9,456.9,356,456.7,355.9z"/>
	<path class="st20" d="M372.5,73.9l3.2,1.2v-7c0-5.6,4.4-6.9,9.2-4.1c4.8,2.8,8.7,9.5,8.7,15.1v1c1.4-0.4,2.8-0.2,4,0.6l0,0
		c3.7,2.4,6,6.5,6.3,10.9v0.5l4.4,2.6c2.4,1.6,4,4.2,4.1,7.1c0,2.6-1.8,3.7-4.1,2.4l-35.8-20.7c-2.4-1.6-4-4.2-4.1-7.1
		C368.4,73.7,370.2,72.6,372.5,73.9z"/>
	<path class="st20" d="M415.1,68.4l5.8,3.3c0-0.3,0-0.5-0.1-0.8v-1.7c0-3,2.1-4.2,4.7-2.7c1.1,0.7,2.1,1.6,2.8,2.7
		c0.4-3.7,3.4-5.1,6.9-3.1c4.1,2.7,6.7,7.2,7,12.1l0,2.5c0,1-0.2,2-0.6,2.9l4.8,2.8c1.5,1,2.5,2.7,2.6,4.5c0,1.7-1.2,2.3-2.6,1.5
		l-31.3-18c-1.5-1-2.5-2.7-2.6-4.5C412.5,68.2,413.7,67.6,415.1,68.4z"/>
	<path class="st21" d="M392.8,220.2c-4.2,7.1-8.2,13.3-11.1,16.2c-5.4,2.5-18,6.4-23,7c-0.9,0.1-1.7-0.1-2.5-0.6
		c-1.9-1.3-3.5-1.5-5.5-2.2c-1.6-0.6-2.3-1.3-2.6-1c-0.6,0.8-0.6,1.9,0.2,2.5c0.8,0.7,1.6,1.4,2.5,1.9c-2.2,0.5-4.5,0.6-6.7,0.1
		c-4.3-1.1-6.3,0.9-3.4,5.6c1,1.7,5.1,4.3,13.4,3.6c3-0.2,5.9-0.5,8.8-1c7.9-1.7,16.8-3.3,22.2-5c2-0.8,3.8-2,5.3-3.7
		c9.1-10.4,12.2-17.8,16.2-24.6l-0.3-11C399.7,207.9,396.3,214.2,392.8,220.2z"/>
	<path class="st14" d="M407.3,207.9c-3.8-0.5-7.6,1.1-9.9,4.2c-4.4,5.7-12.3,19.4-12.3,19.4s2.6,6.9,9.5,8l11.2-15.1
		C405.8,224.4,411.1,214,407.3,207.9z"/>
	<rect x="424.2" y="361.5" class="st21" width="7.3" height="13"/>
	<polygon class="st21" points="406.2,360.8 399,361 398.6,347.3 406.2,347.1 	"/>
	<path class="st15" d="M432.5,249.3c0,7.2-1.1,65.4-1.1,65.4c0.2,2.1,2,5.9,1.6,13.9c-0.6,10.9-1.3,39.4-1.3,39.4
		c-2.5,1.3-5.5,1.4-8.1,0.2c0,0-5.9-40-7.2-50.7c-1.1-9.4-4.1-40.5-4.1-40.5l-3.9,36.7c0.8,3.9,1.1,8,0.9,12
		c-0.3,5-2.7,30.9-2.7,30.9c-2.5,1.5-5.6,1.7-8.4,0.7c0,0-4.1-39-4.2-43.6c-0.1-5.2,2.4-64.4,2.4-64.4L432.5,249.3z"/>
	<path class="st6" d="M424.2,370.7v-1.1c-0.7,0.3-2.3,6.7-5.2,9.5c-2.3,2.2-5.4,4.7-6.2,7.1c-0.8,2.4,4.3,3.9,6.5,3.5
		c2.5-0.5,6.8-2.3,7.9-4c1.1-1.7,1.6-4.2,2.5-5.4s2.9-2.6,3.4-4.1c0.1-1.3,0-2.7-0.4-4c-0.3-1.3-0.7-2.8-1.1-2.7v0.8
		c-1,0.8-2.3,1.3-3.6,1.3C426.7,371.7,424.2,371.5,424.2,370.7z"/>
	<path class="st6" d="M398.9,358.7c-0.4,0-0.7,0.6-1.5,1.5c-1.2,1.3-2.7,2.4-4.3,3.2c-2.7,1.4-8,3.6-10.4,4.7
		c-1.5,0.7-1.4,2.6,0.1,3.6c1.6,1.1,5.3,1.8,9.8,0.8c2.4-0.6,5.6-2.9,7.6-2.8s5.8,0.1,7.3-1c1.5-1.1,0.9-3.4,0.5-5.3
		c-0.5-2.1-1-5.5-1.7-5.3v0.8c-0.9,1.4-5.4,1.9-7.3,0.9L398.9,358.7z"/>
	<path class="st6" d="M412.4,276.9c-3.8-1.2-7.2-3.3-10.1-6c0,0,2,3.8,7.8,7.4l-1.2,32.8L412.4,276.9z"/>
	<path class="st1" d="M428.4,209c0,0,6,1.4,5.6,12.2l-1.3,17.3v25.9c-5.3,6.1-29,5.6-37.2-0.5c0,0,0.9-30.6,1.5-42.4
		c0.4-8.4,2.3-12.6,10.6-13.5l10.1,0.4L428.4,209z"/>
	<path class="st6" d="M420.8,186.5c0.1,2.9-1,5.8-3.1,7.9c-2,2.1-4.8,3.3-7.8,3.4c-6,0-9.5-5.2-10.8-11.3
		c-2.4-11.1,4.8-11.3,10.8-11.3C416,175.3,420.9,180.4,420.8,186.5L420.8,186.5z"/>
	<path class="st6" d="M426.3,191c0,0-1.7,8.1-2.3,9.5c-0.4,0.8-1.1,1.4-2,1.7l0.1-5.7L426.3,191z"/>
	<path class="st6" d="M424.2,179.4c0,0,1.2-0.3,2.5,1.7c1.1,1.7,1.3,5.5-0.4,10l-3.1,0.4L424.2,179.4z"/>
	<path class="st6" d="M425.3,181l3.8,0.1c0.1-0.5-0.1-1-0.4-1.4s-0.8-0.6-1.3-0.6C426.3,179.1,425.4,180,425.3,181L425.3,181z"/>
	<path class="st6" d="M425.8,180.1l2.8-2.7c-0.3-0.4-0.8-0.6-1.3-0.6c-0.5,0-1,0.2-1.4,0.5C425.2,178.1,425.1,179.3,425.8,180.1z"/>
	<path class="st21" d="M422.2,191.4c0.6,0.4,1.5-0.9,2.3-1.7c0.8-0.9,3.2-1.6,4.5,1.1s-0.9,5.5-2.7,6.4c-3.2,1.6-4.3-0.7-4.3-0.7
		l-0.3,12.9c-4.5,7-14.8,6.8-11.1-0.3v-3.9c-1.5,0.3-3.1,0.3-4.6,0.2c-2.5-0.4-4.1-2.5-4.9-5.3c-1.2-4.6-1.7-8.2-0.7-17.2
		c1.1-9.8,12.1-9.9,18-6S422.2,191.4,422.2,191.4z"/>
	<path class="st6" d="M408.5,181.3c2.6-0.3,5.2-0.8,7.8-1c0.6-0.1,1.1,0,1.7,0.1c2,0.6,1.8,2.9,2.1,4.5c0.5,2.8,1,7.6,2.1,7.6
		c0.3,0,1.5-2.1,2.3-2.8c0.4-0.6,0.7-1.4,0.7-2.1c0.2-1.2,0.3-2.4,0.4-3.5c0.1-1,0.2-2,0.2-3c0-1.1,0-2.3-0.3-3.4
		c-0.3-0.9-0.7-1.8-1.4-2.5l-0.2-0.2c-1.3-1.4-2.9-2.5-4.7-3.2c-2.5-1-5.2-1.5-7.9-1.7c-2.7-0.2-5.4-0.5-8.1-1c-0.2,0-0.3,0-0.5,0
		c-0.2,0.1-0.4,0.3-0.4,0.6c-0.2,1.3,0.3,2.6,1.3,3.3c-1.8,0.1-3.9-0.8-5.6-1.3c-0.3-0.1-0.6-0.1-0.9,0c-0.2,0.1-0.3,0.3-0.3,0.5
		c-0.1,0.5-0.1,1,0,1.4c0.2,1.4,0.7,2.8,1.6,4c1.3,1.8,3.3,3,5.4,3.5C405.3,181.4,406.9,181.5,408.5,181.3z"/>
	<path class="st22" d="M410.6,205.1c0,0,5.6-1.2,7.6-2.3c1.2-0.6,2.1-1.6,2.7-2.8c-0.3,1.2-0.8,2.3-1.5,3.3
		c-1.4,1.9-8.8,3.3-8.8,3.3V205.1z"/>
	<path class="st6" d="M412,189.9c0,0.6,0.5,1.2,1.1,1.2c0.5,0,1-0.2,1.2-0.7s0.1-1-0.2-1.4c-0.3-0.4-0.9-0.5-1.3-0.3
		S412,189.4,412,189.9L412,189.9z"/>
	<path class="st6" d="M413.8,185.1l2.4,1.4c0.4-0.7,0.1-1.6-0.6-2c-0.3-0.2-0.7-0.2-1.1-0.1C414.2,184.5,413.9,184.7,413.8,185.1
		L413.8,185.1z"/>
	<path class="st22" d="M411.1,198l-2.6,1c0.1,0.4,0.4,0.7,0.7,0.8c0.3,0.2,0.7,0.2,1.1,0.1C411,199.6,411.4,198.8,411.1,198
		L411.1,198z"/>
	<path class="st6" d="M401.7,186.1l2.2-1.8c-0.2-0.3-0.5-0.5-0.9-0.6c-0.4-0.1-0.7,0-1,0.3C401.3,184.6,401.2,185.4,401.7,186.1
		L401.7,186.1z"/>
	<path class="st6" d="M402.6,189.6c0,0.6,0.6,1.1,1.2,1s1.1-0.5,1.1-1.2c0-0.6-0.5-1.1-1.1-1.1c-0.3,0-0.6,0.1-0.8,0.4
		C402.7,189,402.6,189.3,402.6,189.6L402.6,189.6z"/>
	<polygon class="st22" points="408.7,188.7 408.5,195.8 404.5,194.8 	"/>
	<polyline class="st1" points="312.7,248.2 319,244.6 321.5,241.6 315.2,245.2 312.7,248.2 	"/>
	<polyline class="st23" points="312.7,248.2 319,244.6 321.5,241.6 315.2,245.2 312.7,248.2 	"/>
	<polyline class="st1" points="329.8,258 336,254.4 341.3,249.8 335,253.4 329.8,258 	"/>
	<polyline class="st23" points="329.8,258 336,254.4 341.3,249.8 335,253.4 329.8,258 	"/>
	<path class="st1" d="M397.6,270.7c-2.1-14.4-9.8-28.5-19-33.9c-4.4-2.6-8.5-2.6-11.8-0.7l-5.9,3.4l-0.3,0.2
		c-0.3,0.1-0.5,0.3-0.8,0.5c-0.5,0.3-0.9,0.7-1.4,1.1l-0.2,0.2c-0.2,0.2-0.4,0.4-0.5,0.6c-0.2,0.2-0.4,0.5-0.6,0.8
		c-0.4,0.6-0.8,1.1-1.2,1.8c-0.2,0.3-0.3,0.6-0.5,1l-51.5-29.7l-6.3,3.6v4l0.5,0.3l0.5,0.3v0.8l-1,0.6v2.3l7.6,16l7.5,4.3l2.5-3
		l6.6,4l3.8,6.5l4.2,2.4l5.2-4.6l6.4,3.7l2.2,8.9l10.8,6.2c0.5,2.3,1.2,4.5,2,6.7c0.1,0.2,0.2,0.5,0.3,0.7
		c3.6,9.4,9.3,17.5,15.7,21.2c0.8,0.5,1.6,0.8,2.4,1.2c0.4,0.2,0.9,0.3,1.3,0.4c0.4,0.1,0.8,0.2,1.2,0.3c1.3,0.2,2.6,0.2,3.8,0
		l0.5-0.1c0.2-0.1,0.5-0.1,0.7-0.2l0.6-0.2c0.2-0.1,0.4-0.2,0.6-0.3c0.2-0.1,0.4-0.2,0.5-0.3l0.3-0.2c0,0,0.1,0,0.1-0.1
		c1.4-0.8,4.9-2.9,5.9-3.4c4.8-2.8,7.8-9.7,7.8-19.6C398.2,275.8,398,273.2,397.6,270.7L397.6,270.7z M383,270.5
		c1.5,2,2.4,4.3,2.6,6.8C384.1,275.4,383.2,273,383,270.5z"/>
	<path class="st1" d="M391.3,274.3c-2.1-14.3-9.8-28.5-19-33.8c-4.3-2.5-8.2-2.6-11.4-1l-0.3,0.2c-0.3,0.1-0.5,0.3-0.8,0.5
		c-0.5,0.3-0.9,0.7-1.4,1.1l-0.2,0.2c-0.2,0.2-0.4,0.4-0.5,0.6c-0.2,0.2-0.4,0.5-0.6,0.8c-0.4,0.6-0.8,1.1-1.2,1.8
		c-0.2,0.3-0.3,0.6-0.5,1c-0.9,1.9-1.6,4-2,6.1l-55.8-32.2v4l0.5,0.3l0.5,0.3v0.8l-1,0.6v2.3l7.6,16l7.5,4.3l2.5-3l6.6,4l3.8,6.5
		l4.2,2.4l5.2-4.6l6.4,3.7l2.2,8.9l10.8,6.2c0.5,2.3,1.2,4.5,2,6.7c0.1,0.2,0.2,0.5,0.3,0.7c3.6,9.4,9.3,17.5,15.7,21.2
		c0.8,0.5,1.6,0.8,2.4,1.2c0.4,0.2,0.9,0.3,1.3,0.4c0.4,0.1,0.8,0.2,1.2,0.3c1.3,0.2,2.6,0.2,3.8,0l0.5-0.1c0.2-0.1,0.5-0.1,0.7-0.2
		l0.6-0.2c0.2-0.1,0.4-0.2,0.6-0.3c0.2-0.1,0.4-0.2,0.5-0.3l0.3-0.2c0,0,0.1,0,0.1-0.1c4.6-2.9,7.5-9.8,7.5-19.4
		C391.9,279.4,391.7,276.9,391.3,274.3z M381.2,282.6c-2.5-1.4-4.5-5.7-4.5-9.5s2-5.7,4.5-4.3c2.5,1.4,4.5,5.7,4.5,9.5
		S383.7,284.1,381.2,282.6z"/>
	<path class="st23" d="M385.7,278.3c0,3.8-2,5.7-4.5,4.3c-2.5-1.4-4.5-5.7-4.5-9.5s2-5.7,4.5-4.3c0.7,0.4,1.3,1,1.8,1.7
		c0.2,2.5,1.1,4.8,2.6,6.8C385.6,277.7,385.7,278,385.7,278.3L385.7,278.3z"/>
	<path class="st16" d="M398.2,278.3c0,9.9-3.1,16.9-7.8,19.6c-1,0.5-4.5,2.6-5.9,3.4c4.6-2.9,7.5-9.8,7.5-19.4
		c0-2.5-0.2-5.1-0.6-7.6c-2.1-14.3-9.8-28.5-19-33.8c-4.3-2.5-8.2-2.6-11.4-1l5.9-3.4c3.3-1.9,7.4-1.8,11.8,0.7
		c9.2,5.3,16.9,19.5,19,33.9C398,273.2,398.2,275.8,398.2,278.3L398.2,278.3z"/>
	<path class="st1" d="M391.9,281.9c0,9.6-2.9,16.5-7.5,19.4c1.4-0.8,4.9-2.9,5.9-3.4c4.8-2.8,7.8-9.7,7.8-19.6c0-0.4,0-0.7,0-1.1
		l-6.3,3.6C391.9,281.2,391.9,281.6,391.9,281.9z"/>
	<path class="st18" d="M391.9,281.9c0,9.6-2.9,16.5-7.5,19.4c1.4-0.8,4.9-2.9,5.9-3.4c4.8-2.8,7.8-9.7,7.8-19.6c0-0.4,0-0.7,0-1.1
		l-6.3,3.6C391.9,281.2,391.9,281.6,391.9,281.9z"/>
	<polygon class="st12" points="353.7,255.8 353.7,257.9 297.7,225.5 298.7,224.9 298.7,224.1 	"/>
	<polygon class="st12" points="353.7,256.7 353.7,257.9 297.7,225.5 298.7,224.9 298.7,224.9 	"/>
	<path class="st12" d="M366.6,244.3c-1.3,0-2.6,0.3-3.8,1c-3.9,2.3-6.3,8.2-6.3,15.9c0,13.7,7.2,29,16.1,34.1c3.4,2,6.6,2.2,9.3,0.6
		c3.9-2.3,6.3-8.2,6.3-15.9c0-13.7-7.2-29-16.1-34.1C370.4,244.9,368.5,244.4,366.6,244.3L366.6,244.3z M378,297.9
		c-2.1-0.1-4.2-0.7-6-1.8c-9.1-5.3-16.6-21-16.6-35c0-8.2,2.5-14.3,6.8-16.8c3-1.7,6.5-1.5,10.3,0.6c9.1,5.3,16.5,21,16.5,35
		c0,8.2-2.5,14.3-6.8,16.8C381,297.6,379.5,297.9,378,297.9L378,297.9z"/>
	<path class="st16" d="M355.4,245.6c-0.9,1.9-1.6,4-2,6.1l-55.8-32.2l6.3-3.6L355.4,245.6z"/>
	<path class="st21" d="M427.9,248.8c2.9-5.5,6.3-18,7.9-24.2c2.4-8.9-1.5-14.5-5.8-14.7c-2.7,0.4-11.6,32.9-11.6,32.9
		c-1,0.8-14.6,7.7-18.9,9.4c-0.8,0.3-1.6,0.3-2.4,0c-2.1-0.8-3.5-0.6-5.6-0.8c-1.6-0.2-2.4-0.7-2.6-0.4c-0.4,0.9-0.1,1.9,0.8,2.4
		c0.9,0.5,1.8,0.9,2.8,1.2c-1.8,0.5-3.6,0.8-5.4,0.7c-4.2-0.1-5.7,1.7-2.5,6c2,2.7,5.3,3.5,12.7,1c2.1-0.7,5-2.2,7.7-3.1
		c5.5-2,7-2.2,11.2-3.7C422.3,253.3,426.6,251.2,427.9,248.8z"/>
	<path class="st14" d="M428.4,209c2.5,0.4,5,0.9,6.5,3c1.5,2.1,2.7,5,1.2,12.9c-1.1,5.6-2.7,11.1-4.5,16.5c0,0-5.9,2.5-12.3-3.9
		l4.3-16.8C423.7,220.7,424.4,209.8,428.4,209z"/>
</g>
</svg>
