<?xml version="1.0" encoding="utf-8"?>
<!-- Generator: Adobe Illustrator 23.0.0, SVG Export Plug-In . SVG Version: 6.00 Build 0)  -->
<svg version="1.1" id="Layer_1" xmlns="http://www.w3.org/2000/svg" xmlns:xlink="http://www.w3.org/1999/xlink" x="0px" y="0px"
	 viewBox="0 0 235.4 226.8" style="enable-background:new 0 0 235.4 226.8;" xml:space="preserve">
<style type="text/css">
	.st0{clip-path:url(#SVGID_2_);fill:#BE7E7F;}
	.st1{clip-path:url(#SVGID_2_);fill:#DAAFB4;}
	.st2{clip-path:url(#SVGID_2_);fill:#315C77;}
	.st3{clip-path:url(#SVGID_2_);fill:#658FA4;}
	.st4{clip-path:url(#SVGID_2_);fill:#23485F;}
	.st5{clip-path:url(#SVGID_2_);fill:#3A6A89;}
	.st6{clip-path:url(#SVGID_2_);fill:#223349;}
	.st7{clip-path:url(#SVGID_2_);fill:#3B526E;}
	.st8{clip-path:url(#SVGID_2_);fill:#36394F;}
	.st9{clip-path:url(#SVGID_2_);fill:#26283B;}
	.st10{clip-path:url(#SVGID_2_);fill:#25283E;}
	.st11{clip-path:url(#SVGID_2_);fill:#333C5B;}
	.st12{clip-path:url(#SVGID_4_);}
	.st13{clip-path:url(#SVGID_6_);enable-background:new    ;}
	.st14{clip-path:url(#SVGID_8_);}
	.st15{clip-path:url(#SVGID_10_);}
</style>
<g>
	<defs>
		<rect id="SVGID_1_" x="-308" y="-98.8" width="1366" height="766"/>
	</defs>
	<clipPath id="SVGID_2_">
		<use xlink:href="#SVGID_1_"  style="overflow:visible;"/>
	</clipPath>
	<path class="st0" d="M89.8,159.2l12.8,26.7l14.4,0c0-17.6,0-35.3,0-52.9L89.8,159.2"/>
	<path class="st1" d="M143.9,158.8l-13,27.1l-13.9,0c0-17.6,0-35.3,0-52.9L143.9,158.8"/>
	<path class="st2" d="M117.1,133c-9.1,8.7-18.2,17.5-27.2,26.2L44.3,63C68.5,86.3,92.8,109.7,117.1,133"/>
	<path class="st3" d="M117,215.6c4.7-9.9,9.3-19.8,14-29.6l-13.9,0C117,195.8,117,205.7,117,215.6"/>
	<path class="st2" d="M117,215.6c-4.8-9.9-9.6-19.8-14.4-29.6l14.4,0C117,195.8,117,205.7,117,215.6"/>
	<path class="st3" d="M117.1,133l26.9,25.8c15.3-32,30.7-63.9,46-95.9L117.1,133"/>
	<polyline class="st4" points="59.4,62.8 117,118.3 117,100.3 59.4,62.8 	"/>
	<polyline class="st5" points="174.5,62.8 117,118.3 117,100.3 174.5,62.8 	"/>
	<path class="st6" d="M75,61.3l42,25.4c0-4.1,0-8.2,0-12.2L75,61.3"/>
	<path class="st7" d="M159,61.3l-42,25.4c0-4.1,0-8.2,0-12.2L159,61.3"/>
	<polyline class="st8" points="117,59.1 117,65.4 139.4,55.8 117,59.1 	"/>
	<path class="st9" d="M117,59.1c0,2.1,0,4.2,0,6.3L94.5,56L117,59.1"/>
	<path class="st10" d="M117,36.6c-0.6,0-1.3,0.1-1.9,0.4c-3.1,1.2-4.1,4.9-4.2,5.4c0.1,0.6,1.1,4,4.1,5.2c0.6,0.3,1.3,0.4,2,0.5
		L117,36.6z"/>
	<path class="st11" d="M117,48c0.6,0,1.3-0.1,1.9-0.4c3.1-1.2,4.1-4.9,4.2-5.4c-0.1-0.6-1.1-4-4.1-5.2c-0.6-0.3-1.3-0.4-2-0.5
		L117,48z"/>
</g>
<g>
	<defs>
		<rect id="SVGID_3_" x="-308" y="-98.8" width="1366" height="766"/>
	</defs>
	<clipPath id="SVGID_4_">
		<use xlink:href="#SVGID_3_"  style="overflow:visible;"/>
	</clipPath>
	<g class="st12">
		<defs>
			<polygon id="SVGID_5_" points="6.8,31.6 122,33.2 122.1,13.8 7,12.2 			"/>
		</defs>
		<clipPath id="SVGID_6_">
			<use xlink:href="#SVGID_5_"  style="overflow:visible;"/>
		</clipPath>
		<g class="st13">
			<g>
				<defs>
					<rect id="SVGID_7_" x="6.7" y="12" width="115.5" height="21.3"/>
				</defs>
				<clipPath id="SVGID_8_">
					<use xlink:href="#SVGID_7_"  style="overflow:visible;"/>
				</clipPath>
				<path class="st14" d="M34,31.8c-2.3,0-2,0-4.1,0c-5.6,0-5.1,0-5.8,0c-4.8,0-8.3-2.5-8.4-5.8c0-1.1,0-2.1-0.1-3.2
					c0-0.4,0.2-0.5,0.7-0.5c1.6,0.1,3.2,0.9,3.4,2.1c0.1,0.5,0.2,1,0.1,1.5c-0.2,1.4,1.8,2.7,3.4,2.8c3.3,0.1,6.7,0.2,10-0.1
					c2.3-0.2,3.5-1.3,3.5-2.9c0-0.4,0-0.9,0-1.3c0.2-1.2,1.8-2.2,3.5-2.2c0.4,0,0.6,0,0.5,0.3c0,1.5,0.2,3-0.1,4.5
					c-0.1,0.6-0.4,1.2-0.9,1.7l5.5,0c-1.6-2.2-1.1-6.8-1-6.9c0.4-0.9,3-0.9,3.8,0.3c0.2,0.3,0.2,0.8,0.3,2c0,0.4,0,0.8,0.1,1
					c0,1,0.1,1,0.1,1.1c0.1,1.1,1.6,2.6,2,2.1c0.3-0.3,0.5-5.9,0.5-6.6c0.3-0.5,0.9-0.6,1.8-0.6c0.3,0,1.5,0,1.9,0.7
					c0,0.6,0.1,5.5,0.1,6.6c0.7,0.1,2.2-1.2,2.3-2.4c0,0,0-0.1,0-0.2c0-0.3,0-0.6,0-1.9c0-1.2,0-1.8,0.1-2c0.7-1.2,3.6-1.1,3.9-0.2
					c0,0.1,0,0.1,0,0.2c0,0,0.3,3.7-0.2,5.5c0,0.1-0.1,0.2-0.1,0.3c-0.4,1.1-0.4,1.1,1.3,1.1c1.3,0,2.5,0.1,3.8-0.1
					c1.9-0.3,3.2-1.4,3.3-2.7c0-0.4,0-0.9,0-1.3c0.1-1.3,1.5-2.3,3.4-2.5c0.5,0,0.7,0,0.7,0.4c0,1.3,0.1,2.7,0,4
					c-0.2,2.7-3.9,5-8.1,5.2c-7.6,0.2-15.2,0.1-22.7,0.2c-2.2,0-4-0.1-4.4-0.1c-0.1,0-0.4,0-0.9,0l-0.7,0C35.2,31.8,34,31.8,34,31.8
					z"/>
				<path class="st14" d="M89.2,24.3L89.2,24.3c0,0.5,0,0.9,0,1.4c0.1,1.2,1.1,2.1,2.6,2.5c1.6,0.5,3.2,0.3,4.5-0.5
					c1.4-1,1.7-2.1,1-3.3c-0.7-1.2-2.2-1.8-4-1.9c-1.2,0-2.3,0-3.5,0c-0.6,0-0.7,0.1-0.7,0.5C89.2,23.4,89.2,23.9,89.2,24.3
					 M89.8,19.7c1.8,0,3.6-0.2,5.4,0.1c3.9,0.6,6.7,2.9,6.9,5.6c0.1,2.7-2.4,5.1-6.1,5.8c-3.1,0.6-5.9,0.2-8.3-1.4
					c-0.4-0.3-0.6-0.3-1.1,0c-1.5,1.1-3.4,1.7-5.7,1.6c-1.5,0-3.1,0-4.6,0c-0.7,0-0.8-0.2-0.8-0.6c0.1-1.1,1.4-2.1,3-2.2
					c0.7-0.1,1.5-0.1,2.2-0.1c2.3,0,4.1-1.3,4.1-2.9c0-1.8,0-3.5-0.1-5.3c0-0.6,0.2-0.7,1-0.7C87.1,19.7,88.5,19.7,89.8,19.7"/>
				<path class="st14" d="M105.3,21.6c0-2.5,0-5,0-7.4c0-0.5,0.2-0.6,0.8-0.5c1.7,0.1,3.2,1.1,3.4,2.3c0.2,1.4,0.1,2.9,0.2,4.3
					c0.1,2.5,0.1,5,0.1,7.6c0,0.5,0.1,0.7,0.9,0.6c1.3-0.2,2.7,0,4.1-0.2c1.7-0.3,3-1.4,3.1-2.6c0-0.5,0-1,0.1-1.5
					c0.1-1.3,1.6-2.3,3.4-2.4c0.5,0,0.7,0.1,0.7,0.4c0,1.3,0.1,2.6,0,3.8c-0.1,2.4-3.3,4.8-6.6,5.1c-2.1,0.2-4.1,0.3-6.2,0.1
					c-2.3-0.1-3.6-1.1-3.6-2.6c0-2.4,0-4.8,0-7.2L105.3,21.6"/>
			</g>
		</g>
	</g>
</g>
<g>
	<defs>
		<rect id="SVGID_9_" x="-308" y="-98.8" width="1366" height="766"/>
	</defs>
	<clipPath id="SVGID_10_">
		<use xlink:href="#SVGID_9_"  style="overflow:visible;"/>
	</clipPath>
	<path class="st15" d="M23.5,24.1c-0.1,1,0.7,2,1.8,2.1c1.1,0.1,2.1-0.6,2.2-1.7c0.1-1-0.7-2-1.8-2.1C24.6,22.3,23.6,23,23.5,24.1"
		/>
	<path class="st15" d="M27.5,24.1c-0.1,1,0.7,2,1.8,2.1c1.1,0.1,2.1-0.6,2.2-1.7c0.1-1-0.7-2-1.8-2.1C28.6,22.3,27.7,23,27.5,24.1"
		/>
	<path class="st15" d="M64.5,17.5c-0.1,1,0.7,2,1.8,2.1c1.1,0.1,2.1-0.6,2.2-1.7c0.1-1-0.7-2-1.8-2.1C65.6,15.7,64.6,16.4,64.5,17.5
		"/>
	<path class="st15" d="M68.6,17.5c-0.1,1,0.7,2,1.8,2.1c1.1,0.1,2.1-0.6,2.2-1.7c0.1-1-0.7-2-1.8-2.1C69.7,15.7,68.7,16.4,68.6,17.5
		"/>
	<g class="st15">
		<g>
			<defs>
				<path id="SVGID_11_" d="M133.8,25.8c0-1.1-0.1-1.9-0.4-2.4c-0.3-0.5-0.8-0.7-1.5-0.7H130v7.1h1.8c0.8,0,1.4-0.2,1.6-0.7
					c0.3-0.5,0.4-1.4,0.4-2.7L133.8,25.8z M133.4,17.7L133.4,17.7c0-1.2-0.3-1.9-0.8-2.2c-0.4-0.1-0.8-0.2-1.2-0.2H130v5.7h1.6
					c0.6,0,0.9-0.1,1.2-0.2c0.3-0.2,0.5-0.5,0.5-0.8c0.1-0.6,0.2-1.3,0.2-1.9L133.4,17.7z M127.1,13.7h4.4c1.8,0,3.1,0.3,3.7,0.9
					c0.7,0.6,1,1.6,1,3.1V18c0,1-0.1,1.9-0.4,2.5c-0.3,0.6-0.8,1.1-1.4,1.3c1.5,0.4,2.2,1.9,2.2,4.3v0.4c0,1.8-0.4,3-1.1,3.8
					c-0.7,0.8-1.9,1.2-3.7,1.2h-4.8V13.7z"/>
			</defs>
			<clipPath id="SVGID_12_">
				<use xlink:href="#SVGID_11_"  style="overflow:visible;"/>
			</clipPath>
			<g transform="matrix(1 0 0 1 7.629395e-06 0)" style="clip-path:url(#SVGID_12_);">
				
					<image style="overflow:visible;" width="40" height="75" xlink:href="DFE784CF.jpg"  transform="matrix(0.24 0 0 0.24 127.08 13.48)">
				</image>
			</g>
		</g>
	</g>
	<g class="st15">
		<g>
			<defs>
				<path id="SVGID_13_" d="M142.2,26.3h3.7L144,17h0L142.2,26.3z M142.2,13.7h3.4l4,17.8H147l-0.7-3.4h-4.4l-0.6,3.4h-2.7
					L142.2,13.7z"/>
			</defs>
			<clipPath id="SVGID_14_">
				<use xlink:href="#SVGID_13_"  style="overflow:visible;"/>
			</clipPath>
			<g style="clip-path:url(#SVGID_14_);">
				
					<image style="overflow:visible;" width="48" height="75" xlink:href="DFE784CD.jpg"  transform="matrix(0.24 0 0 0.24 138.36 13.48)">
				</image>
			</g>
		</g>
	</g>
	<g class="st15">
		<g>
			<defs>
				<path id="SVGID_15_" d="M154.7,26.3h3.7l-1.9-9.4h0L154.7,26.3z M154.7,13.7h3.4l4,17.8h-2.7l-0.7-3.4h-4.4l-0.6,3.4H151
					L154.7,13.7z"/>
			</defs>
			<clipPath id="SVGID_16_">
				<use xlink:href="#SVGID_15_"  style="overflow:visible;"/>
			</clipPath>
			<g style="clip-path:url(#SVGID_16_);">
				
					<image style="overflow:visible;" width="48" height="75" xlink:href="DFE784D3.jpg"  transform="matrix(0.24 0 0 0.24 150.84 13.48)">
				</image>
			</g>
		</g>
	</g>
	<g class="st15">
		<g>
			<defs>
				<polygon id="SVGID_17_" points="175,13.7 178.6,13.7 178.6,31.4 176.1,31.4 176.1,24.3 176.3,17.7 173,31.4 170.4,31.4 
					167,17.7 167.2,24.3 167.2,31.4 164.7,31.4 164.7,13.7 168.2,13.7 171.7,28.3 				"/>
			</defs>
			<clipPath id="SVGID_18_">
				<use xlink:href="#SVGID_17_"  style="overflow:visible;"/>
			</clipPath>
			<g style="clip-path:url(#SVGID_18_);">
				
					<image style="overflow:visible;" width="59" height="75" xlink:href="DFE784D5.jpg"  transform="matrix(0.24 0 0 0.24 164.52 13.48)">
				</image>
			</g>
		</g>
	</g>
	<g class="st15">
		<g>
			<defs>
				<polygon id="SVGID_19_" points="180.5,13.7 188.6,13.7 188.6,15.4 186.1,15.4 186.1,31.4 183.2,31.4 183.2,15.4 180.5,15.4 				
					"/>
			</defs>
			<clipPath id="SVGID_20_">
				<use xlink:href="#SVGID_19_"  style="overflow:visible;"/>
			</clipPath>
			<g style="clip-path:url(#SVGID_20_);">
				
					<image style="overflow:visible;" width="35" height="75" xlink:href="DFE784D7.jpg"  transform="matrix(0.24 0 0 0.24 180.36 13.48)">
				</image>
			</g>
		</g>
	</g>
	<g class="st15">
		<g>
			<defs>
				<polygon id="SVGID_21_" points="190.5,13.7 197.7,13.7 197.7,15.4 193.3,15.4 193.3,21.5 197.5,21.5 197.5,23.2 193.3,23.2 
					193.3,29.7 197.8,29.7 197.8,31.4 190.5,31.4 				"/>
			</defs>
			<clipPath id="SVGID_22_">
				<use xlink:href="#SVGID_21_"  style="overflow:visible;"/>
			</clipPath>
			<g style="clip-path:url(#SVGID_22_);">
				
					<image style="overflow:visible;" width="31" height="75" xlink:href="DFE784D4.jpg"  transform="matrix(0.24 0 0 0.24 190.44 13.48)">
				</image>
			</g>
		</g>
	</g>
	<g class="st15">
		<g>
			<defs>
				<path id="SVGID_23_" d="M200.4,19.2c-0.2-0.5-0.3-1-0.2-1.5c0-1.3,0.3-2.3,1-3.1c0.7-0.8,1.9-1.1,3.7-1.1c2.4,0,3.8,0.8,4.2,2.5
					c0.2,0.9,0.3,1.8,0.3,2.7v1h-2.7v-1.2c0-1.1-0.1-1.9-0.2-2.3c-0.1-0.3-0.3-0.6-0.6-0.8c-0.3-0.1-0.6-0.2-0.9-0.2
					c-0.7,0-1.2,0.2-1.5,0.6c-0.3,0.4-0.5,0.9-0.5,1.7c0,0.7,0.1,1.3,0.4,1.6c0.3,0.4,0.6,0.7,1,1c0.4,0.3,0.6,0.5,0.7,0.5l1.7,1.3
					c2,1.5,3,3.2,3,5.1c0,1.5-0.3,2.7-1,3.5s-1.9,1.2-3.7,1.2c-2.2,0-3.6-0.7-4.2-2.1c-0.3-0.8-0.5-1.8-0.5-3.1v-1.8h2.8v1.8
					c0,1.3,0.1,2.2,0.4,2.7c0.3,0.5,0.7,0.8,1.4,0.8c0.7,0,1.2-0.1,1.5-0.4c0.3-0.3,0.5-0.7,0.5-1.1c0-0.5,0.1-1,0.1-1.7
					c0-1.2-0.7-2.4-2.2-3.5l-1.6-1.2C201.6,21,200.7,20.1,200.4,19.2z"/>
			</defs>
			<clipPath id="SVGID_24_">
				<use xlink:href="#SVGID_23_"  style="overflow:visible;"/>
			</clipPath>
			<g style="clip-path:url(#SVGID_24_);">
				
					<image style="overflow:visible;" width="41" height="77" xlink:href="DFE784DC.jpg"  transform="matrix(0.24 0 0 0.24 200.04 13.24)">
				</image>
			</g>
		</g>
	</g>
	<g class="st15">
		<g>
			<defs>
				<polygon id="SVGID_25_" points="210.7,13.7 218.7,13.7 218.7,15.4 216.2,15.4 216.2,31.4 213.4,31.4 213.4,15.4 210.7,15.4 				
					"/>
			</defs>
			<clipPath id="SVGID_26_">
				<use xlink:href="#SVGID_25_"  style="overflow:visible;"/>
			</clipPath>
			<g style="clip-path:url(#SVGID_26_);">
				
					<image style="overflow:visible;" width="34" height="75" xlink:href="DFE784DD.jpg"  transform="matrix(0.24 0 0 0.24 210.6 13.48)">
				</image>
			</g>
		</g>
	</g>
	<path class="st15" d="M133.8,25.8c0-1.1-0.1-1.9-0.4-2.4c-0.3-0.5-0.8-0.7-1.5-0.7H130v7.1h1.8c0.8,0,1.4-0.2,1.6-0.7
		c0.3-0.5,0.4-1.4,0.4-2.7L133.8,25.8z M133.4,17.7L133.4,17.7c0-1.2-0.3-1.9-0.8-2.2c-0.4-0.1-0.8-0.2-1.2-0.2H130v5.7h1.6
		c0.6,0,0.9-0.1,1.2-0.2c0.3-0.2,0.5-0.5,0.5-0.8c0.1-0.6,0.2-1.3,0.2-1.9L133.4,17.7z M127.1,13.7h4.4c1.8,0,3.1,0.3,3.7,0.9
		c0.7,0.6,1,1.6,1,3.1V18c0,1-0.1,1.9-0.4,2.5c-0.3,0.6-0.8,1.1-1.4,1.3c1.5,0.4,2.2,1.9,2.2,4.3v0.4c0,1.8-0.4,3-1.1,3.8
		c-0.7,0.8-1.9,1.2-3.7,1.2h-4.8V13.7z"/>
	<path class="st15" d="M142.2,26.3h3.7L144,17h0L142.2,26.3z M142.2,13.7h3.4l4,17.8H147l-0.7-3.4h-4.4l-0.6,3.4h-2.7L142.2,13.7z"
		/>
	<path class="st15" d="M154.7,26.3h3.7l-1.9-9.4h0L154.7,26.3z M154.7,13.7h3.4l4,17.8h-2.7l-0.7-3.4h-4.4l-0.6,3.4H151L154.7,13.7z
		"/>
	<polygon class="st15" points="175,13.7 178.6,13.7 178.6,31.4 176.1,31.4 176.1,24.3 176.3,17.7 173,31.4 170.4,31.4 167,17.7 
		167.2,24.3 167.2,31.4 164.7,31.4 164.7,13.7 168.2,13.7 171.7,28.3 	"/>
	<polygon class="st15" points="180.5,13.7 188.6,13.7 188.6,15.4 186.1,15.4 186.1,31.4 183.2,31.4 183.2,15.4 180.5,15.4 	"/>
	<polygon class="st15" points="190.5,13.7 197.7,13.7 197.7,15.4 193.3,15.4 193.3,21.5 197.5,21.5 197.5,23.2 193.3,23.2 
		193.3,29.7 197.8,29.7 197.8,31.4 190.5,31.4 	"/>
	<path class="st15" d="M200.4,19.2c-0.2-0.5-0.3-1-0.2-1.5c0-1.3,0.3-2.3,1-3.1c0.7-0.8,1.9-1.1,3.7-1.1c2.4,0,3.8,0.8,4.2,2.5
		c0.2,0.9,0.3,1.8,0.3,2.7v1h-2.7v-1.2c0-1.1-0.1-1.9-0.2-2.3c-0.1-0.3-0.3-0.6-0.6-0.8c-0.3-0.1-0.6-0.2-0.9-0.2
		c-0.7,0-1.2,0.2-1.5,0.6c-0.3,0.4-0.5,0.9-0.5,1.7c0,0.7,0.1,1.3,0.4,1.6c0.3,0.4,0.6,0.7,1,1c0.4,0.3,0.6,0.5,0.7,0.5l1.7,1.3
		c2,1.5,3,3.2,3,5.1c0,1.5-0.3,2.7-1,3.5s-1.9,1.2-3.7,1.2c-2.2,0-3.6-0.7-4.2-2.1c-0.3-0.8-0.5-1.8-0.5-3.1v-1.8h2.8v1.8
		c0,1.3,0.1,2.2,0.4,2.7c0.3,0.5,0.7,0.8,1.4,0.8c0.7,0,1.2-0.1,1.5-0.4c0.3-0.3,0.5-0.7,0.5-1.1c0-0.5,0.1-1,0.1-1.7
		c0-1.2-0.7-2.4-2.2-3.5l-1.6-1.2C201.6,21,200.7,20.1,200.4,19.2z"/>
	<polygon class="st15" points="210.7,13.7 218.7,13.7 218.7,15.4 216.2,15.4 216.2,31.4 213.4,31.4 213.4,15.4 210.7,15.4 	"/>
</g>
</svg>
