<?xml version="1.0" encoding="UTF-8" ?>
<!DOCTYPE svg PUBLIC "-//W3C//DTD SVG 1.1//EN" "http://www.w3.org/Graphics/SVG/1.1/DTD/svg11.dtd">
<svg width="850pt" height="850pt" viewBox="0 0 850 850" version="1.1" xmlns="http://www.w3.org/2000/svg">
<g id="#23363dff">
<path fill="#23363d" opacity="1.00" d=" M 349.49 28.65 C 470.86 25.85 594.04 27.09 712.34 57.68 C 747.11 67.55 783.47 78.52 811.05 102.98 C 825.14 116.11 829.68 136.00 831.39 154.46 C 834.07 193.91 826.65 233.22 817.38 271.39 C 785.16 393.79 729.61 509.28 661.83 615.82 C 626.47 670.05 587.20 722.44 539.04 766.04 C 506.01 794.76 466.74 823.79 420.91 822.92 C 385.82 820.78 354.76 801.33 327.77 780.22 C 279.15 740.99 239.95 691.54 204.56 640.41 C 135.52 538.30 80.00 426.60 43.05 308.91 C 30.87 268.57 21.06 227.22 18.34 185.06 C 17.42 162.69 17.78 139.24 27.50 118.59 C 35.13 102.74 50.57 92.77 65.45 84.49 C 98.63 67.12 135.19 57.51 171.62 49.65 C 230.17 37.61 289.83 31.60 349.49 28.65 Z" />
</g>
</svg>
