<?xml version="1.0" encoding="utf-8"?>
<!-- Generator: Adobe Illustrator 23.0.0, SVG Export Plug-In . SVG Version: 6.00 Build 0)  -->
<svg version="1.1" id="Layer_1" xmlns="http://www.w3.org/2000/svg" xmlns:xlink="http://www.w3.org/1999/xlink" x="0px" y="0px"
	 viewBox="0 0 576.4 509.8" style="enable-background:new 0 0 576.4 509.8;" xml:space="preserve">
<style type="text/css">
	.st0{fill:#F5F5F5;}
	.st1{fill:#EBEBEB;}
	.st2{fill:#FE5F55;}
	.st3{opacity:0.102;}
	.st4{fill:#FFFFFF;}
	.st5{fill:#FAFAFA;}
	.st6{fill:#E0E0E0;}
	.st7{fill:#455A64;}
	.st8{opacity:0.4;fill:#FFFFFF;}
	.st9{opacity:0.2;}
	.st10{fill:none;stroke:#E0E0E0;stroke-width:1.1698;stroke-miterlimit:10;}
	.st11{fill:#37474F;}
</style>
<g>
	<path class="st0" d="M92.7,452.2c105,53.7,275.4,53.7,380.4,0c105-53.7,105-140.8,0-194.5s-275.4-53.7-380.4,0
		S-12.3,398.5,92.7,452.2z"/>
	<path class="st1" d="M436.3,366.4c5.8,3.3,17.1,2.2,25.3-2.6l47.2-27.4c8.2-4.7,10.2-11.3,4.4-14.6c-5.8-3.3-17.1-2.2-25.3,2.6
		l-47.2,27.5C432.5,356.6,430.5,363.1,436.3,366.4z"/>
	<polygon class="st1" points="151.8,391.7 103.7,364 151.8,336.2 	"/>
	<polygon class="st1" points="287.6,408.3 210.1,363.6 287.6,318.9 	"/>
	<path class="st2" d="M86.7,326.8c0.1-11.2-7.7-34.6-19.2-49.4c-11.5-14.7-29.7-25.6-42.8-21.3c-12.2,4-11.1,19.9,3.6,30.7
		c14.6,10.7,36.6,24.3,42.8,42.6l13.3,22.5L86.7,326.8z"/>
	<path class="st3" d="M86.7,326.8c0.1-11.2-7.7-34.6-19.2-49.4c-11.5-14.7-29.7-25.6-42.8-21.3c-12.2,4-11.1,19.9,3.6,30.7
		c14.6,10.7,36.6,24.3,42.8,42.6l13.3,22.5L86.7,326.8z"/>
	<path class="st4" d="M87.4,342.2c-0.4,0-0.7-0.3-0.7-0.7c-7.1-38.5-37.8-70.1-56.3-77.2c-0.3-0.1-0.5-0.3-0.6-0.6
		c-0.1-0.3,0.1-0.6,0.3-0.8c0.3-0.2,0.6-0.2,0.9-0.1c18.9,7.3,50.1,39.4,57.3,78.4c0,0.2,0,0.4-0.1,0.6c-0.1,0.2-0.3,0.3-0.5,0.3
		L87.4,342.2z"/>
	<path class="st2" d="M81.3,366.7c-1.7-6.3-9.3-16.9-21.7-25.6c-13.7-9.7-31.1-14.3-35.1-21.8c-4.7-9,2.9-17.3,17-15.4
		c14.2,1.9,38.9,21.6,42.5,50.8L81.3,366.7z"/>
	<path class="st4" d="M84.2,360.1c-0.3,0-0.6-0.2-0.7-0.5c-11.4-33-36.3-44.9-47.9-46.5c-0.4-0.1-0.8-0.5-0.7-0.9
		c0.1-0.4,0.5-0.8,0.9-0.7c12.8,1.8,37.6,13.9,49.3,47.6c0.1,0.4-0.1,0.9-0.5,1.1C84.4,360.1,84.3,360.1,84.2,360.1L84.2,360.1z"/>
	<path class="st2" d="M506.4,294.8c0,0,1.6-23.7,15.5-41.3c14-17.6,13.1-24.9,3.5-28.4s-32,17.7-27,46
		C503.3,299.5,506.4,294.8,506.4,294.8z"/>
	<path class="st3" d="M506.4,294.8c0,0,1.6-23.7,15.5-41.3c14-17.6,13.1-24.9,3.5-28.4s-32,17.7-27,46
		C503.3,299.5,506.4,294.8,506.4,294.8z"/>
	<path class="st4" d="M502.1,281.3c-0.3,0-0.5-0.2-0.6-0.5c-1.6-26.1,16.8-47.5,23.7-52.4c0.1-0.1,0.3-0.1,0.4-0.1
		c0.1,0,0.3,0.1,0.4,0.2c0.2,0.2,0.1,0.6-0.1,0.8c-6.8,4.7-24.9,25.8-23.2,51.4C502.6,281,502.4,281.3,502.1,281.3L502.1,281.3z"/>
	<path class="st2" d="M502.6,314.4c6.3,2.1,12.7,3.6,19.3,4.6c10.8,1.7,15.6-3.5,15.6-3.5s-4.3-10.1-10.4-13
		c6.6,1.5,13,4.1,18.8,7.7c0,0,6.6,0.1,9.2-10c0,0-3.9-6.1-17-9.3c0,0,8-2,19.5,0.9c0.9,0.3,4.5-12.7,5.7-18.7c1.1-6-1.3-5.9-6-7.2
		c-4.7-1.3-20.2-4.7-23.2-2.2c-2.9,2.6-4.4,11.4-4.4,11.4c-1.2-3.6-1.3-7.5-0.4-11.2c0,0-4.2-1.6-10.8,0.3c-5.3,1.6-5.6,5.2-5.4,9.3
		c0.3,3.6,1.1,7.1,2.4,10.5c0,0-4.2-5.3-4.3-17c0,0-11,5.4-12.8,16.3C497.1,289.3,495.7,306.6,502.6,314.4z"/>
	<path class="st4" d="M504.6,312.3c0.2,0,0.4-0.1,0.6-0.3c8.7-18.1,41.2-39.2,52.8-41.5c0.2,0,0.3-0.1,0.4-0.3
		c0.1-0.1,0.1-0.3,0.1-0.5c-0.1-0.3-0.4-0.5-0.7-0.5c-11.8,2.3-44.8,23.7-53.7,42.1c-0.1,0.3,0,0.7,0.3,0.8
		C504.4,312.3,504.5,312.3,504.6,312.3z"/>
	<path class="st5" d="M82.5,375.1c-1.3,0-2.1-1.1-2.1-3V173.1L324.2,32.3v198.3c-0.2,3.4-1.9,6.4-4.7,8.3l-235,135.6
		C83.8,374.9,83.2,375.1,82.5,375.1z"/>
	<path class="st6" d="M324.8,31.1L79.6,172.7v199.5c0,2.4,1.2,3.7,2.8,3.7c0.8,0,1.6-0.3,2.3-0.7l234.9-135.6c3-2,4.9-5.3,5.1-8.9
		L324.8,31.1L324.8,31.1z M323.4,33.5v197.1c-0.2,3.1-1.8,6-4.4,7.7L84.1,373.9c-0.5,0.3-1,0.5-1.6,0.5c-1.3,0-1.5-1.6-1.5-2.3
		V173.5L323.4,33.5"/>
	<polygon class="st2" points="79.7,172.7 79.7,206 324.8,64.4 324.8,31.1 	"/>
	<path class="st5" d="M98.9,174.4v4.7c0,1,0.7,1.4,1.5,0.9l75.4-43.5v-8.3l-75.4,43.5C99.5,172.4,98.9,173.4,98.9,174.4L98.9,174.4z
		"/>
	<path class="st7" d="M183.9,123.6c0.9-0.5,1.5-0.1,1.5,0.9v4.7c-0.1,1.1-0.6,2.1-1.5,2.7l-8.1,4.7v-8.3L183.9,123.6z"/>
	<path class="st7" d="M79.6,161.9c0.2-3.6,2.1-6.9,5.1-8.9L319.7,17.4c2.8-1.6,5.1-0.3,5.1,3v10.7L79.6,172.7V161.9z"/>
	<path class="st2" d="M297.6,35.8c-1.4,0.9-2.3,2.5-2.4,4.2c0,1.5,1.1,2.2,2.4,1.4c1.4-0.9,2.3-2.5,2.4-4.2
		C300,35.6,298.9,35,297.6,35.8z"/>
	<path class="st2" d="M305.2,31.4c-1.4,0.9-2.3,2.5-2.4,4.2c0,1.5,1.1,2.2,2.4,1.4c1.4-0.9,2.3-2.5,2.4-4.2
		C307.6,31.2,306.5,30.6,305.2,31.4z"/>
	<path class="st2" d="M312.8,27c-1.4,0.9-2.3,2.5-2.4,4.2c0,1.5,1.1,2.2,2.4,1.4c1.4-0.9,2.3-2.5,2.4-4.2
		C315.2,26.8,314.1,26.2,312.8,27z"/>
	<path class="st6" d="M104,208.6l57.1-32.9c2.8-1.6,5.1-0.3,5.1,3v54.8c-0.2,3.6-2.1,6.9-5.1,8.9L104,275.2c-2.8,1.6-5.1,0.3-5.1-3
		v-54.8C99.1,213.8,101,210.6,104,208.6L104,208.6z"/>
	<path class="st6" d="M185.7,161.4l119.5-69c2.8-1.6,5.1-0.3,5.1,3v54.8c-0.2,3.6-2.1,6.9-5.1,8.9l-119.5,69c-2.8,1.6-5.1,0.3-5.1-3
		v-54.8C180.8,166.7,182.7,163.4,185.7,161.4L185.7,161.4z"/>
	<path class="st6" d="M104,291.8l90.7-52.4c2.8-1.6,5.1-0.5,5.1,2.6c-0.3,3.5-2.2,6.7-5.1,8.5L104,302.9c-2.8,1.6-5.1,0.5-5.1-2.6
		C99.2,296.9,101.1,293.7,104,291.8z"/>
	<path class="st6" d="M104,311.3l90.7-52.4c2.8-1.6,5.1-0.5,5.1,2.6c-0.3,3.5-2.2,6.7-5.1,8.5L104,322.4c-2.8,1.6-5.1,0.5-5.1-2.6
		C99.2,316.3,101.1,313.1,104,311.3z"/>
	<path class="st6" d="M104,330.7l90.7-52.4c2.8-1.6,5.1-0.5,5.1,2.6c-0.3,3.5-2.2,6.7-5.1,8.5L104,341.8c-2.8,1.6-5.1,0.5-5.1-2.6
		C99.2,335.7,101.1,332.6,104,330.7L104,330.7z"/>
	<path class="st2" d="M146.9,264.8c0.1-2.2,1.3-4.1,3.1-5.3l157.3-90.8c1.9-1,4.2-1,6.2,0l3.5,2c1.8,1.2,3,3.2,3.1,5.3v120.6
		c-0.1,2.2-1.3,4.1-3.1,5.3l-157.3,90.8c-1.9,1-4.2,1-6.2,0l-3.5-2c-1.8-1.2-3-3.2-3.1-5.3L146.9,264.8z"/>
	<path class="st8" d="M147.8,261.8l8.7,5L319.1,173c-0.5-0.9-1.3-1.7-2.2-2.3l-3.4-2c-1.9-1-4.2-1-6.1,0L150,259.5
		C149.1,260.1,148.4,260.9,147.8,261.8z"/>
	<path class="st3" d="M146.9,264.8v120.6c0.1,2.2,1.3,4.1,3.1,5.3l3.5,2c0.3,0.2,0.5,0.3,0.8,0.4c0.4,0.1,0.8,0.2,1.3,0.3
		c0.8,0.1,1.6,0.1,2.4-0.1c0.2,0,0.4-0.1,0.6-0.2l0.4-0.1c-0.5,0.2-1,0.2-1.5,0c-0.7-0.4-1-1.2-0.9-2V270.4
		c-0.1-1.1,0.6-2.2,1.6-2.6l-1.6-0.9l-8.7-5C147.3,262.7,147,263.8,146.9,264.8z"/>
	<path class="st9" d="M156.6,266.8l72.8,27.2c5.2,1.9,11,0,14-4.6l11.7-17.9l64.5-98.9l-62.2,99.5l62.5,24.5c-0.1,1.1-0.4,2.1-1,3.1
		l-61.7-27.2l-13.6,21.7c-3.1,5-9.4,6.9-14.8,4.5l-9.7-4.3L157.5,393c-0.7-0.4-1-1.2-0.9-2v-2l62.3-94.6L156.6,266.8z"/>
	<path class="st5" d="M286.4,128.4v276.8c0,3.3,2.3,4.6,5.1,3l124.4-71.8c3-2,4.9-5.3,5.1-8.9l0-276.8c0-3.3-2.3-4.6-5.1-3
		l-124.4,71.8C288.5,121.5,286.6,124.8,286.4,128.4L286.4,128.4z"/>
	<path class="st10" d="M286.4,128.4v276.8c0,3.3,2.3,4.6,5.1,3l124.4-71.8c3-2,4.9-5.3,5.1-8.9l0-276.8c0-3.3-2.3-4.6-5.1-3
		l-124.4,71.8C288.5,121.5,286.6,124.8,286.4,128.4L286.4,128.4z"/>
	<path class="st7" d="M293.6,133.6c0.1-0.9,0.6-1.7,1.3-2.2l14.2-8.2c0.7-0.4,1.3-0.1,1.3,0.6c-0.1,0.9-0.6,1.7-1.3,2.2l-14.2,8.2
		C294.2,134.6,293.6,134.3,293.6,133.6z"/>
	<path class="st7" d="M293.6,139.1c0.1-0.9,0.6-1.7,1.3-2.2l14.2-8.2c0.7-0.4,1.3-0.1,1.3,0.6c-0.1,0.9-0.6,1.7-1.3,2.2l-14.2,8.2
		C294.2,140.1,293.6,139.8,293.6,139.1z"/>
	<path class="st7" d="M293.6,144.6c0.1-0.9,0.6-1.7,1.3-2.2l14.2-8.2c0.7-0.4,1.3-0.2,1.3,0.6c-0.1,0.9-0.6,1.7-1.3,2.2l-14.2,8.2
		C294.2,145.7,293.6,145.4,293.6,144.6z"/>
	<path class="st11" d="M403.9,80.6c-1.8,1-3.2,0.2-3.2-1.9c0.1-2.3,1.3-4.4,3.2-5.6c1.8-1,3.2-0.2,3.2,1.9
		C407,77.3,405.8,79.3,403.9,80.6L403.9,80.6z M411.4,73.6v-2.2c0-0.1,0-0.1-0.1-0.1c0,0-0.1,0-0.2,0l-1.7,0.8c-0.1,0-0.1,0-0.2,0
		c-0.1,0-0.1-0.1-0.1-0.1c-0.1-0.3-0.2-0.6-0.4-0.8c-0.1-0.1-0.1-0.3,0-0.4l1.2-2.3c0.1-0.1,0-0.3-0.1-0.3l-1.2-0.7
		c-0.1-0.1-0.3,0-0.3,0.1l-1.4,2.1c-0.1,0.1-0.2,0.2-0.4,0.2c-0.3,0-0.6,0-0.9,0.1c-0.1,0-0.1,0-0.2,0c-0.1,0-0.1-0.1-0.1-0.2
		l-0.2-1.9c0-0.1-0.1-0.2-0.2-0.1l-1.9,1.1c-0.1,0.1-0.2,0.2-0.2,0.4l-0.2,2.1c0,0.2-0.1,0.3-0.2,0.4c-0.4,0.4-0.7,0.8-1.1,1.2
		c-0.1,0.1-0.2,0.2-0.4,0.1l-1.2-0.4c-0.1,0-0.3,0-0.3,0.1L398,75c-0.1,0.1,0,0.3,0.1,0.4l1,0.9c0.1,0.1,0.1,0.2,0.1,0.4
		c-0.2,0.5-0.3,1-0.4,1.5c0,0.1-0.1,0.3-0.2,0.4l-1.8,1.2c-0.1,0.1-0.2,0.2-0.2,0.4l0,2.2c0,0.1,0,0.1,0.1,0.1c0.1,0,0.1,0,0.2,0
		l1.7-0.8c0.1,0,0.1,0,0.2,0c0.1,0,0.1,0.1,0.1,0.1c0.1,0.3,0.2,0.6,0.4,0.8c0.1,0.1,0.1,0.3,0,0.4l-1.2,2.3c-0.1,0.1,0,0.3,0.1,0.3
		l1.2,0.7c0.1,0.1,0.3,0,0.3-0.1l1.4-2.1c0.1-0.1,0.2-0.2,0.4-0.2c0.3,0,0.6,0,0.9-0.1c0.1,0,0.1,0,0.2,0c0.1,0,0.1,0.1,0.1,0.2
		l0.2,1.9c0,0.1,0.1,0.2,0.2,0.1l1.9-1.1c0.1-0.1,0.2-0.2,0.2-0.4l0.2-2.1c0-0.1,0.1-0.3,0.2-0.4c0.4-0.4,0.7-0.8,1.1-1.2
		c0.1-0.1,0.2-0.2,0.4-0.1l1.2,0.4c0.1,0,0.3,0,0.3-0.1l1.4-2.4c0.1-0.1,0-0.3-0.1-0.4l-1-0.8c-0.1-0.1-0.1-0.2-0.1-0.4
		c0.2-0.5,0.3-1,0.4-1.5c0-0.1,0.1-0.3,0.2-0.4l1.8-1.2C411.3,73.9,411.4,73.7,411.4,73.6z"/>
	<path class="st7" d="M353.7,128.2c14.5-8.4,26.3-1.6,26.3,15.2c0,16.8-11.8,37.2-26.3,45.6c-14.5,8.4-26.3,1.6-26.3-15.2
		C327.4,157,339.1,136.6,353.7,128.2z"/>
	<path class="st2" d="M353.5,141.4c4.7-2.7,8.5-0.5,8.5,4.9c-0.3,6-3.5,11.5-8.5,14.8c-4.7,2.7-8.5,0.5-8.5-4.9
		C345.3,150.1,348.5,144.6,353.5,141.4L353.5,141.4z"/>
	<path class="st2" d="M370.3,170.4c0-8.9-6.3-12.6-14-8.1l-4.9,2.8c-7.7,4.5-14,15.4-14,24.3v2.4c1.5,0.5,3,0.7,4.5,0.7
		c4.2-0.1,8.2-1.4,11.7-3.6c6.8-4.2,12.5-9.8,16.7-16.5V170.4z"/>
	<path class="st2" d="M329.9,213.9l47.5-27.4c1.4-0.8,2.6-0.2,2.6,1.3c-0.1,1.7-1.1,3.3-2.6,4.2l-47.5,27.4
		c-1.4,0.8-2.6,0.2-2.6-1.3C327.5,216.4,328.4,214.8,329.9,213.9z"/>
	<path class="st7" d="M324.8,233.5l57.7-33.4c1.4-0.8,2.6-0.2,2.6,1.3c-0.1,1.7-1.1,3.3-2.6,4.2l-57.7,33.4
		c-1.4,0.8-2.6,0.2-2.6-1.3C322.4,236,323.3,234.4,324.8,233.5z"/>
	<path class="st11" d="M384.1,227l16.2-9.3c0.9-0.5,1.5-0.3,1.5,0.5c-0.1,1-0.7,1.8-1.5,2.3l-16.2,9.3c-0.8,0.5-1.5,0.3-1.5-0.5
		C382.6,228.4,383.2,227.5,384.1,227z"/>
	<path class="st2" d="M303.4,268.1l23.7-13.7c1.4-0.8,2.6-0.2,2.6,1.5v16.3c-0.1,1.8-1,3.4-2.6,4.4l-23.7,13.7
		c-1.4,0.8-2.6,0.2-2.6-1.5v-16.3C300.9,270.7,301.8,269.1,303.4,268.1z"/>
	<path class="st5" d="M307.1,270.4l16.2-9.3c0.9-0.5,1.5-0.3,1.5,0.5c-0.1,1-0.7,1.8-1.5,2.3l-16.2,9.3c-0.9,0.5-1.5,0.3-1.5-0.5
		C305.7,271.7,306.3,270.8,307.1,270.4z"/>
	<path class="st5" d="M305.6,278.6v4.7c0,1,0.7,1.4,1.5,0.9l16.2-9.3c0.9-0.6,1.5-1.6,1.5-2.7l0-4.7c0-1-0.7-1.4-1.5-0.9l-16.2,9.3
		C306.2,276.5,305.6,277.5,305.6,278.6z"/>
	<path class="st2" d="M341.8,245.9l23.7-13.7c1.4-0.8,2.6-0.2,2.6,1.5V250c-0.1,1.8-1.1,3.5-2.6,4.4l-23.7,13.7
		c-1.4,0.8-2.6,0.2-2.6-1.5v-16.3C339.4,248.5,340.3,246.9,341.8,245.9L341.8,245.9z"/>
	<path class="st5" d="M345.6,248.2l16.2-9.3c0.8-0.5,1.5-0.3,1.5,0.5c-0.1,1-0.7,1.8-1.5,2.3l-16.2,9.3c-0.9,0.5-1.5,0.3-1.5-0.5
		C344.2,249.5,344.8,248.6,345.6,248.2L345.6,248.2z"/>
	<path class="st5" d="M344.1,256.4v4.7c0,1,0.7,1.4,1.5,0.9l16.2-9.3c0.9-0.6,1.5-1.6,1.5-2.7v-4.7c0-1-0.7-1.4-1.5-0.9l-16.2,9.3
		C344.7,254.3,344.1,255.3,344.1,256.4z"/>
	<path class="st2" d="M380.3,223.7l23.7-13.7c1.4-0.8,2.6-0.2,2.6,1.5v16.3c-0.1,1.8-1,3.4-2.6,4.4l-23.7,13.7
		c-1.4,0.8-2.6,0.2-2.6-1.5v-16.3C377.8,226.3,378.8,224.7,380.3,223.7L380.3,223.7z"/>
	<path class="st5" d="M384.1,226l16.2-9.3c0.9-0.5,1.5-0.3,1.5,0.5c-0.1,1-0.7,1.8-1.5,2.3l-16.2,9.3c-0.8,0.5-1.5,0.3-1.5-0.5
		C382.6,227.3,383.2,226.4,384.1,226z"/>
	<path class="st5" d="M382.5,234.2v4.7c0,1,0.7,1.4,1.5,0.9l16.2-9.3c0.9-0.6,1.5-1.6,1.5-2.7l0-4.7c0-1-0.7-1.4-1.5-0.9l-16.2,9.3
		C383.1,232.1,382.6,233.1,382.5,234.2z"/>
	<path class="st6" d="M305.9,305.5l95.5-55.1c2.8-1.6,5.1-0.5,5.1,2.6c-0.3,3.5-2.2,6.7-5.1,8.5l-95.5,55.1
		c-2.8,1.6-5.1,0.5-5.1-2.6C301.1,310.5,303,307.3,305.9,305.5z"/>
	<path class="st6" d="M305.9,327.7l95.5-55.1c2.8-1.6,5.1-0.5,5.1,2.6c-0.3,3.5-2.2,6.7-5.1,8.5l-95.5,55.2
		c-2.8,1.6-5.1,0.5-5.1-2.6C301.1,332.7,303,329.5,305.9,327.7L305.9,327.7z"/>
	<path class="st2" d="M337,337.5l33.3-19.2c1.4-0.8,2.6-0.2,2.6,1.5v10.7c-0.1,1.8-1.1,3.5-2.6,4.4L337,354.1
		c-1.4,0.8-2.6,0.2-2.6-1.5v-10.7C334.5,340.1,335.5,338.5,337,337.5L337,337.5z"/>
	<path class="st5" d="M308,307.1c-1.4,0.9-2.3,2.5-2.4,4.2c0,1.5,1.1,2.2,2.4,1.4c1.4-0.9,2.3-2.5,2.4-4.2
		C310.4,307,309.3,306.3,308,307.1z"/>
	<path class="st5" d="M315.6,302.7c-1.4,0.9-2.3,2.5-2.4,4.2c0,1.5,1.1,2.2,2.4,1.4c1.4-0.9,2.3-2.5,2.4-4.2
		C318,302.6,316.9,301.9,315.6,302.7z"/>
	<path class="st5" d="M323.2,298.4c-1.4,0.9-2.3,2.5-2.4,4.2c0,1.5,1.1,2.2,2.4,1.4c1.4-0.9,2.3-2.5,2.4-4.2
		C325.6,298.1,324.6,297.5,323.2,298.4z"/>
	<path class="st5" d="M330.9,293.9c-1.4,0.9-2.3,2.5-2.4,4.2c0,1.5,1.1,2.2,2.4,1.4c1.4-0.9,2.3-2.5,2.4-4.2
		C333.3,293.7,332.2,293.1,330.9,293.9z"/>
	<path class="st5" d="M338.5,289.5c-1.4,0.9-2.3,2.5-2.4,4.2c0,1.5,1.1,2.2,2.4,1.4c1.4-0.9,2.3-2.5,2.4-4.2
		C340.9,289.3,339.8,288.7,338.5,289.5z"/>
	<path class="st5" d="M346.1,285.1c-1.4,0.9-2.3,2.5-2.4,4.2c0,1.5,1.1,2.2,2.4,1.4c1.4-0.9,2.3-2.5,2.4-4.2
		C348.5,284.9,347.4,284.3,346.1,285.1z"/>
	<path class="st5" d="M353.7,280.7c-1.4,0.9-2.3,2.5-2.4,4.2c0,1.5,1.1,2.2,2.4,1.4c1.4-0.9,2.3-2.5,2.4-4.2
		C356.1,280.6,355,279.9,353.7,280.7z"/>
	<path class="st5" d="M308,329.3c-1.4,0.9-2.3,2.5-2.4,4.2c0,1.5,1.1,2.2,2.4,1.4c1.4-0.9,2.3-2.5,2.4-4.2
		C310.4,329.2,309.3,328.6,308,329.3z"/>
	<path class="st5" d="M315.6,324.9c-1.4,0.9-2.3,2.5-2.4,4.2c0,1.5,1.1,2.2,2.4,1.4c1.4-0.9,2.3-2.5,2.4-4.2
		C318,324.8,316.9,324.2,315.6,324.9z"/>
	<path class="st5" d="M323.2,320.5c-1.4,0.9-2.3,2.5-2.4,4.2c0,1.5,1.1,2.2,2.4,1.4c1.4-0.9,2.3-2.5,2.4-4.2
		C325.6,320.4,324.6,319.7,323.2,320.5z"/>
	<path class="st5" d="M330.9,316.1c-1.4,0.9-2.3,2.5-2.4,4.2c0,1.5,1.1,2.2,2.4,1.4c1.4-0.9,2.3-2.5,2.4-4.2
		C333.3,316,332.2,315.3,330.9,316.1z"/>
	<path class="st5" d="M338.5,311.7c-1.4,0.9-2.3,2.5-2.4,4.2c0,1.5,1.1,2.2,2.4,1.4c1.4-0.9,2.3-2.5,2.4-4.2
		C340.9,311.6,339.8,310.9,338.5,311.7z"/>
	<path class="st5" d="M346.1,307.3c-1.4,0.9-2.3,2.5-2.4,4.2c0,1.5,1.1,2.2,2.4,1.4c1.4-0.9,2.3-2.5,2.4-4.2
		C348.5,307.2,347.4,306.5,346.1,307.3z"/>
	<path class="st5" d="M353.7,302.9c-1.4,0.9-2.3,2.5-2.4,4.2c0,1.5,1.1,2.2,2.4,1.4c1.4-0.9,2.3-2.5,2.4-4.2
		C356.1,302.8,355,302.1,353.7,302.9z"/>
	<path class="st7" d="M485,273.2c-2.9,0.2-5.7,1.1-8.1,2.7c-13.5,7.8-24.9,28.7-24.9,45.7c0,6.9,1.9,12.1,5.2,14
		c3.7,2.1,8.8-0.2,11.5-1.8c13.5-7.8,24.9-28.8,24.9-45.8c0-6.9-1.9-12.1-5.2-14C487.4,273.5,486.2,273.2,485,273.2L485,273.2z
		 M460.5,352.9c-4.1,0-8.1-1-11.7-3.1c-8.5-4.9-13.4-15.2-13.4-28.3c0-22.9,14.6-49.3,33.1-60.1c10-5.8,20-6.4,28-1.8
		c8.5,4.9,13.4,15.2,13.4,28.3c0,22.9-14.6,49.3-33.2,60.1C471.9,351.1,466.3,352.8,460.5,352.9L460.5,352.9z"/>
	<path class="st11" d="M496.5,291.7c0-12.9-8.1-17.6-8.1-17.6c3.2,1.9,5.2,7.1,5.2,14c0,17-11.4,38-24.9,45.8
		c-2.7,1.6-7.8,3.9-11.5,1.8c0,0,6.9,4.3,16.3-0.9C487.1,327.2,496.5,308.7,496.5,291.7z"/>
	<path class="st11" d="M483.5,130.6c-0.2-4.6-3.9-8.2-8.5-8.2c-4.6,0-8.4,3.6-8.5,8.2h0v135.8c0.1,1.5,1.1,2.9,2.5,3.6
		c3.8,1.9,8.3,1.9,12.1,0c1.4-0.6,2.4-2,2.5-3.6V130.6L483.5,130.6z"/>
	<path class="st7" d="M476.7,161c-0.2-3.5-2-6.6-4.9-8.5c-1-0.8-2.4-0.9-3.6-0.3l-21,12.1l-0.5,0.3c-0.1,0-0.1,0.1-0.2,0.1
		c-0.4,0.2-0.7,0.5-1,0.8c-2.5,2.4-2.7,6.3-0.7,9.1c2.1,2.8,5.9,3.6,8.9,2l0.4-0.2l21.2-12.2C476.3,163.4,476.8,162.2,476.7,161
		L476.7,161z"/>
	<path class="st7" d="M476.7,195c-0.2-3.5-2-6.6-4.9-8.5c-1-0.8-2.4-0.9-3.6-0.3l-24.7,14.2l-0.5,0.3c-0.1,0-0.1,0.1-0.2,0.1
		c-0.4,0.2-0.7,0.5-1,0.8c-1.6,1.6-2.3,3.8-2,5.9c0.3,2.2,1.6,4.1,3.6,5.2c1,0.5,2.2,0.8,3.3,0.8c1.2,0,2.3-0.3,3.3-0.8
		c0.1-0.1,0.3-0.2,0.4-0.2l24.9-14.2C476.3,197.5,476.8,196.2,476.7,195z"/>
</g>
</svg>
