<?xml version="1.0" encoding="UTF-8" ?>
<!DOCTYPE svg PUBLIC "-//W3C//DTD SVG 1.1//EN" "http://www.w3.org/Graphics/SVG/1.1/DTD/svg11.dtd">
<svg width="552pt" height="381pt" viewBox="0 0 552 381" version="1.1" xmlns="http://www.w3.org/2000/svg">
<g id="#ffffffff">
</g>
<g id="#90e085ff">
<path fill="#90e085" opacity="1.00" d=" M 106.31 35.27 C 113.09 25.98 124.46 20.35 135.94 20.31 C 254.64 20.37 373.33 20.32 492.03 20.34 C 501.78 20.58 511.29 24.94 518.05 31.94 C 523.27 37.37 526.65 44.42 528.09 51.78 C 529.06 57.13 528.60 62.60 528.65 68.01 C 528.65 130.34 528.65 192.67 528.65 255.00 C 528.61 261.21 529.14 267.54 527.63 273.64 C 525.86 281.10 521.89 288.04 516.21 293.21 C 510.14 298.86 501.99 302.06 493.75 302.56 C 489.17 302.84 484.58 302.66 480.00 302.67 C 404.00 302.66 328.00 302.69 252.01 302.66 C 247.83 302.79 243.49 302.03 239.44 303.30 C 237.37 306.09 236.08 309.35 234.24 312.28 C 225.19 326.78 212.88 339.21 198.49 348.43 C 177.20 362.00 151.12 367.99 126.06 364.82 C 101.57 361.97 78.19 350.66 60.79 333.20 C 42.60 315.45 30.80 291.28 28.19 265.97 C 26.73 254.00 27.60 241.83 30.13 230.06 C 38.01 194.45 64.56 163.55 98.73 150.69 C 99.17 124.80 98.79 98.90 98.93 73.00 C 98.98 66.67 98.69 60.32 99.20 54.00 C 99.74 47.25 102.36 40.75 106.31 35.27 M 133.57 52.64 C 130.49 53.59 130.49 57.39 130.34 60.03 C 130.26 69.59 130.53 79.17 130.25 88.74 C 136.50 88.62 142.75 88.65 149.00 88.66 C 258.33 88.66 367.67 88.66 477.00 88.66 C 483.59 88.65 490.18 88.61 496.76 88.77 C 496.66 79.15 496.71 69.54 496.79 59.93 C 496.67 57.98 496.87 55.85 495.90 54.08 C 494.63 52.17 492.09 52.24 490.08 52.07 C 376.05 52.08 262.03 52.08 148.00 52.07 C 143.20 52.18 138.29 51.54 133.57 52.64 M 219.54 177.08 C 221.82 180.23 224.34 183.20 226.79 186.22 C 233.06 194.02 237.85 202.91 241.84 212.05 C 249.49 230.17 251.54 250.35 249.19 269.80 C 251.78 269.85 254.38 269.90 256.99 269.92 C 331.66 269.93 406.32 269.90 480.99 269.94 C 485.43 269.83 490.00 270.47 494.34 269.27 C 496.63 268.12 496.58 265.21 496.74 263.02 C 496.77 234.32 496.60 205.61 496.81 176.91 C 490.21 176.67 483.60 176.71 477.00 176.74 C 397.00 176.73 317.00 176.74 237.00 176.74 C 231.18 176.70 225.35 176.62 219.54 177.08 M 126.70 262.99 C 121.35 258.11 116.37 252.86 111.22 247.78 C 108.20 244.85 105.57 241.47 102.00 239.15 C 98.81 241.17 96.42 244.13 93.77 246.76 C 89.03 251.54 84.20 256.24 79.54 261.10 C 90.53 272.89 102.32 283.90 113.52 295.49 C 115.88 297.81 118.19 300.58 121.54 301.41 C 125.05 302.19 128.76 302.12 132.24 301.23 C 136.75 299.97 139.76 296.12 142.96 292.97 C 158.25 277.59 173.38 262.04 188.67 246.67 C 191.64 243.40 195.03 240.48 197.56 236.84 C 197.34 235.28 195.83 234.28 194.89 233.13 C 188.41 226.85 182.09 220.41 175.69 214.05 C 159.23 230.23 142.98 246.63 126.70 262.99 Z" />
<path fill="#90e085" opacity="1.00" d=" M 373.16 212.23 C 383.69 212.41 394.22 212.37 404.75 212.25 C 404.77 222.82 404.64 233.40 404.82 243.97 C 394.24 244.17 383.66 244.12 373.07 244.00 C 373.15 233.41 373.04 222.82 373.16 212.23 Z" />
<path fill="#90e085" opacity="1.00" d=" M 432.96 212.23 C 443.51 212.45 454.07 212.24 464.63 212.37 C 464.72 222.88 464.51 233.40 464.78 243.91 C 454.14 244.24 443.49 244.09 432.84 244.01 C 432.65 233.42 432.47 222.82 432.96 212.23 Z" />
</g>
</svg>
