<?xml version="1.0" encoding="UTF-8" ?>
<!DOCTYPE svg PUBLIC "-//W3C//DTD SVG 1.1//EN" "http://www.w3.org/Graphics/SVG/1.1/DTD/svg11.dtd">
<svg width="555pt" height="386pt" viewBox="0 0 555 386" version="1.1" xmlns="http://www.w3.org/2000/svg">
<g id="#ffffffff">
</g>
<g id="#e08e85ff">
<path fill="#e08e85" opacity="1.00" d=" M 103.24 41.27 C 109.09 29.45 121.85 21.65 134.97 21.34 C 250.64 21.33 366.32 21.34 482.00 21.34 C 486.53 21.35 491.08 21.08 495.60 21.61 C 503.84 22.66 511.68 26.57 517.56 32.43 C 524.35 39.49 528.58 49.11 528.68 58.95 C 528.61 128.31 528.67 197.67 528.65 267.03 C 528.32 277.25 523.80 287.32 516.21 294.21 C 510.15 299.88 501.99 303.06 493.75 303.57 C 489.50 303.82 485.24 303.66 481.00 303.67 C 404.33 303.65 327.67 303.69 251.00 303.65 C 247.16 303.79 243.12 303.03 239.43 304.30 C 237.37 307.09 236.10 310.36 234.24 313.28 C 226.42 325.72 216.29 336.77 204.35 345.37 C 185.90 359.09 162.95 366.42 140.00 366.68 C 116.19 366.66 92.24 359.21 73.19 344.81 C 62.85 337.27 53.93 327.86 46.70 317.33 C 30.11 293.19 23.82 262.28 29.60 233.57 C 36.20 199.95 59.41 170.08 90.33 155.33 C 93.07 154.06 95.85 152.85 98.60 151.59 C 98.76 149.74 98.91 147.90 98.96 146.05 C 98.88 117.70 98.93 89.34 98.92 60.99 C 98.85 54.20 99.97 47.29 103.24 41.27 M 131.36 55.43 C 130.10 58.07 130.39 61.11 130.30 63.96 C 130.47 72.52 130.28 81.09 130.33 89.65 C 252.45 89.68 374.57 89.63 496.68 89.68 C 496.88 81.79 496.59 73.90 496.75 66.01 C 496.74 62.81 496.98 59.58 496.44 56.42 C 496.17 54.67 494.49 53.47 492.81 53.33 C 488.23 52.74 483.60 53.15 479.00 53.08 C 365.31 53.07 251.62 53.11 137.93 53.06 C 135.64 53.22 132.62 53.08 131.36 55.43 M 219.70 178.04 C 220.84 179.93 222.10 181.76 223.59 183.39 C 231.73 192.47 237.72 203.26 242.43 214.46 C 247.56 227.32 250.03 241.18 250.13 255.00 C 250.20 260.26 249.57 265.48 249.31 270.73 C 250.85 270.81 252.39 270.88 253.94 270.93 C 329.29 270.92 404.65 270.92 480.00 270.93 C 484.53 270.84 489.12 271.34 493.61 270.51 C 495.41 270.19 496.36 268.33 496.51 266.65 C 497.00 262.79 496.70 258.88 496.73 255.00 C 496.70 229.35 496.73 203.70 496.73 178.05 C 491.83 177.55 486.91 177.69 482.00 177.73 C 399.33 177.74 316.67 177.73 234.00 177.74 C 229.23 177.70 224.45 177.56 219.70 178.04 M 103.66 207.67 C 98.66 212.66 93.80 217.79 88.65 222.65 C 86.93 224.24 85.42 226.04 84.02 227.93 C 93.52 238.25 103.91 247.74 113.31 258.16 C 112.05 259.93 110.73 261.66 109.17 263.17 C 102.27 269.94 95.70 277.03 88.79 283.78 C 87.21 285.33 85.86 287.08 84.57 288.87 C 88.29 293.32 92.67 297.14 96.70 301.30 C 100.38 304.81 103.63 308.80 107.73 311.85 C 117.59 302.22 126.68 291.79 136.98 282.63 C 143.37 288.00 148.77 294.43 154.79 300.20 C 158.87 304.02 162.30 308.52 166.78 311.91 C 170.83 308.25 174.52 304.23 178.41 300.41 C 182.19 296.54 186.21 292.91 189.79 288.86 C 186.54 284.91 182.66 281.56 179.16 277.84 C 173.77 272.24 168.25 266.75 162.81 261.20 C 162.14 260.23 160.82 259.42 160.94 258.12 C 162.06 256.25 163.65 254.72 165.16 253.18 C 172.21 246.22 179.02 239.02 186.15 232.16 C 187.46 230.83 188.82 229.50 189.75 227.86 C 189.65 226.22 187.94 225.21 186.98 224.02 C 180.73 218.26 175.06 211.91 168.84 206.14 C 167.09 203.99 164.91 206.21 163.56 207.58 C 156.73 214.74 149.71 221.72 142.91 228.91 C 141.07 230.87 139.06 232.66 136.99 234.37 C 135.11 232.81 133.26 231.20 131.57 229.43 C 124.87 222.46 117.89 215.77 111.32 208.68 C 109.98 207.45 108.81 205.80 107.01 205.25 C 105.64 205.61 104.69 206.78 103.66 207.67 Z" />
<path fill="#e08e85" opacity="1.00" d=" M 373.25 213.31 C 383.72 213.33 394.19 213.30 404.66 213.33 C 404.86 223.84 404.70 234.36 404.75 244.87 C 394.23 245.26 383.68 245.21 373.16 244.91 C 373.08 234.38 372.95 223.84 373.25 213.31 Z" />
<path fill="#e08e85" opacity="1.00" d=" M 433.09 213.31 C 443.57 213.41 454.06 213.11 464.53 213.48 C 464.84 223.91 464.56 234.36 464.70 244.80 C 454.13 245.35 443.53 245.16 432.96 244.92 C 432.63 240.95 432.58 236.97 432.67 233.00 C 432.83 226.44 432.26 219.85 433.09 213.31 Z" />
</g>
</svg>
