<?xml version="1.0" encoding="utf-8"?>
<!-- Generator: Adobe Illustrator 23.0.0, SVG Export Plug-In . SVG Version: 6.00 Build 0)  -->
<svg version="1.1" id="Layer_1" xmlns="http://www.w3.org/2000/svg" xmlns:xlink="http://www.w3.org/1999/xlink" x="0px" y="0px"
	 viewBox="0 0 14.9 17.1" style="enable-background:new 0 0 14.9 17.1;" xml:space="preserve">
<style type="text/css">
	.st0{fill:#fff;}
</style>
<path class="st0" d="M10.7,12.1L10.7,12.1c-0.3-1.4-1-2.4-2-3.1c0.8-2.7-0.5-4-1.2-4.5C7.2,4.1,7.1,3.8,7.1,3.4
	c0-1.4,1.2-2.6,2.6-2.6c1.4,0,2.6,1.2,2.6,2.6c0,0.7-0.3,1.3-0.8,1.8c1.7,0.7,2.7,2.4,2.7,4.2v1.6C13.2,11.6,11.9,12,10.7,12.1
	L10.7,12.1z M5.2,16.3c-1.6,0-3.2-0.4-4.6-1.2v-1.6c0-1.8,1.1-3.4,2.7-4.2C2.9,8.9,2.6,8.2,2.6,7.5c0-1.4,1.2-2.6,2.6-2.6
	c1.4,0,2.6,1.2,2.6,2.6c0,0.7-0.3,1.3-0.8,1.8c1.7,0.7,2.7,2.4,2.7,4.2v1.6C8.4,15.9,6.8,16.3,5.2,16.3z"/>
</svg>
