<?xml version="1.0" encoding="utf-8"?>
<!-- Generator: Adobe Illustrator 23.0.0, SVG Export Plug-In . SVG Version: 6.00 Build 0)  -->
<svg version="1.1" id="Layer_1" xmlns="http://www.w3.org/2000/svg" xmlns:xlink="http://www.w3.org/1999/xlink" x="0px" y="0px"
	 viewBox="0 0 17.6 17.5" style="enable-background:new 0 0 17.6 17.5;" xml:space="preserve">
<style type="text/css">
	.st0{fill:#3A82A4;}
</style>
<g>
	<path class="st0" d="M14.2,11.5l-1.6-1.6c0.2-0.8,0.2-1.3,0-2.1l1.6-1.6c0.4,0.8,0.6,1.7,0.6,2.6S14.6,10.7,14.2,11.5z M8.8,14.9
		c-0.9,0-1.8-0.2-2.6-0.6l1.6-1.6c0.8,0.2,1.3,0.2,2.1,0l1.6,1.6C10.6,14.7,9.7,14.9,8.8,14.9z M2.8,8.9C2.8,8,3,7.1,3.4,6.3L5,7.9
		C4.7,8.6,4.7,9.2,5,9.9l-1.6,1.6C3,10.7,2.8,9.8,2.8,8.9z M8.8,2.9c0.9,0,1.8,0.2,2.6,0.6L9.8,5.1c-0.8-0.2-1.3-0.2-2.1,0L6.2,3.5
		C7,3.1,7.9,2.9,8.8,2.9z M8.8,10.9c-1.1,0-2-0.9-2-2s0.9-2,2-2s2,0.9,2,2S9.9,10.9,8.8,10.9z M8.8,0.9c-4.4,0-8,3.6-8,8s3.6,8,8,8
		s8-3.6,8-8S13.2,0.9,8.8,0.9z"/>
</g>
</svg>
