<?xml version="1.0" encoding="utf-8"?>
<!-- Generator: Adobe Illustrator 23.0.0, SVG Export Plug-In . SVG Version: 6.00 Build 0)  -->
<svg version="1.1" id="Layer_1" xmlns="http://www.w3.org/2000/svg" xmlns:xlink="http://www.w3.org/1999/xlink" x="0px" y="0px"
	 viewBox="0 0 17.6 15" style="enable-background:new 0 0 17.6 15;" xml:space="preserve">
<style type="text/css">
	.st0{fill:#3D82A4;}
</style>
<path class="st0" d="M16.9,4.5L16.9,4.5h-5.8V0.7h3.7c1.2,0,2.1,1,2.1,2.1V4.5L16.9,4.5z M8.9,8.3L8.9,8.3h-8V2.9
	c0-1.2,0.9-2.1,2.1-2.1h5.9V8.3L8.9,8.3z M8.9,14.2L8.9,14.2H3c-1.2,0-2.1-1-2.1-2.1v-1.7h8V14.2L8.9,14.2z M14.8,14.2h-3.7V6.7h5.8
	v5.5C16.9,13.3,16,14.2,14.8,14.2z"/>
</svg>
