<?xml version="1.0" encoding="utf-8"?>
<!-- Generator: Adobe Illustrator 23.0.0, SVG Export Plug-In . SVG Version: 6.00 Build 0)  -->
<svg version="1.1" id="Layer_1" xmlns="http://www.w3.org/2000/svg" xmlns:xlink="http://www.w3.org/1999/xlink" x="0px" y="0px"
	 viewBox="0 0 17.6 17.5" style="enable-background:new 0 0 17.6 17.5;" xml:space="preserve">
<style type="text/css">
	.st0{fill:#3A82A4;}
</style>
<g>
	<path class="st0" d="M6.3,5.3c-0.5,0-1,0.4-1,1c0,0.5,0.4,1,1,1h5.1c0.5,0,1-0.4,1-1c0-0.5-0.4-1-1-1H6.3z M6.3,9.2
		c-0.5,0-1,0.4-1,1c0,0.5,0.4,1,1,1h5.1c0.5,0,1-0.4,1-1c0-0.5-0.4-1-1-1H6.3z M12.8,16.9h-8c-1.6,0-2.9-1.3-2.9-2.9V3.8
		c0-1.6,1.3-2.9,2.9-2.9h1.5c0.5,0,1,0.4,1,1v0h2.9v0c0-0.5,0.4-1,1-1h1.5c1.6,0,2.9,1.3,2.9,2.9V14C15.7,15.6,14.4,16.9,12.8,16.9z
		"/>
</g>
</svg>
